<mxfile host="app.diagrams.net" modified="2023-07-08T08:53:57.230Z" agent="Mozilla/5.0 (Windows NT 10.0; Win64; x64) AppleWebKit/537.36 (KHTML, like Gecko) Chrome/114.0.0.0 Safari/537.36" etag="2lSxOn61ttX2y9p8ebGx" version="21.5.2" type="google">
  <diagram name="Page-1" id="uWWfq1iglf4Udk6nnakS">
    <mxGraphModel grid="0" page="0" gridSize="10" guides="1" tooltips="1" connect="1" arrows="1" fold="1" pageScale="1" pageWidth="850" pageHeight="1100" math="0" shadow="0">
      <root>
        <mxCell id="0" />
        <mxCell id="1" parent="0" />
        <mxCell id="TDGRRJtZO2QNYIBtxTvZ-1" value="" style="endArrow=none;html=1;rounded=0;strokeWidth=3;" edge="1" parent="1" source="TDGRRJtZO2QNYIBtxTvZ-4">
          <mxGeometry width="50" height="50" relative="1" as="geometry">
            <mxPoint x="297" y="454" as="sourcePoint" />
            <mxPoint x="297" y="263" as="targetPoint" />
          </mxGeometry>
        </mxCell>
        <mxCell id="TDGRRJtZO2QNYIBtxTvZ-2" value="&lt;b&gt;&lt;font style=&quot;font-size: 14px;&quot;&gt;Main branch acts as a source of truth&lt;/font&gt;&lt;/b&gt;" style="text;html=1;align=center;verticalAlign=middle;resizable=0;points=[];autosize=1;strokeColor=none;fillColor=none;" vertex="1" parent="1">
          <mxGeometry x="323" y="390" width="268" height="29" as="geometry" />
        </mxCell>
        <mxCell id="TDGRRJtZO2QNYIBtxTvZ-3" value="" style="endArrow=none;html=1;rounded=0;strokeWidth=3;" edge="1" parent="1">
          <mxGeometry width="50" height="50" relative="1" as="geometry">
            <mxPoint x="301" y="265" as="sourcePoint" />
            <mxPoint x="361" y="117" as="targetPoint" />
            <Array as="points">
              <mxPoint x="350" y="226" />
            </Array>
          </mxGeometry>
        </mxCell>
        <mxCell id="TDGRRJtZO2QNYIBtxTvZ-4" value="" style="shape=ellipse;fillColor=#0065FF;strokeColor=none;html=1;sketch=0;" vertex="1" parent="1">
          <mxGeometry x="292" y="439" width="10" height="10" as="geometry" />
        </mxCell>
        <mxCell id="TDGRRJtZO2QNYIBtxTvZ-5" value="" style="shape=ellipse;fillColor=#0065FF;strokeColor=none;html=1;sketch=0;" vertex="1" parent="1">
          <mxGeometry x="292" y="359" width="10" height="10" as="geometry" />
        </mxCell>
        <mxCell id="TDGRRJtZO2QNYIBtxTvZ-6" value="" style="shape=ellipse;fillColor=#0065FF;strokeColor=none;html=1;sketch=0;" vertex="1" parent="1">
          <mxGeometry x="292" y="269" width="10" height="10" as="geometry" />
        </mxCell>
        <mxCell id="TDGRRJtZO2QNYIBtxTvZ-7" value="" style="shape=ellipse;fillColor=#0065FF;strokeColor=none;html=1;sketch=0;" vertex="1" parent="1">
          <mxGeometry x="342" y="219" width="10" height="10" as="geometry" />
        </mxCell>
        <mxCell id="TDGRRJtZO2QNYIBtxTvZ-8" value="" style="shape=ellipse;fillColor=#0065FF;strokeColor=none;html=1;sketch=0;" vertex="1" parent="1">
          <mxGeometry x="357" y="118" width="10" height="10" as="geometry" />
        </mxCell>
        <mxCell id="TDGRRJtZO2QNYIBtxTvZ-9" value="&lt;b&gt;&lt;font style=&quot;font-size: 14px;&quot;&gt;Main&lt;/font&gt;&lt;/b&gt;" style="text;html=1;align=center;verticalAlign=middle;resizable=0;points=[];autosize=1;strokeColor=none;fillColor=none;" vertex="1" parent="1">
          <mxGeometry x="208" y="309" width="50" height="29" as="geometry" />
        </mxCell>
        <mxCell id="TDGRRJtZO2QNYIBtxTvZ-10" value="&lt;b&gt;&lt;font style=&quot;font-size: 14px;&quot;&gt;F-1&lt;/font&gt;&lt;/b&gt;" style="text;html=1;align=center;verticalAlign=middle;resizable=0;points=[];autosize=1;strokeColor=none;fillColor=none;" vertex="1" parent="1">
          <mxGeometry x="420" y="173" width="39" height="29" as="geometry" />
        </mxCell>
        <mxCell id="TDGRRJtZO2QNYIBtxTvZ-11" value="" style="shape=image;verticalLabelPosition=bottom;labelBackgroundColor=default;verticalAlign=top;aspect=fixed;imageAspect=0;image=data:image/gif,R0lGODlhcwPhAXcAACH/C05FVFNDQVBFMi4wAwEAAAAh+QQADwAAACwAAAAAcwPhAYcgUIAkV4glWosoVoQrWIYuWognX5AoX5AxXYkpYpQrZpgtapw1YIw5Y448ZpA+aJEubaAwb6IxcqQydag0eaw2fbA4f7NDa5NIbpZIb5hJcJZMcplRdptUeJ1Ye55Edq1HeK5Iea5Le7BWe6BafaFQf7I3gLQ4gbU6hbk7ib0+jcFdgKNUgbNZhbVeibdig6VkhqhmiKloh6doiKdsi6tjjLpoj7xvkK9tk71wjq1zkK54kqt0krFzl795lrJ9mbV+mrhAj8NAksZClMlDmM1FndJIn9VHoNZIoNZKpNpPqNxQp9xTqdxarN1zl8B1mcB6nMNhr95jsN5ps99+oMRqs+Bxt+B0uOF6u+LZKS/ZKzHZMDbaMznbOD7bPELcQEXcREndSE3eTFLeUVbfU1ngWV7gXWLhYGXhZGnia2/ia3DjcnfjdHnkeX3kfYKBnLaDnbmGoLqKo7yQpr6SqL6Do8eHpciNpsCIp8iOqMGMqcqTqsKSrcyZrsSWsc6csMWcssiXstCcttGBvuOhs8ahtcqlucyrvM2jutOqvdGwv86wv9CEwOSMw+WTxuWVyOabyuacy+iuwNOswdixwM6ywtO0xtm2yNm4xtW8ydW8y9uizeim0Omr0umz1eq22Ou82uzlgYTkhIjnjI/mj5LnkZTokpbolZjomp7pnqHpoaTqpajqq63rsbPturztvsHAy9bBztvD0d7K09zR0dHb29vE0uDE3e3K1uLM2OXK3uzT2+TT3ejY3uTM4e7P4/DW4evb4Obb4+zU5fDd5vDc6PDuw8XuycvvztDv0NHwzs/w0dLx19nx2tvh5uvk6e3p6+7k6/Lq7vPs8PXr8fjy4+Pz5+jz7Oz07/D09PTz9vj2+Pr+/v4AAAAAAAAAAAAAAAAAAAAAAAAAAAAAAAAAAAAAAAAAAAAAAAAAAAAAAAAAAAAAAAAAAAAAAAAAAAAAAAAAAAAAAAAAAAAAAAAAAAAAAAAAAAAAAAAAAAAAAAAAAAAAAAAAAAAAAAAAAAAI/wABCBxIsKDBgwgTKlzIsKHDhxAjSpxIsaLFixgzatzIsaPHjyBDihxJsqTJkyhTqlzJsqXLlzBjypxJs6bNmzhz6tzJs6fPn0CDCh1KtKjRo0iTKl3KtKnTp1CjSp1KtarVq1izat3KtavXr2DDih1LtqzZs2jTql3Ltq3bt3Djyp1Lt67du3jz6t3Lt6/fv4ADCx5MuLDhw4gTK17MuLHjx5AjS55MubLly5gza97MubPnz6BDix5NurTp06hTq17NurXr17Bjy55Nu7bt27hz697Nu7fv38CDCx9OvLjx48iTK1/OvLnz59CjS59Ovbr169iza9/Ovbv37+DDi/8fT768+fPo06tfz769+/fw48ufT7++/fv48+vfz7+////5ESCggEGRAAcMSDXQwQocFPDUBiuQcIFfAxIIoHYI/KChhiMoVMCGGr6g0AAg/rCBQA5Qo6KKDvyUyIq2EEAUDbisSI0wTDEASDQ2+tCXjdRMaNgGe+DCYzTASMKDjBcixeOKsihEA5A4JkQCkCugCGSLPU1p4x1DGQIkNcQstYEwY/7wo41CDoZAItOMqWIxajZpVCU2TuMgQpKMyUFCedgozQBa2sglT4AAqYlQcshZZlIMoJnmmiu2GZgDvMgJ5CF2FuUDkCIeRMCTNu6RkC02LlroioeWBEgisJr/ClGjNiYSFAOk2vioSiTACuuJF+2haZ17AWnpXwPUqCmQsnYa1AVA9oFQDHICgxACca4Ix0ApGoqSpNTkEpEDuXYQ1Kc24sIDDDywhK6KCF4ELjXTAEIDDcAWy+ZgcAA5jSaFaJIrvcc621OmK4p7kJhy5kvQC0BiwO2W3yYs0QWaEGMLCUK9uCIwTLb0LjXxVgStjW8EZuxg8wpjrkAFMLxiswb7lKiNDRw08IpyHCTsilWuyiJKpCp8lSY2FgJTHDaWTFEHFAO2cmAbAMlxQbnYaHTNPcEAJA0GrbDs1gNlvaIhBHXL6klVW4yVLDb2/BLSKzo90ZU2CjY1YF6q/0i2QLSqGA3XPxUgjY1oF1SIjQMfy8DXaUfNAAkwdMDAQxvEwAMNJCCg0AVm+w0SASTcwMMLrVKU+eadVwQ3zwxdwC4NK+TckAOzjxCyQYHDexHeKzaEAAk0nF7wTqQXH8OfHyGwAQkbeC7Q3hRNzvnlBl2wAg0v2N5Q8saDNIADqT80QAfFv3A8ACPbatDIQRPOE90qxi/QvHDkGkdBfasovdDUcMAKZJEtFWmiQwlBQB7mpSJcgK0gmmAgNaKRiwomjiEVzKDDBNKAQgwsFw+MCAP2sDNbhJAhA8hgroSRQVUNpABykGAu2pWQFaBKUImwFA1ycTggAUODEPlBBf8RlrAMnlAgMNBEAVXECznsySAvyGAuAAEAEkUwGtvaoRT/NxAOSDEXQDiIJqR4tS5WoocrioYkNjiQMWZwQhsoBC+iMTiD8ICAqcoS9RTSASlScQOXKOA0LNGmKCrqZQnZQCUGBgwnHqQBUrSFQGggCWFEoxIGIQAcbqgiW7RLixWUW/YMMTBh7AF7A/HaipRmEI+pKEry6wnT9jWQEQCpAa6kBi4UZyNJRg5xy9rWQUYgwVQ9EQDFtFEsGjIAIDFvIB0gxrLc95AVSHNZldhdQgiwrBXtCgAbAEY3NcHFgfxMTtEI4Q+6qSJENuQO7KQGsQDAAPqhMwYHyYGNCLn/i7gBQG0qOiIA/gAkXhjkAXk65h2W6C9hFkScK9pAHpZYkAsoS069C5JDxLaiS9AAjYzL0jn9Nc+C7IGhNnJZ9hhHAHu6UCAvSKYl+rXKg8ABpECKhtMGcIENjIBBBiHBEkUZS520bUXzJCiMANC/ABIEoioC0y/jqaJQEWQDOxvTJQiSzBUtE4XOJMgDsmojKjqEBGS1kSS+F89dXSCtXjUITZc1jZetk53uZAg82UmsC3TVRg4diD5XpImLqkhunKQGNQciQQ0UZGQvHemydGAQqFJDqXkbyJmoWqmNpjStwsjomMpIEDyxUxqkBcDJBHczwhJEByhNadIM0tpu/woUITzIlTRQWVSdzAuTjAUsAAwnXIGstp0FAWg8DVqQfuaJF9e0UQj/So2vLqSZNnomAHIZjUQYgogqWl9BCGBZakgjFzvL0kK4yc5dGZZevJAgDQWCK60BYpG9FMhdu5nXhey1m3VCAHjZabfBLktusxRcQYDnz9L2CJoMpeDAoqFNy6L0hQOOp3gLwlHOxnOXJh1TNCQoDN4eV04u5ABO2cnKgew3jRKMxoarKDOk9rYnNa4jADgApAcIxLSvHAgPGGcQ5apIEnC4Q2JVhMBJCopYGwgdNVwYiwrO67wVRAQzwwozNJbYnKVqyJDTON8OgHet15WEmouhNTVLIv9xHaZXHAilWsP6UiBjVlGLIbkvUIKUhRVko5TUbE9quFkS6q2tiioRBx8AgoHFOKaBNSW3E2tX0UwkyABy5T0gU2MXiOTBEin7VHaCWVF7gIMhijnjgcRZcIX4wR4ybMA4yKHQGtXsEishJATkL8wDOfGYXCjlCSYCDnK4hJxaDIAG5EoWwCpAbmvlIVwz+8Y5aerLRgpiAORZRdjLJXCnqqJpqFcgkiXq4rRVEB6n0SCT/tt1uQzO2XJVGEhuNQD6tKL5CiTOOm7I6w5rkJFKNdh5ClkfbOROsU2RBsdEZtOy54OKW/ziPtgdg6lR5D83GQAI4DfsBCsnW/hgBSv/cKxAnEvw4MpJ5QCI850BQKpo+Jggtb12eSe4BxqMAJ8gz1U6CcIAT4fXsyltU0vH5KOBJDigDl7RYmHKODqrtloHIsHVVAkjS62AgczG7JQNsgFBes8guCYqtnPyuAaDV5TYerDEV9R0clPDrAMZwLyYTYAOwCERwCgnAoBUznhHBLsreuZxgcHbcjKkACOAgyR4YXUAVn4hA6eG2qvYgR8kghdnF8gSbw6AkeIdZgmZl928zc6zb1yuVjuIlJkrkEmryN8ECdRSBcJgKYtypPsbSANgsAdNTJ19NtpqqW0kC97iGUi4r2J59R1zyF1VUQYBr0OJW27HAyDzTRY2/yAuD4Ach56pQGL2vI6Xy9uyPqWpXXtODLvMox69jamqNy3tHn+RK7YhDDACueRUBGF4EIF4KqJdIHVJcEAC5FcRDUACRud9CJF5m5dAHVBjuYZ+NsILgMADM6Z6dtR6BPF6EKRWCPFqbWJ7p1cQ9kcN2LNuCVhAtAde+nYBNABeLwUAliUN51d+6YIQTUV9r+Z8AABSJbVdDQYAXEcNvIByUAiFnhZ8VxeEBzEvNEMQhtVi9hcNURiFMnh3CJFYtkCB8mcTIzUNBNA7tKdfeZIhHXgQylU+YodmZKdqtkBWqWOA5kNvA6Up3XVuEbEBcXAIeagpZmgQFvg5qiYLZP+ldMnEC3dAegUhggXxbXLiekBiEPOSAwmRK+dme4I2EJbliQDAZp0EAPZ0IsfVhgRBACuwB5XAQyj2UCh4EImVhQi3fwsRZ9NwhRNXELUlSi/GWc1yYnVXEEvkfmHYYtTiYUd2EANQQMRghGeIExtnSDNTEA0AfZ7WggBUPgu3InY4EC+wc3Kyh1pzeH5YALR2Ntq0EDRAXf7zEIt4ECTAct1kKS+wYml0W5ZIEJg4JpqYWQSxRB9XEOA1X5MmDQsxjipiK3GmJt/WMy+miwOQB3BlQLbIbgdhWdE3EEtEhIICjCtiVQMxjKcGjRd0YoI2eDaSkAPxX9TQYiPDWTv/yEE2kgfX+BO5UmhslFgCYyMoOTHeUhAQaWghpik4pY5u04fZVRAFYHRAonwNgWkrglOJWBD3WBBxEFvmtUcc8FcCFZADwQAdkJZquZZ5ZYIEAVLxNxDgFUKTZj8GYUvvVmM5gwBoZFCepl3DVWyCkn/Ld3sIAV5UOF4jiXQq4pCcSJS0tYSiFU8tGTUGsUQhqYQ19XzQOHaZZCNA15M8QZVAY1N0FY//ZJkDkZTluAJLJAyxtgIPgIAESHJP6RC0CZjGdQe6oCnuxz8+BAg/QAIO0HYrspUE0ZUQllKFAAQrMCG5cjwvkAhZJQwRZ5Z3s4mVaCOZOQAgFYo2Yi0L/zEvK0Aq1uVpHUAqdqmBtrAHPNABCDBpO2hZ7pd5F+SCe1RDJfmYJxmZI4d8MPICAjqgBDqgbXJiPwgA+nh8AmFZLQYxK8ILBTqhAjqKDXChCSqaNnGTNvIHByFsriWHqikQrKmFyVd5MLk2BbiOB+iHBoEAL1AIIFWOCXFmyUV49riE+EdY2rSYCXEBdwQq21k3v6OdUceRB9FU3jNp4qkQYShlxNI/htWCJ4Z7Lzaf0oUQtQUMD/h0G9iL+zmkVeWfLQcADGaXL/Sht4QQYkcN/eWlLXZcg3ItGtoUIMpkCCGYKpKYdieOtwgA7LUieQU1R2mb9cOOUZl3nZeF/f/jigdhnPdnjjjqEMopEN+Jn7zIAC9wB0VpCTbCp/NCahXhlgNxkwJVAPPSbQDApAwBoZk4EKOiKYL4firSpClJmKSYpUkKJHxKT43DmOZlkmMqjDqaK7dFA/8CBJaCoAjxgtFgilV0UulHENp3EB0wDbIQB6OIIhzwgHVqE7T2TQUxmdQwinNoECVKX0CyQYWWOs+4InGZELk5EH/QQ9NAia0YO3uUedSAnANRqYGqIqnlf7nmjiE6k5+qkPtUpAY5EAggdP52AfyajKzKEFm1gwSrYAUxV05YEGOFqw2qq5k0L9OQmFE2JiSZlcJKDUUJACo5EGEYDamFAdG1gcz/ihBUGQ2acIhjwmy9Mw1HhCk2MqsCMQD8Rgzx+q0zgZXXdn1jUgwJca5I+ac0ZyOVQGcFgGmp84LTEAuV0LTSSG8cmwvAMgA1xqCKSW0CgQAa2K85+p8D8ZNMQgCStYFSBghMcgGW1ak+ZAmasK0KQaoDIVq5UAjFx0gFUbELMYAqkowcCCTH11TztQHvhaUr8pscW6uSAAi24I8p25gr27Ivy0EDoyTEsyMLu4srkqGRAo18x0Ca4AMkEAMkxKIGQZPR4K9KyxJNuCJES61jgrapWairSbUDKAyV4IjpyJ9AYl0jQm8P60OygIq+2xCeGp7Jm1W6+306KhBheCOV/zCUYyIxnJlGuIALf/Y+mtJfDSG4AxELnBUNG6S4UiInzher1kcQ0Zsus4hSzsuDInsQ8AuNnxuszMuyZKp5jxW/DnOzCKG3dJVY1/YCYDkmLSsQ77V6uysT3PduClG3vym1BJGuxpVWFMSL5atMW5aoAhEDFRyNDbEB/ig4Upahiti9/5RW02BYDkOaQLJ6A0Br7MsQ7ktfS4ZOq0e/2zQwOamZWRlxApG5QEKGHQl1CcEAego0uQK4BBFnjimmCEyscCsQutdN0lCUDowQDFAIKEUMLzBSTesDL2yYCFFoSbvBcwO5C+FuOBO1IwoAJPxvWRUNMVBbugkAv6bCYP/FwpOUVtn0EDAwyCuQS9THvWMsEB1AvYyTAyNFWgOACMsiDZl5AUc8xAtRxEXLxmMjaEqcEEbnuEhUlQmBlbrkbBFaxdTwmzDDuCpCDF7EyArhxaGbwBdIA5oMJG68Un3MEA7geZqgCYawJE5MDbpopl0VDZkpEDpgu3hcE5R0aHcsEIdwaOBIdIcmCUbIA4cWWCjiQWlkCBPyzWpmroCwC3SUC+ycEOdcMCNEspqgwQtxAaSURoXQIursZpW8B4fmfg2Auo2ZCBnAhIfWXxIodPC8EDxwRchbPjF8zgFdCFemCb9JAocGtgexAudsjUZ7aBfsakr0MXPmsm42dYX/cGgyeRAcUAjRZUqXcweHxsWadWgMWtNuxkYHrWbuVwBx8F68EAfexwDnvJUX0NIAkFj5XLQ/gEcfswc2jGdzJAld3c1r0VMc/RIN4FMbgJoQQdYq0VOU+BAXkJaV3BJnPQIX4K04QQA9ZY0dQQAPAMU84TwjED0ZkQOrNkEPaMvwuhAFcAGDHdZiHdkGMy/lzF1qLdmYraGSZQiHsgGFZtKZHdrXqNgphV4i9taindrXiKyclc2q/dq9RQMbOQ2wDNu2fWMXUAlg+be33dvXeAHObAvQ/ANz7dvGfdzIndzKvdzM3dzO/dzQHd3SPd3UXd3Wfd3Ynd3avd3c3d3e//3d4B3e4j3e5F3e5n3e6J3e6r3e7N3e7v3e8B3f8j3f9F3f9n3f+J3f+r3f/N3f/v3fAB7gAj7gBF7gBn7gCJ7gCr7gDN7gDv7gEB7hEj7hFF7hFn7hGJ7hGr7hHN7hHv7hIB7iIj7iJF7iJn7iKJ7iKr7iLN7iLv7iMB7jMj7jNF7jNn7jOJ7jOr7jPN7jPv7jQB7kQj7kRF7kRn7kSJ7kSr7kTN7kTv7kUB7lUj7lVF7lVn7lWJ7lWr7lXN7lXv7lYB7mYj7m7k0ChyAHu4MAcRAHJdUBax7OHHQIlWDKQeEAay6qsWMIf5ChBuKeJLHmvUrmr2EI27ANnCITF//ADYo+bqql6F+MboouLQyxC4quDXwdFCug6LvgEAQgDYqOphdA6YrODSMxAKOO14KuGoew6DPhA6P+i8Hm6CYV6Sg06tzwu0KR6dyw6TFs66E3KrZO6iJh6oqO6qmOGqvODYy+tnIgB1QNEhsw6phAEInODY9eerTOELig6NmwvRjRAc1e3A2h67zOEAQwDYr+DAbxB6NuCDmQjGsoB7qcpM0OxcTODcZ+7KaR7Mve6MquEi9QCX9wTNV+7XuQ7QuBAHtQCOJuEQfPDc9OEeT+EBggCYeA2s+g6B5qEA2g6E2sEJWg6AVz7/mu76TB79nD6jFR8LPODZJ+Ew8f8RP/MfEYMers2/Hc8PGuLPIGQfIm/xooXxAdoPIwwfIE8fAvbxOFoOgyLxE0fxGjfjzVrvMVyPMF4fM/3xpBTxBL/+8rL+tHj/A1AewQ7xFPbxFRfxB94PEQ4QDbYPWadupZr/VEzwFFMuqmtAfVnHd6vwcF4wB9H48koPfQygN6j69gb05in0h6f0RyoPeO98Z7EH8I8AfOwA3ZkAtoThA+UAgZv+iNf1axkA3ccEnxN/EbcAjOoA2XxL6Sj0iP//DcYLh70DNEIgt4H/gKIQeHQPqKTvvnRvIM0AfCkA3SEAu63ADErw3aAJtAPfeHsfVvEOy2ftnIpOi6KPvQ+q+K/y5K237r1J74kO7yDeHq3DDtBwn39Ir9C4buwf4MbZIL1M/2DJHswd6C5D791J/PgND9IgkQ3AQOFKgNAA+CCRkAYNjQobaEA/s0HDBwBcSElRw6/LEtIrdCG0WOJFnS5EmUKVWuZNnS5UuYMWXOpFnT5k2cOXXu5NnTJ85DAjUyfPNRIAGTcgTuEulsoKaNBAZeaIhL4AqHFwRK27hH4ESUPgRi2jhNINWNfwTucdjALLdnlawK5DWAYS6jUE8qFSir0rOBPhyuEOhRoFOCaBsCEiin4duIBhEaXVgSY0SwACoWFPjsMjfBG/ku3WWY29CfqVWvZt3a9WvYsWXPpv9dO2fQ0w0brFhRqC9vrCa1CmzgcEPCAg5pCATmcG5whsO5OvTKLbNJsdzIOnyruKFabmwb4j7U8ALi0Bx4C2vMe8NJBoU5NOQ7bTDBOA1zYNS7uHFDD3gbiAfeSACAAd7AywW4k0jgDSMdeFNsM4ESQYChDgDjJpqNOpDIodFosG1EEks08UQUU1RxRRZbwg21hn4QaiX2uPnBIfB2EYgHh3BzrKqrstqqq69Sym67x84SCTzxGKrRAYdeOG0+5wR6QSUptdtIFmfkQIohwtbaSEZuDHKIMW5+dGiqkSbrT6VslNyIwlk2Ok4gDRzCKzyR+GKqRUADFXRQQgs19FD/n14UiUwYT6ruzWi4kcZDbmRxSBo5GXpOSEmJtM7IscrK9DsxGwLGyqhGmuvKlMIUZqMLNwqTm1gpGqgyhtBUsyE2RXKzpTi58Y4hCll1SEduRIyuIJIGKg5RaKOVdlpqq7X2thnHzDYlDQqzCwBKAQFAw8rufLVKbqADQDpPryvpSFGFXbJUhgwpaA8SviRpVZUQGCgXHoa9b8ORMOXmPf/SFKnXjX5lKViBKXzWIUwEeiPGpUjQeGONEYvhWpBDFnlkkkseUVFtc6MRVQB846YDAKq7GAC+mtQ0SPOGpK7IsELlblSGmGzrM252gaNWdI1FaY6EsqlEaTCXGklD/4Rz/W8jhh1yeCWIRaLwW4cksbihPoyK6EaT01Z7bbbbdhtljrZNqTpDGDKLQwAwEAiXuwSq+uZ0OZ2uoercJQnen+VNi97okCVoGgM34nelOIg+TV8AwvxzI6rPvHpNoBnaGs7QvxZJbG5mbtnshOBw+3XYY5d9dhThxlhlle7kKszMamzAX7hE2jTnTnf+tGctExdYaJE2kEOTYMvEFXCoUSKABkMc56buhjSf2m/PFcY69IMEejOlruccCOyGUFe9ulg4kH9++jmYnnb889d/f/5Xsp0hRrWEaripGl/ioAOB/EF4OFtW8QjHs5MgLkncoJJDEsG4kbzAYDYDwP/kXoIAl9Gqe1ITSecStiuGZK0ho0Nf6dZ3urExJAfMIQnm+ndDHOZQh237HwACyJKyhSdOznCIA5ZSCYHATHIMXJfOHni8CPqsITXi0UaQZbMN9CE0DcnO+eaiLJQMgAaZsGGNIpc5EnIOfCdcGPkmEwtguVAg7GOI+xoCvIONxBDS+MP9dvhHQAZSkC3q4XK4ca6V3MkwHNyTE9GlLnYZz3AjkSBDcINIhmSJTxgSiDAwl51EbASJm0SJJgTiOofUCAMjLNr38sjG8SlOVgLB28q4kQOvvXAjdmzIKIWBNACQQCDZsOEgjXlMZCbzJz0cTqXggMqURGogeXJIUQb/EpIFBo54g2NI4UCVvIZ0a28jKMAF3mAam0kTFwjzgMF04CmQ/ACMJDFkmi5UAPBw03slXKPVxAc6WbZlILh4ZjFHMsps7OEHZzTdLmPIEAe8RRoBIwAG9mAYFCpToxvlaEdP0kMAVIwgBh0JeA4pkvgM5IyPFFy7vomkhoQwIbxIoEM4kBDT8G0jDIgeN843EtRxZiBK26caX+nPjKqwIRckiB9HcqcPEUuXYXsoQ0hguYGUx6Nb5WpXlQlSBIj0KCqhFDfmMBJZCMQ+qmJiJJ84SZFUcjwR+YMhtdoQEmiIIJUAJoYQ49OUyFStuBzY5hxiQqS2MaAOKcAoBeLU/5HQADKZaShVUyeSC6Q1IdPIj1c9+1nQ9u8B8ntASR4AAxpUMCXzS45IGiA/gUVHfpgbgPz+BoDXcmBi2JGinfZQiUrsgSoFgO1IYAAI4PZBiSXZAA1gAKWUOAAOh8hEIt7QV+JyYJXNkx/7cuvH+dFxIw54AQ2WmxICdCAHL0Da/EZyAflB1nmJyMQhfEDS0OZXv/vlb2rk2l8AB1jAAyawbfhy1wInWMELZnCDVVIAmnKjsw6mcIUtfGHQ/oAXlykthj38YRCHOIfV+ZyITXxiFKc4ZDyIRjQ0UT0Vx1jGM6ZxjW18YxznWMc75nGPffxjIAdZyEMmcpGNfGQkJ/9ZyUtmcpOd/GQoR1nKU6Zyla18ZSxnWctb5nKXvfxlMIdZzGMmc5nNfGY0p1nNa2Zzm938ZjjHWc5zpnOd7QzlDuQZJXk+b3T4/GdAdwCy5uGz9QKdZwz09c6LZjT+GnArkxRAhY5lHTRHQoDLqOuprJvG0xr9aVC/7tGPjfSkWTcQS8d1ryeBKut2cdtQx1rWNJFFNmwN3diMmhuDBoCkgTbKaMhC2MMm9jxFoj0RMjerh2D2ITChvW0Ye9bTprZKGhlb1uia175e7CgV+JI7RQNZGTXOQEaCgItapNrrZndJIrxY12i71L+u6UvsFZ7sYLJ55iaJBqSZDV63W+D/oEaAabC9GnmXhNvD8vZLMH0WAhhmpXbiN0k2YBhsDlzjQW6AAzxulwLoYA974AHSLgCHP8iBBq2tIQ32YAhAxEG1ke2DIfqgA2A+YAWN5AYJPG5QDcShEIWQw8QbQgCPO2BiFxD0SRJOkoWLst4tmYxOmdqocgvkJEwTiKI3/vUbSzNdcDCNQG5EgKAWRHUNg8xAhGH0zNVoINtoEh4/UsWGbGAuBJHGFhtSz2fQ7C3kFiipFW5qbny7JciqojC7bvGKkwSP0gZ75Wks9lgYRQeajcjaGcJUo0ANgUYJJQDsHhG8A6CeH0Gw6gfyDJkSXjeQPjy9E+8ScWpDXzVK/3XeI7+vClle+DYW+6mNsg2kkWkgbefGNPSFgMtEIxbFN9DpE4L3sprN0qtPiOwZomsexED84yf/6LstkEM0QP3rXz9JXYZgvujb91p31N6Gf38ZF38bhfiBYCv0gz1oO7/TK02AruwQiHdiiAO0lKAZiLopAGHjOVwQNuiQu7djiA2YhYHQvb8zG+/DLeOLCIYzPs8jFow4r5TiBg/YNPozCTjoJPyLQRQrvqrxgIQgLAAwomtqCAaoEWlgn0zYQYYIon8CgFjYA/biFKCpp2mYngHQK7RxPYJwhhy4AAbwutkLwcSQulMrwfI5qY0wJdzJOm5AHm6SQTTEMLFrFP/H0TfHahQCIAGocRzUsCZuyAY4OLgmQrzbgyfUWL1owC/XegrgKkRDrASxGsEyaTFGbMTUa4g9yagYGIi+giqUiAMYTENNvDCxQ6EglBsAMCmY4kEakINEyIXPQI1mWr5KoLxVHBa504ZpmEVavIzNWT0cTImnG4moc4iGW4lmIjo5GMZhJLHes8STQJM62URmdLBO5MIxBAAiHEUOQLaMMJ6IEAZqIh6g6SnWCTyGWL2A24hdFIle7KWpSwk0MT75Q0aTQJaMa0Z5LLBn9MWBaJRpVI6PeAaDiUYfYL5hmp5XjBfjI6JwJIiWKMeNOEeG+MWUGABvZJ0+c0eSaCb/GJtHjNyvekRHUMxHhmAAW9QBDLAL3IjGTCqEd0M/JVysd5ODAnhJmIxJfVm9hKQ9qEM8xUOJ0ZsGYuxJYqwRSaC4FiQJppoG8cpIpAytjWzIe9wIj5TCMmG5DmpKh0CAqmEAMQTDBgKaEGLAtjCEF2AfmmQJhWQsnFyJuRCXkpiMbZBKihSJepqwpJxLpRwIFHpDpxwIJCExTGoA00CNQmAPYsKrgaglEAyMjXC8EgMAMdyGLRrLlSjLhmBIAHDIk2gmWHOIh7us+SvDw3E7ugzNulxMvHSIpzS/ZGmcVWOIrNSE4iAAx8qEjfgMWXgxIBmoN4gBOJA7bsA1yFQJ/8lkCMq0TJPIEZS4N0x6S9OjAceZBlwTTejcqqWsTKokG73Ujc+Ihn6sTsUcpoSAGkrbkYZ4AIBMCJv5TV20SV7kw0qbIC/ciJsSiAqCqkaMBqIRBj2MTv00puksTevsrQNMiHvjBjiiD7PhHodgAOZLvQ3Qq4hA0IP8PZQIzl5jT+2TIUpMiRq5q1YzCm3Yg6PcTxE1JmHYBhNNtUow0W1ovYsy0UZ5AQd9hhfQABXVqYaAAd5svt77yEq4DGNDN2/cheqhARXdhoRU0W1T0ecEgEMoUict0pmJBRdViXPaBufDwCc1UWnghUrgAakcUTBtsA7QgRyYuZK4ABr4Af8e6DOSaIALCFFw0YE3qMIwrVM7vVM8zVM93VM+7VM//VNADVRBHVRCLVRDPVRETVRFXVRGbVRHfVRIjVRJnVRKrVRLvVRMzVRN3VRO7VRP/VRQDVVRHVVSLVVTPVVUTVVVXVVWbVVXfVVYjVVZnVVarVVbvVVczVVd3VVe7VVf/VVgDVZhHVZiLVZjPVZkTVZlXVZmbVZnfVZojVZpnVZqrVZrvVZszVZt3VZu7VZv/VZwDVdxHVdyLVdzPVd0TVd1XVd2bVd3fVd4jVd5nVd6rVd7vVd8zVd93Vd+7Vd//VeADViBHViCLViDPViETViFXViGbViHfViIjVieEID/E1CBBZBYhE2AIkgCjr1YjCVYCeBYkUWCBPhYgT0BkU3ZIjDZfw2AIEhZmFUBluVXjYVZmz2Bmc3XBbBZnk0CCchZe62Anu3ZkgVaeVWBoe3ZIhAAo31XASCCpB3aIWjadl2AI+hZKbiCqEUBqlVXChjaTZjFYWiCpP3ZrjXXFBjaJsgGKegEYtDaoUWCsyVXARiCnmWCRqiCbLiFW7iCbIjauRXXmuXZKfiEaGCCYpCGQbgFX0harg3cbw3ZofWFbHCEJJACX5iGWyDbnsVZyPVWFABbKWiCaGjcqOVYs/3cba3boWUCYCgGJvDbTojaIiha1dXWwbVZKXiEJCDd/1tIgkaA3aEVAqa9XW2VXJiFhCTA22xghCQYhGyYXSYY2sc13mxFWZsl3WEohiTwhGnAAkcoBk5I2gmw3mwNAKTt2WKIXo7VBVsbhKGtXfPF1tzlWU7ohGyAWyyoAqkt3vmt1p3t2UaIhmKYgiQAhWmIBixI2hT432sV2p69gmlghBZrAibohE2Y3p6lAAe21vTt2UfwhUbwhdKNWiTw2A6W1qfFWkjAAiaQgmloglsYBikYWiLw3xSGVqtN2SiY3SSwAs2NXinIhmEYhqSV2RyW1q+FWcZVggPehEGIBkeogkGABM7l2QpIYmlNW5sFhWLoBEa4hWIgBsyNhKRFAv8I0GJoZV2etYJsmIYp8FtQ8IRs4F+ltV01Ztb6hVlGAIZs2IQkwIJbAAW45VkkzmNn5eKkhYRsgN+o9VxEdtYPTloE1uCeTd1IbtYljlomWOA7zmRoDd3TTVriBWVoFYJRpl5TjtaNTWWbLd9VflYBcGWYLQIFiGVoVQBaFtkhwGFcZlbkdeUG/uU8RQAN4IAO0IDdEhQG0IA80wDIwl5X5mBirlMCeAFC2AVokAZpmAZpgIZgOAQdGEfaQAAaOARt7mZvhoZeOAQaQJpJNmEUrmYRRQA5CAZby2d9zudnIIT8zLU9cIZ9HuhscIY9eJZWPt0bpmcw1QFhIGiIzob/Z5gDQXyNNxDoiB5oZ7iYBFiABZCACaCACjgBFJjkQ2Zo/SyAQyDoa1gGYzCGY6gGgpaFf1YNBsAElnZpY0iGayBoTBg0CSgCJKBmlNZPBoiFfa6GVDCDLuCCLdgCLuACMiCFZdjnYMjM1riAXdjnZjiFMmjqp+aCLiiDU2iGfZ6FDivqPC0ApM5naxgFL9CCLJhruqZrLlgDs87nYKhpnmiArc7nanADLpDruqZrLeiCUJDpfN6FZVbrMF3pfD4GMSDswq5sL2AFfZ4FLPSJAcgEfXYFMKDsyjZsMHAFfZZNx7bTHPjsLhht186CLTgFfc5J1oADfWYFLnjt0eYC/8zOZ7lM7f1EgIe2tWNobd0e7S1QhXyWBjN9iQHAapF4AGjIZ1fYguPebdO2tWdYUuCGzjdwazG4btfmAmTIZ6yDCUOghOZ2ynxuBi8Q79H+grzOBtpObQZobIwcgL/OhlIQbfim6zNYbr5mtWyQBvUuCQR4hnxug/8e7Tbg580m5s7OBsNCyg4A7Pdu8MLWAmPI5/d0CUqwNWmohOamgfa2bg2vay5ghnymPIb2gWyYBb9DCQ0QhgS0PDnIZ1ZI8cp2g3xGbZrYAH0e8ZkrhHw+BR6vay2QbVuLR7Xug2y4yJLQgWz4cIGrhHxmgySvazDg55sI8SEn8YaYhXw+g/8tp2szyOdcAO5CUPBg0IgHyIRpcIY/+JKLpvAr2QNbcwaNkINXy8FdUCAP2AU5OAQ4IgBC2OZK4O45GwBcsLVrIIMzn2suUOxpgAMfyHRN33RO73ROJwSCJnICUPBsuIYMP3Mv8PLUDmgKPwQCEIZnoIOVDgkTnwU6cIYmlIOH5nMAAPUVvACnAYAX0OuQygZC6ANpqHCSoAVmb3Znf3Zoj3Zpn3Zqr3Zrv3Zsz3Zt33Zu73Zvv/Z8vgYwmHTYruqMPnd0J+jphnT/5vFKtzVoiHBc/oNswAoYFy6tzoZ1uS4EwHKsoPKZ8fV1CfZhfwaqAPZMuIALWGk2FYlvf3j/iI94iZ94iq94ig/3LyD3LVCGdO94jw/3dk/xd8+GeAduescKKN/nC0CAQyD1KAcAgGcIgQd2jRh2QmAIGRjoG68z/Yb08J70LZjvjx/6fd4FaYB04z5zLuhpkodTYj55APjuHWAABniBVQJ1OWgAPb+SmA/FbMAlEiD4hMLAbDAEqucAD3D6N/NsW0sDck91W5uGP+gDuq97u797vL97LCfoWXjnv450ch+DfO6F7ob6BpAGZ/CBOEj2yswGHuAAfL6SYd+FG6HyYPBzsW+SrZYDH9hq/JazlM8GVCB3NcjnZawJUD9rGvgWRcjnUCB3UTDvwq93MMHoXsgTDiB1/yxXFqT+E7bHabIY9ia5ADIneReXs2G3tWZA8STXglbIZw6KiQs4etNffY6I7JD/bw7P5yhMbRvCgO1iCALYAKTAnCtsCAcoLQL4kmJ6APL/tAJweS3fcjFg+mlo+JdI/Ri3/vHKZ2wAiDNZBhIsaPBgFjPZFkp7AOAhxIgSJ1KsaPEixowaN3Ls6PEjyJAiR5IsafIkypQqV7Js6fIlzJgyZ8b8szBbsy4IdxrU0urmrJMXpGWbRWOAxUo3j23h6TTLlmM3K9GsavUq1qxat3Lt6vUr2LBix74cepOVlqcItbi5mY3GSUJGkV7k4PaU2rWmbk7rQPYv4MCCBxMubP/4MOLEYufcTZuXoJprN2GdHPCCbkZDN6+FekyQrdtDikeTLm36NOrUqlcf3vBmmltVXB6zlbzQ2QWsDYJtLuVYrZa9N3sxYG38OPLkypczb56VQIcfhnK5deb2mBm1YX7yfaG1AzS3r8aoHfPK7TO/ztezb+/+Pfz4YRmsgHOol1u3hDhY3+xKzWwGbWHGKrYtNI0OXL0Q3matoBFgQVyg0YqB2UDjnXwZarghhx16uJ4OmPSXH4kNAIDBLiRWY8wqp5SiiivVVJjNMxhy1YEwKr6iiikvGlMNicKo9yGRRRp5JJJJ0pRDiiTmZwhECBTiJJWT5faVA0pVSWUlJir/+SWYYYo5ppI0NEnllRB1kMmWbu2SA2ZgvTBLmzfJYiOZeeq5J599pgYHlaJRtEEfZ+YXjCGXATaAB4QY6iYhHsTpJ6WVWnoppjLNwCCJaVJEQAMr+AAHHD68cAEBhhFwwQujlnpqqpnKOiuttdo6UR9VLnIrr736+iuwhjVAZ5UYBHsssskqu+xJJDyT3yE+TMUstdVae+2xcuQ3jQ8n3rQBtuGKOy65YiLAplvBgPvQQpiU+y688cq7Hgc5ulUJAhHRycG8/fr7L8CEvUGiHBMRQlnACSu8MMMvEaDlTc4MGZEPHjR8McYZa2wRBvi5FUtxFOW7Mcklm+yvDrC5/7XHyS27/PK7A2jm1oUw23wzzsde8OgsXub8M9BBU7pgfoQIfTTSSSuZq1vSwKU01FFL7V4DsuS3i6dTa70116Y5C22sXYs9NtmAaZtft2WrvTbbV5176Lptyz033SbVmx8mI9e9N999W/QDwX4LPjjfBFCSnzMWE74442XvnB/IjUs++dQ6ELUy5ZlrHvQAU9KM5+ahi17yA8QC5cDoqasuEQF6k4bABa4rNkADDYSNEdFuFbI676Ff8EYlvEUcCx0TB9bAG5hwutAzlfwgO2AvFEpiMITQcHtEe+QnTQ69ez/5DFa3KUwc2Ie1Aix1ZlOJ8fPRsTyV0xDiaQOxXP+d9ff5872B6eo/w8NYLoAu9S2kEiELCxwuR8Bs9CFVX3OLIsynvwnK7WxOkgb83JI3sNBAZSSSxjM8mJ9nkAAsw6rSMxRIol7ogEQ/oCAM63YIEtlCDzUIwQdy2AIqWEKF2diFz7ZiwZsIQxA4EEEOP1CCJyDCXm5JUFc0MCLmSQIKLEiiCGzAB+rkBxrCy4Yw+BXDMbJthm65hAuSqEYs+kGFwThgVob4wyessY5QcOJCnqaVCzzrJs/QAxLrmMQaiI9EmYAeGRO5tSE+g46CrGMLcOGWoGjlBfkJxCPrGAJE5CduVynAF7OhiRJkco118OEfFKlKsdmFiC0opSb/LYE5rDBAgdOAAizriAe3CEMrZlwIInK5xhr0cSGUXCUypXamZ7xSmGvUhFvwN5ISauSX2cClM9Woh1mWhJobIYFbJJFNNdZAhWlLJjqPRgO34GCcahSBEymRErmsACMXcEsw3ZlEWd4EkR+h50ZMtwsQ6DOHdajOpNKpUJuZzhIFTSIU3BJEkjTAmPWsiE0WIoxAFpQFCnyDSSpalItapJULqcFDc2gLt3RvoS6F2T1v0syUngkO8wQKSSPCKT2kNIeCGE5ccGqRjIqypx/AgVsy8dKlfkha7SONtBZiC6N+YJsLQdhJRCpUiJh0Ghx9aAvc4k+PaNWiFPHYNamK/8eEMrWtitHbRAHQgEnNFSIznFgBxjqYX/KBqmFliEoIQaJZXHRgUqXqB5yoR5IINj+EjQgC3PLVh3LyJmJ0K2YN8wZp/CE8syBBjkj4kBwwSFAaEF4fAHCm3TEAXbvgFwKkkYlKTCOuYzFdO6lazD3Iobe+/S1wgytczw12BXS4ST6Nys9sZEK4zn1ub4nr2IuadBeIPehNWprZ7QpmYND4gyTXN8NeAOCeu/ABJrLRrVhcaIaE4k0sXhiLacjBB89wRutusgs4VmQHtPgvgAMs4AETuMAG/q9bZtpTXiywwQ3mKVUr6+AJ06wWtbiJJhCL1JuAlLse/svA5gCADf9kIxgPwQ8AGLWBC2jLaLuQxhsuaxO/3PNOLzjcCiKbDQ1sxL8H/jGQg+yWK1KVixQ+MonwgNifIhnJnMowVTe8EJt+uMphGViCGJANhNkvVZ6zjtE80MdYIGXGALBkNqahZgRF9piDORNK1dpkJCuwr1RNxJwnPIsXgPOwVH2CW85p5UFvBcsA0DKXs0GAdRqCUdkwWgM20IH0ds8mJbynaesZ2VgYZoDY7GkI3ALdUTtXupN8gQUngdiVFpDUrpaDqYGCoZhmwxmI5YNbQEfoXVfF0Ih+SJdzwNwXWM1oznCGDg7nHUCdFwBsOsQenCENBmzaMNoDZpRvYuKbOhb/Qy3UKFVBoEDFlaSxp5aIBxX8UGjexCG8fndVfvAMuCCgeQ+pxDOQohRp0OEZRuuA8FIJAATYz2gIMGMvSlhvdxUGzbW+802ghJKyFgVPOj6pUQF9k6x2myID9INRReDBXsK75GCRoF4fkvLADIBTVOhpCRSo65GYe88UCW82HNpTVmdDniap+cwfElUwEjSluL6JwE2u9GCZWxg4fCieb5MSkT62IkPPRpwLqvGFBJ2sZr1IbG9i546qkMdLP7uvaJ2NRDzUCW7pcFyqfpFi8mKyzmTBiHYR95xehGlpzro72d0utBO+V37PxtizWU6gpoTcGBE2houeTREYORuO/x/J5TFSb1fqU8ILkWbhQ28pAqA1G4AYJw5U+NSZDDAbtrB7JllgKEFhZZ1EBDwsQTCJ/BRM9L6XFQZUaAt1CzIETObwVhCAR2H0QJhQKGZRuHL4afBB8pmsQeWzwfDfc/9SHhBhNiaB+ySygA9TzAbLuHKB89viCdZPYgiokP1drDwm1gQjIB+Jg+XehMzd/7+lcAD0aZQl+AEe2AEfJEL2LQTcccUDPEo2SIMmCIIe1IEeIIIt+FBR1J9MHN5N4AIi6IEd6IEgXML5FRBbAaAKkkkDtB4BOYM3eQUB3B8BJd1X0EAGqU8DriAP7gkNhNKW8JsEdQUJQGCVyMJlaf+FACSAAkCWuakPJbhbD04hn7wAbVXJLLxBAQjGjQWhIazeSgiAChTBEFBABaCACgwBESBBErRhEkwEA8hB6ZGIM/QB6FEhHorJAHSAD+wBIRRCH7zBC3AgWJDAG+yBImTCIdDBG4AhSyzAEbihJE5iEqiARTSADsgBIVRCJRRCfd1hHobi6FAAJZZiG0qAKKZiOqWAKZqiAKgiLCqSAAxBK5biEMQiLsZQAhRBLZZiBeQiMOaPBPSiKSZAMB7j6qAAMZZiESCjM4bOLJoiFnRCLaLAM17j5OyiKW7CMHhCLS4ANoYj4QxjK/pCNmBBLTahOK7j3pyAKU6BI1RBE0T/gy/UIiqyIz6yTQCogCkywjSYYyNMwTR4oykaQD4eJNlooyQygRsWQyM0QjQ0QhMwAieY4i8iJEZuzQKUYjFAAiQkQTEUgy/MIyO04j1mJEpCTQWYoidkQzE0wSNkQyeAgjQ0ATMaY0rmJNLwoyn+QjREg006gi+AQhXY4ivqJFL+jAAQgSlGwidUARMUwzA0QlGaojUmJVbeDCSaYif4AiQwpBREQzY0gilOQFae5cuQYisOAyjcQjbcQhIwgU1SohGAI1reZcmwYileASREARYAgycwQjZEgSkSwVHiJWJeTDSW4iNMQzEAZRKAwjDUYymmQGJeZsMoZClOwyBs/0I2DANMkmUpUgBmlmbCkGMrboIjAAMWZANBUiIS2KVpzua8KONeSsM0oKMvfEIneIIUlCIRHABtDie8CIAQmOIS+MJMTkMVNEI2+AJDUqIlEid1jotmTmJLZoNN6sJLtqIFVCd4YgsEmCITQEI0QII0wCUTDMMVmGIEhCd8UosAtOIguGYSXEE2bEIrFgFOxqd/IotamiInZIMVJMEjwGUpCsFh/ieD/kqAmuItQKYpnkCDViiwzGctMgExoGMpnqSFfuitoOYyuiF/gqiJ8optjmgSDMGCnqiLyspxjuhVviiNyooA8CIxkmaN7mimJEAv1iWPBimmiOgkGqaQHoGppZhAZSIpk1ZKEEyijjaplPLJkyZBEcjmlGZpniyhlnapl34pmIapmI4pmZapmZ4pmqapmq4pm7apm74pnMapnM4pndapnd4pnuapnu4pn/apn/4poAaqoA4qoRaqoR4qoiaqoi4qozaqoz4qpEaqpE4qpVaqpV4qpmaqpv5FQAAAIfkEAA8AAAAsDQI/AW0AIgCHIFCAKVaEK1iGLluIMl2JKWSWLWqcNWCLOmSOPmaQP2iRMXGkM3aoNXqtN36xQ2uTSG+VTHGYUHWaVXmdWXueXH2gOIG1P4/DX4GiZISlaIinbIqpcI6rdJGuepWxf5m0RZzSSqXb2Skv2Ssx2jA22jQ62zg+2z1D3UFG3URK3UlO3kxR3lFW31NY31hd4Flf4F1i4GFl4WRp4Wht4m1y43J35Hl+5H6Cgpu1iJ+4i6K6kKa8k6m/lqvAmK3CnbDEobPGo7TIprjJq7vLtMPRucbTvcrW5YKH5oeL5oiM542R6I6S55GV55SY6JSY6Jqd6Z2g6aGk66qs66+x67K07Le57bq97b7AwMzXws3ZxdDaytTd09PTztfgz9jg1Nvi2N7l2+Hm3eLo7sLE7sbI7sjJ79HS8NPU8dvc4eXq5ejs6evu7O7w7vDx8uPj8+fo8+vs9O/w9PT0AAAAAAAAAAAAAAAAAAAAAAAAAAAAAAAAAAAAAAAAAAAAAAAAAAAAAAAAAAAAAAAAAAAAAAAAAAAAAAAAAAAAAAAAAAAAAAAAAAAAAAAAAAAAAAAAAAAAAAAAAAAAAAAAAAAAAAAAAAAAAAAAAAAAAAAAAAAAAAAAAAAAAAAAAAAAAAAAAAAAAAAAAAAAAAAAAAAAAAAAAAAAAAAAAAAAAAAAAAAAAAAAAAAAAAAAAAAAAAAAAAAAAAAAAAAAAAAAAAAAAAAAAAAAAAAAAAAAAAAAAAAAAAAAAAAAAAAAAAAAAAAAAAAAAAAAAAAAAAAAAAAAAAAAAAAAAAAAAAAAAAAAAAAAAAAAAAAAAAAAAAAAAAAAAAAAAAAAAAAAAAAAAAAAAAAAAAAAAAAAAAAAAAAAAAAAAAAAAAAAAAAAAAAAAAAAAAAAAAAAAAAAAAAAAAAAAAAAAAAAAAAAAAAAAAAAAAAAAAAAAAAAAAAAAAAAAAAAAAAAAAAAAAAAAAAAAAAAAAAAAAAAAAAAAAAAAAAAAAAAAAAAAAAAAAAAAAAAAAAAAAAACP8AAQgcSLAggQcSJEA4ULChw4cQI0qUSABCwgcEHloIwbGjRAEZfnRRs2YNmzVqvgzZwHCiy5cwCRLYEOQLSTYn03wBkiHjwAsdPT4koAOMnKNIkx5N4+NBzKdQCSLgIUapVTlhdCAQCCIox4ccjF4dm0ZHgKhoXeJIM3asGA8AChgwsIBBAwcNBwy5CudMGTJm3lw1kiCt4YYHiPA9Q4bMGThXifiEeACLUjdRZJwowbnEiRdOzij9AuGw6QdblKJ5AmNz5xMxoKBRumXrUMtI3Sg5MUKE79++R5iwMRvpF6em0SJInfuIid7Af484kcRN0i0tGwpJWoYF9OjgU1D/SapFQHKoAooktZLiO3jpK8YkJeKQw/oT7/OLKAElqY/zT+WQlBQl6PeeCeMhhUNBB4SBVBkmGJhfCVIgtUYEyQVQmksPrIGUFQVKCF4JViCVhm0C4ZDbCiLmd4JoRw1x3hBDYCjRD0ihgUKL76Vg3VE9DCTAF0gp4R6Pv81gIXKHTSDHGjVCRIAaSNmAJHgj3GDiAAI5eZQb+F0ZXQllIPXBeYo9GWVD9h11Rohi/mZCcXJsINAOSEkRJ3hHIFXEeV4eBaWNA213FBN7AjfCE0j9IFCactSQKHArmAggpIKuGQBzcMAw6W8xILUFAEMeBUcLn/pWwo9s4NDBq7DG/yrrrLICcdWgA1ApBxxhfnqCpVwgBceOqZYAY1vIJtuWh18eueeqR6kxQLCm9jqpscpmq61VbjgbJ7RyqEFAqbuyWCyd26Z71RdtHPUGnJOaAFm4ZxmBlAypivDrUWwA4e+/AAcssMD2XrUFS0TuimqqLRgnEI5HNZEvDaICGIRVB5sHAKQ35IsEUjICsAFSZ3iL5AgJysHDeQ+wcd0GGqeI1Bgm80iCfEfBBcCUSNHw6QrzsjHBeRcflXFDDwjr6aShCqrAQLa6Ce+VKFecXMtyHP2QekfRnGgJZCBF30AQuHxUFDXrl2VSdiYHhNYQVZCUEnuO4ARSQhfUw9xpY/9Jw7xyGHEeSDFLtJepVlKtJVJCFBSBisI+MbXaNwCeBpMAupSAg6Ym0bd0SsRhHIpeJMXWzC6IqMIUSbGhQeZPVcDsUVWYayALJSKlxtADJQUEBbqaSoUMk5MAQxQ/8tsB7FBpMLscb0gBAwkjyiAF4E9mUFBSW0mQcFJuXBHFEko8UQUa2If7OvNQZXC6sGhYAQX5UFjhRvphUNAQ4wMhcHi6WNgQ+6DyAK6liwiF2d9RMAeADGRBW1/oQOEG+BQBbIA5ytqC9h4SI4cEYAJA+J5SwjCEDEyQglERAAaEwDmrgCEIFTghQRYYkQE8IAM40IEOcLABCEwGheexoQYKcrjDDDxAhg0JCAAh+QQADwAAACwNAj8BbQAiAIcgUIAoVoQtWoYvW4gyXYkpZJYtapw2YYw6ZI09ZpA/aJExcaQzdqg1eq03frFEbJNJbpZKcJZNcphTd5xWeZ1Ze55cfqA4gbU/j8NegKJjg6Roh6doh6hoiKdtjKpyj6x0kK14lK93k7B4lLB9mLNFnNJKpdvZKS/ZKzHZMDbaNDrbOD7bPELcQUbcQ0jdSE7eTVLeUVbfU1nfWl/gV13gWl/hXGHhYWbhaG3ibXLjcXXjeHzlfYKDnbaKorqRprySqL6YrcGessWhtMaktsimuMiouMqxwM+1w9G5xtS9ydXlgIXmhYnmiIznjZHoj5PnkZTok5folpnomZzpnaHqoqTqpajqqqzrrrDrsrTstrntur3CzdnH0dvL1N3T09PO1uDP2ODT2uLY3uXb4Obe4+jvw8Xuxsjvyszwy83wz9Hw1NXw1tjx2tvy3+Dh5url6Ozq7O7s7vDu8PHy4+P05+jz6+z09PQAAAAAAAAAAAAAAAAAAAAAAAAAAAAAAAAAAAAAAAAAAAAAAAAAAAAAAAAAAAAAAAAAAAAAAAAAAAAAAAAAAAAAAAAAAAAAAAAAAAAAAAAAAAAAAAAAAAAAAAAAAAAAAAAAAAAAAAAAAAAAAAAAAAAAAAAAAAAAAAAAAAAAAAAAAAAAAAAAAAAAAAAAAAAAAAAAAAAAAAAAAAAAAAAAAAAAAAAAAAAAAAAAAAAAAAAAAAAAAAAAAAAAAAAAAAAAAAAAAAAAAAAAAAAAAAAAAAAAAAAAAAAAAAAAAAAAAAAAAAAAAAAAAAAAAAAAAAAAAAAAAAAAAAAAAAAAAAAAAAAAAAAAAAAAAAAAAAAAAAAAAAAAAAAAAAAAAAAAAAAAAAAAAAAAAAAAAAAAAAAAAAAAAAAAAAAAAAAAAAAAAAAAAAAAAAAAAAAAAAAAAAAAAAAAAAAAAAAAAAAAAAAAAAAAAAAAAAAAAAAAAAAAAAAAAAAAAAAAAAAAAAAAAAAAAAAAAAAAAAAAAAAAAAAAAAAAAAAAAAAAAAAI/wABCBxIsCCBBxIkPCBQsKHDhxAjSpR4MOHChxdMaNwoUUCGIF7KwIkTB04ZMEM0MJzIsqVLggQ0CPHyZmTJMl6CaBBAEMNGjg8J9BAz547Ro0jvkAGC4KXTpwQR+BiTtOocMT0OCCzxU+NDD2Kqij1apkcAqGhZkiAzdqyYDwAKGDCwgEEDBw0JECma1A4bNGjW2BGLpGnawwURIBFrZw1gwVaNrIR4QElSOlZwuGChQsWKFjeotEnq5QHi0w+8JG1D5UaLFZ1ZuMBRhU5SLoYdErB8lA4UFyhOCB8uHAULJqOPiklwOm0C1UfdMGERnPhwFC2c2D7KZXJBIkjRyP+obt06ihdbkCrh2dypgCRIt8AgX/66jDNIjTj8EJ9F/f8nqGAFUj6055QPSF2hAoD1saAFUiEUdABbRp3hH4P1qZDFUXBA0FwAprH0ABxHabEghuWxYMZRZOQGAIJG0QEDiv+1sMZRRHxoxBAhRiTEUW20QGN9MGx3R4ECCRCWUU7QN+RwOnDoYloW3AEHjxAhQKJROzxZHgpNsMhelTFe6CVxKqRx1Agf8nZljwTxZ9QaJ545HAvJ3aGBQEAcZYWd5YVp1BHtkWnUmwUZcdQTgBKHQhVHBSEQfEbp0ChxMRw1RnsB8MYhlgAIAIZRdthw6XA4cBfqknbEcKpwLGz/F8cIHtRq66245ooreFW9ScCWdJh5qQtkAfBFb0K+qsKNbTXrbLNx9OYkoCwMdscbAhxb5qsBMvvst+AiRce0dsZq1BsEDEDVHXa8wO0KeYYrr1hExVjnpdWeG0AAXJB6A7fEGiWHEQQXbPDBCCPcr1hefIAAqzO+SoNyAg1xlBPcRmkUFwbyilTD7FF6R5evCnqHfgDIeYca5D6JwoZG/dDeA9EeBTJBMN6xRctDqoCfUSIIhEDNduBwagzWxjFBex7fXFAER9khw6k3cKjAQIoalca9Xr58VBczR+t0Q50etXOjPh9F6EAS8HXHFDwDiAIPSHnQ3hBjP6QBUkwA/4pCFEfJQUFBP5LKRNxf5mDtHUq0J8AG7EkUwGKkWto1D4sXUZAEObMLRQpDzr14GR4a6NIDZUS9BOLDpeDE4mLkFgZSWxq1hasYvnAFUnHYbfpLGtTMLhbuMohCDA9yWAFBSKVU+x11XHED1yekUAMVRt4hR9C/OwWCHOJWMQPo1qlwwxXZw7En80c1VQGFUbehxRRNMCFFFm0sfqjv3TvVwRt9aUMWpMCEJkhBC/lLChks0JCjaE4gDzjCvO7ABQn0Dy0Q8FS4kACngRwFTgHgQBfAJYYRRO6CTxEACJb0LC944CwOMQrKCuKRIqyrKmUwgge8g0K0xMQI8EvKGCiMsJOIGKWDBomAB3oABCD4wAMS4GEPT0MACXjAB0D4QQ88EAEpOiQgACH5BAAPAAAALA0CPwFtACIAhyBQgChWhCtYhi5biDFdiSlkli1qnDZgizljjT9nkT9okDFxpDN2qDV6rTd+sUJqkkhvlkpwlk1zmVF1mlR4nVh8n1x9oDiBtT+Pw1+AomODpWeIp2qIp2mIqHGOrHWRrneTsHqVsX6Ys0Wc0kql29kpL9krMdowNtozOds4Ptw9Q9xARd1ESt1ITt5NU95RVt9UWd9ZXuBWXOBaX+BdYeFjZ+JlaeJobeJsceJwdeR1euR4feR9gYOctYefuIujupGmvZGovpeswJitwZ+xxaG0xqS2yKa4ya28zLC/zrXD0bnG07zJ1eWBheaJjeaNkeiOk+eSleeVmOiSleiYm+qjpuqmqOqrreyvseuzte23uOy5u+2+wMDM18LO2cbR28zV3dTU1M/X4M/Y4NPb4tje5drg5t7k6O7Dxu/GyO7Jyu/O0PDMzfDP0PDT1PHX2PHb3PLf4OHl6eXp7Ors7uzu8O/w8fLj5PLn6PPr6/T09AAAAAAAAAAAAAAAAAAAAAAAAAAAAAAAAAAAAAAAAAAAAAAAAAAAAAAAAAAAAAAAAAAAAAAAAAAAAAAAAAAAAAAAAAAAAAAAAAAAAAAAAAAAAAAAAAAAAAAAAAAAAAAAAAAAAAAAAAAAAAAAAAAAAAAAAAAAAAAAAAAAAAAAAAAAAAAAAAAAAAAAAAAAAAAAAAAAAAAAAAAAAAAAAAAAAAAAAAAAAAAAAAAAAAAAAAAAAAAAAAAAAAAAAAAAAAAAAAAAAAAAAAAAAAAAAAAAAAAAAAAAAAAAAAAAAAAAAAAAAAAAAAAAAAAAAAAAAAAAAAAAAAAAAAAAAAAAAAAAAAAAAAAAAAAAAAAAAAAAAAAAAAAAAAAAAAAAAAAAAAAAAAAAAAAAAAAAAAAAAAAAAAAAAAAAAAAAAAAAAAAAAAAAAAAAAAAAAAAAAAAAAAAAAAAAAAAAAAAAAAAAAAAAAAAAAAAAAAAAAAAAAAAAAAAAAAAAAAAAAAAAAAAAAAAAAAAAAAAAAAAAAAAAAAAAAAj/AAEIHEiw4IAHECA8IFCwocOHECNKlEgAocIBDy+Q2MhRogALQbyYkTNnjhwzX4ZoYDixpcuXBAloGAJmZMmTXoBUEEAQA8eODwn0EFNHj9GjSO2Q+YEAptOnBBH8IGMHqVU9dcCEYDni58aHHchcHXu0DAioaFsGCFGGLFkyHQAUMGBgAYMGDhoSKFLVah44bdbAyTMWyYG0iBsiSDI2jxs1gglbrUOEZ0QETKzeuYKjhYoUKVS0uFEFjtUvChKrfgDGKpwqN1h8Dt0ix5U7VpUcDpr56B0pLEyUGE58uAkWT3AfBdNUNdoErX07WSG8OPHjVPAgXcKyYAAjSNXA/6hu3boJF1yQKrHsHKaAJUi5uCBf/voMNkiNOPyAdIuK+gCWoMIVSPnQnlM/IHVFCgHWt0J6RtnhQUEItGVUGv81WF8KWxwlxwPOBQBiSw/McZQWKGjooBpHkbGbQAkadccLKgLIgmlGEeGcAEgMMWJERRwFBws11geDcnr0MBABYhn1BH1FGreDh80lpoEecvgIEQImGrVDlOWZ8ESLllkgZIZgFpeCG0dNqJoAXhiV5Y8E8WeUGymmWRwLytVhgUBCHFWFnuZFcRQS7V3poZYEIXHUE4QWZ4IVRwEBQAC96YFDpMXF0GJ7cFo1p0ADiGFUHjNwSlwORzEBAJOnuv+g6nAqKDfHBx3kquuuvPbKa5BXzXlAl3egyakLZQEQhm8rzFpCCm+4Je2009IhJJSEriDZGQIsK6Oxka5J7bjkXgUHtnrWatQZBBBghoxEzqoCjuXWS5aFesSRp6osSGZGAAJ8cSoNzrZwFB1IJKzwwgw33LDAY4HxwQPv6nGHrLPSsJxAjhrlhLM6HNXFgeBZJTFDmB6Vg7NjGnWEQCEcpQa6UZqQxVE/tBeBtct90B0AQRyVBc1FosCiUR8I9ADPedSgKgyS0TFBeyXrcXJDE/hGI6c2HDVHagIxZhQa+6Z5ws1GeaGztVc7FKpRQ0eKQhqHEkRBX3pEQXSAJjT/cZQdHFDdNkQdHJUHD4SaYKhRdFBQ0BGG87B3mDhIpscS7Q3Qwc8QvefbpmCawIPl+hEkQYynOnFCkSbsoN26ERwIUwRy+LbD5MSd4ITlZFQ5BlJdwo1xgyxcYTkdcckOUwdFnWpFvHy7gLacfw6EVBEd8CxjFTGUPdwJMlBBL1YhKP9UCM0bBQcV45WHAg1VIKnHHBoUhFRTGlRsuBtYTNFEE0+4ghssJ6fkmc8pHgjeqdxwBSj8LwpZGKBVzJCBhhzlZUqDj728IIEDomUCcbKXEuhkPaPQSQAeiA61yBACjHgQLQQQQZOoBYYOsMd+ekCUXjaABP1Z5QxK2NwLMVVzAA8o4QxkMQMSNODCh5gwIgeYwAd+MIQh/OADFKjSENuDAApMsYo/8MAEXhSRgAAAIfkEAA8AAAAsDQI/AW0AIgCHIFCAKFaELFmGLluIMl2JKWSWLWqcNWCLO2SOPmeQP2iQMXGkM3aoNXqtN36xQ2uTSG+WSnCVTXKYUXabVXmcWHyfW32gOIG1P4/DX4CiYIKjaIinbIqpcY6sdJCteJSvepWxfpmzRZzSSqXb2Skv2Ssx2TA22jQ62zg+2zxC3EFG3ERK3UlO3k1S3lBV31Ra4Fle4F1i4GFn4WVp4mtu4mxw43F143V55Hl95H2BhZ63iJ+5jKO7k6m+larAmKzBnrLFobPFpLXIprjJrb3NsL/OscDPtcTSuMbTvcnW5YCF5omN542R55OX6JGU6JWZ6Jmc6aGk6qap6qut7K2w7LK17ba47bu+7b7BwczXwczYxtDay9Td1NTU0Njfz9jg0trh2N7l2+Hm3eLo7sTF7sbI78rL8M3O8M/Q8NPU8dfY8dvc8t/g5+fn4ubq5Ojs6ezu7O7w7vDx8uLj8+fo8+rr9O/w9PT0AAAAAAAAAAAAAAAAAAAAAAAAAAAAAAAAAAAAAAAAAAAAAAAAAAAAAAAAAAAAAAAAAAAAAAAAAAAAAAAAAAAAAAAAAAAAAAAAAAAAAAAAAAAAAAAAAAAAAAAAAAAAAAAAAAAAAAAAAAAAAAAAAAAAAAAAAAAAAAAAAAAAAAAAAAAAAAAAAAAAAAAAAAAAAAAAAAAAAAAAAAAAAAAAAAAAAAAAAAAAAAAAAAAAAAAAAAAAAAAAAAAAAAAAAAAAAAAAAAAAAAAAAAAAAAAAAAAAAAAAAAAAAAAAAAAAAAAAAAAAAAAAAAAAAAAAAAAAAAAAAAAAAAAAAAAAAAAAAAAAAAAAAAAAAAAAAAAAAAAAAAAAAAAAAAAAAAAAAAAAAAAAAAAAAAAAAAAAAAAAAAAAAAAAAAAAAAAAAAAAAAAAAAAAAAAAAAAAAAAAAAAAAAAAAAAAAAAAAAAAAAAAAAAAAAAAAAAAAAAAAAAAAAAAAAAAAAAAAAAAAAAAAAAAAAAAAAAAAAAAAAAAAAAAAAAAAAAAAAAAAAAACP8AAQgcSLDggAQPHiQgULChw4cQI0qUSEBBQgQCHl4YwbGjRAEUeCQBM8bNmzFgkvCoMGCiy5cwCxKw0EMLGDc4USLhMSEAQQwdPT4kAIJLnDtIkyqNwyXEgZhQoxJEoAOMHKVY78DZ4oEhABFBOT7kwCWr2aRgOEhd6zIACDBnz3LRAKCAAQMLGDRw0JAAkKNY66xJk2ZNnaxyhHhly3gqEbOCCRvOCsdHxogIkGCdQ+VGixUpUqhoYWPKHKxJEDRe/WAL1jVSarRQEVqFCxxVTislsriv5qRzoLAoQaK48eIlWDzRjTTL09VrFZQFzmQF8ePGS7SIcjhpkcsFAwj/UWoGxnXs2Eu8ILPbJ3SoAn4jxeLiPPrsMtIo/eHQg9IrKtwnIAkqVKFUCO9BxYNSU6Qw4H0rsIdUHBsUhEAYSZHh4IP3pYBFUmI8AF0AqrkEwRtJWXEChxCikdQXvS2I1BwusChgC2sk5QN0AhDBQwITBZFUGivYeF8M3d2BoEAEwIXUEvYZiZwSID7XGAd3iPEjRAmgeIcdN0iJXglPJMWFexoktcaGYh6Xgn5IqbXaANNpCWRDICR1xoptHreCbnFQINAPSUXRZ3pQJBXEe1iCuCVBjz156HElUJEUDwAEkERSNEx6XAxmvkcnVnYy6WQdMHhq3A1JHQFAkzO2/6BqcSt05wYHGuSq66689srreFnZiYCXa85KggtoAdBFUmyw6WkKOcYl7bTStpGUGlEeWitSYgiwLFLFzvomteSWm1Ua2fa5Ah3cDnCAGDMWKS4b5tYrLbzg8qnqtneEEcCod6BqbAtJwXHEwQgnrPDCC0+XFRggRDDGjCwYCypSWwhURFJKGItDUkkkOMTDIDAkgBZJ1WCsE0kJIVAIGaYrZQlWXPqeBHAoBXFvhCI1hcxGnmBGUh0I9ABgdcSg6gvdwTHBeyMjtXNDFQAnq6czJOXGnQEckdQVJkxqgoFIaXFzzl6U/BDAd/w8KQplJEUEQRkoBWWfJVCJlBwVQv8nRNq99ZdUHWHi3UTBgg4UQKQB3wD0fSXUkOQR7jVGAAeBP3QycDO0WUIOSbpMkAQ9KEVHDo9TigNzY0SQYEwUeHnHHDakbpwJSyQJRokAfKFUzkjVMUXFHK7AXcFyvg7TB1cFD0WAD2pHNlJuVECQUkF0ADy4ULwQNnYmvPBEtBOCoHxUOjQPLhMtZHsCDFEwd8cbfQ+klGocuBHYGVIsgQMOS5DCGdilFDcU7XxRAcH2ZmSG/uEgB0yYQhqSxC26FCQpQxiIBFBmry08DYFSsYDDzIUECDgkKSIayADeUi4whCBzIITJAXaAIXJxwQPgueAd5taQA3TgCBMzixs4juABK8WQLQgAQRL0ZxYxGAFzEUFKCh+CgAqAoAdBCIIPQGAB3h1xRAmwQAh+kMUegIACXoRIQAAAIfkEAA8AAAAsDQI/AW0AIgCHIFCAKFaEK1mGL1uIMl2JKWSWLWqcNWCLOWONPWaQP2iRMXGkM3aoNXqtN36xQWmSSXCWTHKYUXWaVnqdWX2gOIG1P4/DY4SkbIupdJGtdpKwepWxfpmzRZzSSqXb2Skv2Swy2TA22jM52zk/2z1D3EBG3ERK3UhO3kxS3lBV31RZ31hd4FVb4F1i4WJn4WVq4mlt4mxx43N343V55Hl95HyAhJ22h5+4h6C4jKO7kKe9kai9lavAm67DnbHEorTHpLbIprjJqbrLsMDPtcPRuMXTvMnV5YGF5oaK5oqO55CV6JOW6Zye6Z2g6aGk6qao6qut66yw7LS27ba47bq9ws3ZxtHby9Td1dXVz9fgz9jg1Nvi2d/l2+Hm3uPo7sPE7sbI78vM8MrM8NTV8dbY8dvc8d/g5+fn4eXp5ejs6evu7O7w7/Dx8uLj8+fo8+vr9PT0AAAAAAAAAAAAAAAAAAAAAAAAAAAAAAAAAAAAAAAAAAAAAAAAAAAAAAAAAAAAAAAAAAAAAAAAAAAAAAAAAAAAAAAAAAAAAAAAAAAAAAAAAAAAAAAAAAAAAAAAAAAAAAAAAAAAAAAAAAAAAAAAAAAAAAAAAAAAAAAAAAAAAAAAAAAAAAAAAAAAAAAAAAAAAAAAAAAAAAAAAAAAAAAAAAAAAAAAAAAAAAAAAAAAAAAAAAAAAAAAAAAAAAAAAAAAAAAAAAAAAAAAAAAAAAAAAAAAAAAAAAAAAAAAAAAAAAAAAAAAAAAAAAAAAAAAAAAAAAAAAAAAAAAAAAAAAAAAAAAAAAAAAAAAAAAAAAAAAAAAAAAAAAAAAAAAAAAAAAAAAAAAAAAAAAAAAAAAAAAAAAAAAAAAAAAAAAAAAAAAAAAAAAAAAAAAAAAAAAAAAAAAAAAAAAAAAAAAAAAAAAAAAAAAAAAAAAAAAAAAAAAAAAAAAAAAAAAAAAAAAAAAAAAAAAAAAAAAAAAAAAAAAAAAAAAAAAAAAAAAAAAAAAAAAAAAAAAAAAAAAAAAAAAAAAAACP8AAQgcSLCgAAQPHiAQULChw4cQI0qUOAChQoYOK3jYyFGiAAk2iGTpggZNFy1EcEjAOLGly5cDB0zIYWQLSTRcrhCxESEAQQscOz4koMHKGjhIkypVYyUDAZhQoxJEYOPKUaVY1RjBgLFD0I0PL1zBShbrlQtS07YMkGFL2bdwqlAAUMCAgQUMGjhoSMDHVaVvyowZU+YN2TU9Bqhd3BCBkLKBx5BpYxhrmhw+IyIggrWNFBoqTJAgYUIFDSltsBJBwLj1gypYzUSRkUI0aRVHqLjBCkTx0CJK2zRBAeKD8ePGQaBokjppkaet0yawElyJieLIj4NQAaUyUiEsCQb/AKI0TAvs2bODaBFGKZDoUgdwTvpFBfr02mGMUarDYQalVJiA34AfmEBFUmxkAB9UOSgFBQkE4odCe0ipgRZBCXBBXwkRDlgCGEltkUB0B7kEQRpJTSFChxLuh9QV0AnUIFJtqMDigCo0B0cO0REghA2sSfRDUmMIeGN6LninwUAHuIVUEvcdmVwSIca42H9bAAnRAyjC8cYMUqYHQhNJWZHZBUmVAWGY2ZVQRlIXMkbAWHBkGWRBGyQlxopsIodCc2pIIJAPSTXRp3pOJNUDfP+FqCVB88GBxKHIgSBFUjYAIABsSL1AKXIvlAnfnFjZKRABTr7BwqfH1ZDUEAA0/0kjCqwad0JlXlxAwa689urrr76SR5adCXSpZq0fsJDUFQBgkeaarJLwJlzUVkvtGURGeeitSG0hgLNIHVurtNaWay5ZY2jbpwmVeYuAF+EayaoJOp5rb1nwIjUGn6yi0G4ABGSBlKrIppCUVkYkrPDCDDfMsJPDciBBvm3I+2moSFUhUKQ0IOsqUkUs+FipHBygKZ1weFrrEkn5INANSVGhrpQgHIhUptFJoIZSW5RMEKFIOTHzkSKIkRQGAkVw1RsrsKpCZWpEAN/IdfpcEJo0WtwnDEl5MaKmRiQlRQiUinApUkbAp3PVJjtEatBDdzgCiN8RhLWXR8Q9IAhHJP+1RpyMBdFz2xDlOXAMh4LAcoWCDiRApG3EoLd6MXhHRGaMHZAB4RG9DUcZLbAJQg3e/VBQBDwEN8Pkyc2gYxcQLAgTBTuHCwPrH4SAhHdb3KmFUn+94YTW+JnghHdqIC07TDawkZQbS0C7NwpRKIXGXAO5x8FfnytBXHohpLDEtEitscHyUc1IJBLfZyeCCkzUm4by2SfFWgZdJtUGGE4cMcMMR3ACGOoFBzQoCH1RsUHt9PeFJvhvBkh4ghi8g5QuAE4gSQnCQCZAnXtZYQIITMsFIHYuI8SuIUl5AEEIYAMSUitLVgohVBCwgy6YKwsbCA9B6taYDRgBDW9BgxE4NnAnGapFATaoQv6w4gUiYCCGBUGKCrd0ARv0IAhC6IENLjBFI8InAA+oog+EEIQecIACX5NIQAAAIfkEAA8AAAAsDQI/AW0AIgCHIFCAKFaEK1iGLlqIMl2JKWSWLWqcNmCLOGKNPWaQP2iRMXGkM3aoNXqtN36xQ2uTSnCXTHKYUnabU3icWXueXX6gOIG1P4/DXoChZIWlaIenbIuqco6tdpKufJayfpizRZzSSqXb2Skv2Swy2jA22jM52zg+2ztB3EBG3ERK3UhO3UtR31FW3lNY31le4FVa4Fhe4Fxh4GFl4WVq4mpv4m1y43J243R55Hh85H2Bg5y2hZ64iqK6k6m+ma3CnbHEobTGpLbIprjJq7vLsL/OssDPtcPRuMbTvMnV5YGF5YWI5omM5o2Q55GV6JOX6JaZ6Jqd6Z2h6aCj6qao6quu6q2w7LO17ba57bq87r3Aws3YxtHbytPd1tbWztfgz9jg0tri2N7l2+Hm3eLo7sLE7sbI7svN8MzN8NLU8dbY8drb8t/g5ubm4eXq5ens6evu7O7w7vDx8uPj8+fo8+vr9PT0AAAAAAAAAAAAAAAAAAAAAAAAAAAAAAAAAAAAAAAAAAAAAAAAAAAAAAAAAAAAAAAAAAAAAAAAAAAAAAAAAAAAAAAAAAAAAAAAAAAAAAAAAAAAAAAAAAAAAAAAAAAAAAAAAAAAAAAAAAAAAAAAAAAAAAAAAAAAAAAAAAAAAAAAAAAAAAAAAAAAAAAAAAAAAAAAAAAAAAAAAAAAAAAAAAAAAAAAAAAAAAAAAAAAAAAAAAAAAAAAAAAAAAAAAAAAAAAAAAAAAAAAAAAAAAAAAAAAAAAAAAAAAAAAAAAAAAAAAAAAAAAAAAAAAAAAAAAAAAAAAAAAAAAAAAAAAAAAAAAAAAAAAAAAAAAAAAAAAAAAAAAAAAAAAAAAAAAAAAAAAAAAAAAAAAAAAAAAAAAAAAAAAAAAAAAAAAAAAAAAAAAAAAAAAAAAAAAAAAAAAAAAAAAAAAAAAAAAAAAAAAAAAAAAAAAAAAAAAAAAAAAAAAAAAAAAAAAAAAAAAAAAAAAAAAAAAAAAAAAAAAAAAAAAAAAAAAAAAAAAAAAAAAAAAAAACP8AAQgcSLCgAAQIEiAQULChw4cQI0qUOCBhggMMHVoIwbGjRAERdBThEkbMGDBciHyIkHGiy5cwBw6QwMMIyTEntwzx8KDghY4eHxLgoAVOnaNIk75BsmFAzKdQCR74wMVo0qtujGTICAIox4cZuFwde1ULhqhoXQbgAIas2zpHJAAoYMDAAgYNHDQk4MNqUjpy1KiRQ2fsmx4t0yoeiEBInLF01giWQ7aNjgASERi5KgdLDhgqUKBQASMJFspJhxBYzPqBFs5WcLxIIXpFjCVkCif9kbgggSNJ50hhMUKE8ePGR7SYovsokdWs0SrYklTOExXFkR8nEcNK8zo/MDf/DBAk6ZkY2bVrHzEDze7oUQlsRkqmRXr1222oScrDYYekWaSA34AiqEAGUnBsAN9TPCRVxQkE4veCe0e9QUFBCYRBHwoRDpjCGUiBgUB0AkA3EQRuIHVFCR3ix8J+R2mRWINHrdFCiwPCgFodOkRHwE4HTFTeUWgIiKN6NDSnoEAHtHXUEvcdmVwTIZqo2Ad1gOFBkA89kGIddNwgpXojTIGUFgNlgFQaEI6pXQowxnEWa00eBcYHXBaE5VFmsOgmci3o9kYEAgGBFBR/rmfmUT3At6edeBY0Xx1KJIrcCFgg5QEAAlB31AyWIlfDmfDVmdSdXJpKx42hGpcEUkMA/4CAhnXIoUKrxq2gmxgVTODrr8AGK2ywQpCF6gNvHKVGm63GgNQWAHSB1LK4igDnW9hmi+0bbCBlRpSJ6mpnANISaUK1KMCo7brsJvVtteJmKUACbSjLIa4p7NjuvpUhhQYJ8OrmBQAEOCkHC9W2gNQbWjTs8MMQRxyxk2OBocME9dahhpGtzoAUEgIhgZSYuOaAlBELDlGxDiMOIBaYMlT7BFI/CERjHVaAOyYJmR7VY3QSJBsiywQNWUcUuJoA4lFLSvBYrQiH6oJubhAancp2El2QmspynCgNSI2RgEACvHZUFTrjWIIVH8MXdJZaN2RqHVCk3aIJZcBK0AZI0f+Bg90EjvDqUXBkAN8QFo8YkQ59g/rnCE4g5YZcMol8lBwzAE5mDTsaId5iCHSguEQHvKzxC26OkENzNRMUgQ/V1aD5cSPcsKMYECwYUwZC15GGDLMbR4ISzYExtkBfJOUXHU/cG2EKUTT3xpK6w3RzrUswO+AIK1CRVBsVEJRUEDr4VQcaS6wALvdMqFsHHJtWH1MAsJuXQwrglsDCE+67Qb1ASRnRB76EFDmQAQo5qEENcgAFMuirDm3ogPygEgAe9K5GWHgCDhSYBCmU4Tt1EIPhCoIUIQwEA6ZrFxcuNMGobIBi7UKC1Uh4lJ4M5AA8EAO7wsADK7XwKQnwQcZJtKWl3gzkKLFqSAJ0oAUCXqUNWvDA6H6YlgfwgAsX/B4SOpAnh9QQIgF4gAZ4AIQhDAEIPMiADakIHwFAYAM8CIIZf7ADNbokIAAh+QQADwAAACwNAj8BbQAiAIcgUIAoVoQrWIYtWogxXYkpZJYtapw2YIs5Y40/aJExcaQzdqg1eq03frFDa5NJcJZMcphSdptWeZ1ZfJ5cfaA4gbU/j8NlhaVoiKdsiqlwjat1ka13k7B5lLB9mLNFnNJKpdvZKS/ZKzLaMDbaNDrbOD3bO0HcQUbcREndSE7eTFLeUVbfVFnfWl/gV13gWV7gXGHhYGXhZWriaW3ibHHjcnbkdXnkeX3kfICDnbaHn7iMo7qRp72Tqb6VqsCZrMGessahtMaktsimuMmru8uxwM+0wtG5xdO7ydXlgobmh4vmiYznj5LokpXolpromZ3qo6bqpajrq63rrrDstrjtur3uvsHAzNfCzdjF0NrJ09zW1tbO1+DP2ODV3OLY3+Xb4Obd4ujuwsTux8juysvwzM3wz9Lw09Xx19jx3N3y3uDm5ubi5url6Ozq7O7s7vDu8PHy4uPz5+jz6+z09PQAAAAAAAAAAAAAAAAAAAAAAAAAAAAAAAAAAAAAAAAAAAAAAAAAAAAAAAAAAAAAAAAAAAAAAAAAAAAAAAAAAAAAAAAAAAAAAAAAAAAAAAAAAAAAAAAAAAAAAAAAAAAAAAAAAAAAAAAAAAAAAAAAAAAAAAAAAAAAAAAAAAAAAAAAAAAAAAAAAAAAAAAAAAAAAAAAAAAAAAAAAAAAAAAAAAAAAAAAAAAAAAAAAAAAAAAAAAAAAAAAAAAAAAAAAAAAAAAAAAAAAAAAAAAAAAAAAAAAAAAAAAAAAAAAAAAAAAAAAAAAAAAAAAAAAAAAAAAAAAAAAAAAAAAAAAAAAAAAAAAAAAAAAAAAAAAAAAAAAAAAAAAAAAAAAAAAAAAAAAAAAAAAAAAAAAAAAAAAAAAAAAAAAAAAAAAAAAAAAAAAAAAAAAAAAAAAAAAAAAAAAAAAAAAAAAAAAAAAAAAAAAAAAAAAAAAAAAAAAAAAAAAAAAAAAAAAAAAAAAAAAAAAAAAAAAAAAAAAAAAAAAAAAAAAAAAAAAAAAAAAAAAAAAAAAAAAAAAI/wABCBxIsKCAAwgQEBBQsKHDhxAjSpR4MCGBAA8rgNjIUWKABx6IZPECBowXLEQ4OJjIsqXLhgMg5CgyEsyXk0E0rCRogWPHhwQ0IHFDp6jRo22OXBjwsqlTggc6YHlztCodNkQoYATwwefGhxeyWB1rFImEp2hbZuBCdiycIhAAFDBgQMECBg0aEvBBteqcOGnSxJlj1c0OhmkTF0QgBI7Vv4HjjGXTYSICI1XjVEkCQwUKFCpiLBFD+KgQAopTO8CSmQqOF55By2BCpnRROD0QOySA2egcKCtEhBhOfLiIF1Ns0yGiO7XTBGKNxnmiQnhx4iNiVFHu42EAIUfLxP+wfv26CBpojvZw/pT3UTEsyJfHfkONUTgeHHY4agXF/P8hqECGUW5cwF5TOxw1hQkAzvfCGUa1EUFBCXxhlBgnNPifChAWpQVqqQkA4kQQtGEUFSVoOJ8LaZTVHA9GpcGCiv/FIIdR+aV2ABEbjAjREEad4R+N5dVQGhwYDISAhUUpIR+Rxj1hlBbNpZUDHVr0CJEDJtIxRw1QlifCFGUNlEGQDIZ5XQqS0fHGBM4h4IWHWjZ0ZVFjkKDmdS6U1sYDAoFX1BN7mieFUTuwdyedPgJwhFFJFFrcCGIYtQEAAmhhVAySFldDmXHOeVSWIB4gqhwrdErcEkYJAQACYBT/FUcKqg63QmleSADBrrz26uuvvgJpFakOEEXHGWmqGoNRWACwBZq1hoBCm21Vay1ZbqxhFBlPFnqrhwE8W9QZetaKQovXpqtuVWN0u6cKpXEhgANsFIVGsp2yue6+1dZbFBkjRMtCaVoAYKqsKghMoBYMN+zwwxBDHAZZXugwQZdpZFjrDGUGwFpRNESbhFFFHEiEVRUjAAABos4BQ7RSFvWDQD0YJYW7UI5QBY7sRWBsUSkTdHJRTtRaQhlGGQjABI7REUfCncLgJ6DODU1H0AWdaa/GktJgFBgqrxwdHVHgrCIJVICams9X6xB2Q3Ia1YTZGpowRqsEbeBbDXT//yfCyEW9oXRqRGANUYKycrqnCE1EOOFABHxMRxow9G0eDdQasZViCHTwdkRxj5tqmCLgYBsQBUEAxFFpzGC5cTVQCwbVB6rV17EtvB7CCEnY5sXbXRzVtJdM4PvfCU/Y5kYGtTcFo3RJpNigCCkcahQbFBBk2g7D02FGEih0S/0SHQaeY/MuCRBEVWXccEK3I6jQBLpFtcG89kapnMPPslbRhA0ymMENnGAFatXvUuhrigD4UpU0UIEJNQjgDZ5AmqqEYXADMcoQBnIBUe1LC3BK4FM2ECt+XSEuDTHKTgSCAB/461pg2MEBRJgWBwThhdbyggeY4pCiEMEhDtiBFkC6ZJU2ZCEHn6MhWh7QAy7w7yhsQEIHZgiRoqywIQJ4QAZ6QAQjGIEIO8iAAzanxBBBYAM+6KIRhrCDC1wRIgEBACH5BAAPAAAALA0CPwFtACIAhyBQgChWhCtYhi5biDFdiSlkli1qnDZgjDpkjj1mkD5okTFxpDN2qDV6rTd+sUZtlElvlkpwlk5zmFF0mlR4nFx9n11+oTiBtT+Pw1+AomGCo2mHp2yLqXCNq3WRrnmVsH6Ys0Wc0kql29kpL9krMdkwNtozOds4Pts8QtxBRt1FS91ITt5MUt5RVt5TWd9ZXuBXXOBaX+BdYuBhZeFkaeFpbeJtcuNxdeN1euV5fuR8gYOctoujupCmvZOovpWqwJmtwp2wxKG0xqO2yKa4yau7y7K/0LHAz7bE0rjG07zI1eWAheaFieeJjeeOkueQk+iSleiWmeibnumfouqmqeyytey2ue27ve2+wMDM18LN2MXQ2srU3dfX187X4M/Y4NPb4tjf5drg5t3i6O7CxO7GyO/IyvDNzvDO0PDS1PHX2PHb3PLf4OXl5eLm6uXo7Ors7uzu8O7w8fLj4/Pn6PPs7PTv8PT09AAAAAAAAAAAAAAAAAAAAAAAAAAAAAAAAAAAAAAAAAAAAAAAAAAAAAAAAAAAAAAAAAAAAAAAAAAAAAAAAAAAAAAAAAAAAAAAAAAAAAAAAAAAAAAAAAAAAAAAAAAAAAAAAAAAAAAAAAAAAAAAAAAAAAAAAAAAAAAAAAAAAAAAAAAAAAAAAAAAAAAAAAAAAAAAAAAAAAAAAAAAAAAAAAAAAAAAAAAAAAAAAAAAAAAAAAAAAAAAAAAAAAAAAAAAAAAAAAAAAAAAAAAAAAAAAAAAAAAAAAAAAAAAAAAAAAAAAAAAAAAAAAAAAAAAAAAAAAAAAAAAAAAAAAAAAAAAAAAAAAAAAAAAAAAAAAAAAAAAAAAAAAAAAAAAAAAAAAAAAAAAAAAAAAAAAAAAAAAAAAAAAAAAAAAAAAAAAAAAAAAAAAAAAAAAAAAAAAAAAAAAAAAAAAAAAAAAAAAAAAAAAAAAAAAAAAAAAAAAAAAAAAAAAAAAAAAAAAAAAAAAAAAAAAAAAAAAAAAAAAAAAAAAAAAAAAAAAAAAAAAAAAj/AAEIHEiwYAACBw4QCFCwocOHECNKlCgAoUKGDi+I2MhRYoAHH4poARMGDBgtQjo8mMiypcuGAiKAKLKFJBguSoJwSFAQA8eODwdwUALnjtGjSN8cySDgpdOnBAl40BIHqdU7bopQGBji58aHGbRcHXsUyQSoaFty4EJ2bJwiKwsYMLCAQQMHDQn4qGq1zpy/c8a+2YExrWGCB4TIueoX8NgxHiYeMGKVDhkmM1ioUNGChpMydawGGXC49IMsVudcWSJDM+caUc6EPhqHR+G8SJDWoeKCxIjfwH+XkFFltlEhTUujTbAF6RwpLHwHB26CBhbjd3o8DDAEaRoa0qdP/ydxYw1SHsqhEsh9lMyL8OKpLwlsVM4Hhx+QYlERv/8IF2gcBYcG6TnFA1JVoOBffDKYZ5QbEhT0gBhHlZHCgv2xkMZRXBCgXADJTSTBG0dZcQKGDNJ3BxK3+XDUGi6g2B8NxkVWGgJFcECaREUclQZ/MoqHw2xyECgQAhQaxQR8Qf5GwhQchmjYgVvoCNEDJN5Rxw1NildCFWUNxIGPCnY5HQv0xbFVaQmEYVSVOxa0Q3smmDmdDLO5sRIARBwVhZ3jgWkUesodeBScBSlxlA6ABlcCGUd1AIAAbBklQ6PB4RCmcm1ahSgACLh5Bx0sYAqcE0cFAWqSawBpqguzgf8xwQO01mrrrbje2uNVcEJQ1B1pnGjqCDQcpQQAXZA57AgrqNjWs9COBUcbFTIJKKxGcRFAskahUeewKjgY7bjkIkXGsiO0MBsXAjzghlFplGkqmuXW+2yWd5hhrZ0uHAqqqHOUOuwLAnLhxcEIJ6zwwgq/O1YYPGSQpRryYmpDmAE0Z1QNyzJxVBEF7ooUxAgAQAAYRtUBw7JSHPWDQEAcRcW+TZaAxVH3KUfBr0aRTNARR0Ex7AkbGmWkBUexsYKpeBr1BgTpiexzQR4oa/FRYpRscqV3TEEziiZYcVQS6e18x9QNIXlUE19jiIIZRw1BEAhH1WFD2/2RsARtRpb/VgTaD7lo1BwxAEoCFEe9EeFABHC9Bgx4j1eDikfcllYCIGgtEQIowytwkyToYJyqBEnQ3YszRO7kDSqKEUGBL3WwmFFn9BZkCUsYB4bmX5A1RxPCLpiCFMbBwQHsTsWctA7f+keCClTYcZQbFRCE1BCCH3VGDilY+zwTRRsVBwjIOyVAn+begIK1JbDwhLh3vHG89UchEAAPPBu1RhVO2EADDTiAwhWcFb+cle8lAgjC7F5UhSbYYAYAjAIZ6GCVMWygIUchgpg6Vy8uWOCAaPnAGOx1By0sriBH2ZNAFBAEh0VLDDw4AAjT8oAi4AtaYNhBnFB4B5A15AE9+EL+PJLChR3wZIaHkQAQwDDExGnhA5pziFFUCBMJeAAIRUhCEorggw5EwHJINAwBKPABIBxBCVvkAQeoCJGAAAAh+QQADwAAACwNAj8BbQAiAIcgUIAoVoQrWYYuW4gyXYkpZJYtapw1YIs6ZI49ZZA/aJExcaQzdqg1eq03frFCapJIb5VKcJdMcphRdZpVeJxYe55bfaA4gbU/j8NkhKRoh6driqlxjqx0ka15lbB/mbRFnNJKpdvZKS/ZKzHZMDbaMznbOD7bPELcQUbcRUvdSE7dTVLeUFXfU1nfWF7fXGHgV1zgWV7gXWLgYGXhZGniaW7jbXHicHTjdHjkeX7kfYGCm7WHn7iMo7uRp76Tqb6XrMCarsKdsMShs8aktsimuMmsvMyxv8+xwM+1w9G5xtO+ytblgoXmhYnmi4/mjZDoj5Lok5folZnomp3pn6HqpKbqpajrqq3ssrXsubvtvcDAzNfCztnG0NrL1N7X19fY2NjP1+DP2ODT2+LY3uXa4Obe4+juwsTvxsjvysvwzM7w0tPx29zy3+Dk5OTi5url6ezp7O7s7vDv8PHy4+Tz6+v07/D09PQAAAAAAAAAAAAAAAAAAAAAAAAAAAAAAAAAAAAAAAAAAAAAAAAAAAAAAAAAAAAAAAAAAAAAAAAAAAAAAAAAAAAAAAAAAAAAAAAAAAAAAAAAAAAAAAAAAAAAAAAAAAAAAAAAAAAAAAAAAAAAAAAAAAAAAAAAAAAAAAAAAAAAAAAAAAAAAAAAAAAAAAAAAAAAAAAAAAAAAAAAAAAAAAAAAAAAAAAAAAAAAAAAAAAAAAAAAAAAAAAAAAAAAAAAAAAAAAAAAAAAAAAAAAAAAAAAAAAAAAAAAAAAAAAAAAAAAAAAAAAAAAAAAAAAAAAAAAAAAAAAAAAAAAAAAAAAAAAAAAAAAAAAAAAAAAAAAAAAAAAAAAAAAAAAAAAAAAAAAAAAAAAAAAAAAAAAAAAAAAAAAAAAAAAAAAAAAAAAAAAAAAAAAAAAAAAAAAAAAAAAAAAAAAAAAAAAAAAAAAAAAAAAAAAAAAAAAAAAAAAAAAAAAAAAAAAAAAAAAAAAAAAAAAAAAAAAAAAAAAAAAAAAAAAAAAAAAAAAAAAAAAAI/wABCBxIsGAAAggHFFzIsKHDhxAjCkBIQGHDCyEyaoQY4EEHIkvCjBnjZYmQDQgiqlzJcqGABx6KcBlJUgmQDCkJYtC4seGADEri3BlKtOgbIxYCtFzKlCABDlvkFJ16x8yQCQNB8MzY0AIXqmCHzkkioanZlRq8hAUrp8gDAAUMGFjAoIGDhQN8SKVKp28dsG88KD1LuOCBIXOo1ulL5y/VMhsiHjgytc4ZJzRYpFDRooYUNY6JBhFQuPSDJVPpaGkyY8XmFjamrAl9Rw6PwQwJJCla5wqMESKCCw9OgkYW2qNLn03QpSgdKiuADxdewsaZqT0aBiBSdA0N6dOnj//IwaboDuVNdRdNEwN8eOpN6BCV04Ghh6JnUrzfLwLGGqJxWIDeUj0UhcUJ/L1HQ3lDvRFBQQqUQRQaKCS4XwsM3sGFRYUFQJpKEsBBVBYmWPjeDPINhQRuAPxAFBstmLhfDaFxoBwCRmTw4UNGELWGfjKGp8N8AgqEgIRDNeFekMGNUAVRXOxImA8a6ugQBCLeYccNTIZHQhZEITHQBj4i2OV0LKQYB1alRTgUFxtIOdAORJ1RwpnTzeDYG28B0ONQUuApHhZEnacclVDGWRBqQ+kg6HAloEFUZAKoNZQMjw435FBJoOdmUXB+eORQdKyQqXBRiAZAAmYMxQaQp7r/4FgYETxg66245qprrn9OFaoEQt2xRomnilADUUoA8IWPxJ66QoprRSttWHG4UeeSgrbgWBcAgEFUGncWm0Ib05ZrLlVnFBuctkN58VKWa5jpLLTn1gtWlneggS2eMUAJwKh30KGCujLMR9PBCCes8EhvhFVGDxnAK2+mNxDVaQCW3kGDuk0QZcSAvRL1cEoHjDFUHTEWSwVRPwgkBFFV7MskCdcN5QF6FAQ71MgE7TaUE8Wa8N9QGQiUwYuwCiqDY3D0WVqvPBd031DxnlrxzjkRIAZRU8hsYglgcoqzUFEv9OkdSj5qQhpEDUEQnSd/h+cITMxXtHJGlN1QEETR/5HymSOkOhQcZQ10QMYwAl4DtCsq98AOOUH0ABnfDtzleKEJUZAERXT3gtfi3QBtGRAM2FIHiQ2VBgugD0eCDqGNEfnWYNHBRLgJniBFaHFEZnpLL7+IA+77jZCCFXYQBUeRAhVFBN9FoYHDCdgaz8TQQ8nxwe9LDRDyHVrUQH14I6jwRIZ3wOH7QEUhIMAPe72IRRM1yCCDDVBkQW/6N3PfPRGp89EVmFA/GdwgCvqbihnWx76hFGEgHEBSvbzAPP+1JAA7aJi9uMCmghDFaQB4ABHwJS0z+OAAFjyLBIygM2mVYQcEaMhQPraQCABhDC0sShy80AMFpLA0ExgCGTHiNxU4dAFyDxkKCAsigAl4QAhJWMISkACEDkiART8sDAEqsIMhRHEJRvjBBkoXkYAAACH5BAAPAAAALA0CPwFtACIAhyBQgChWhCtYhi5biDFdiSlkli1qnDVgizpkjj1mkD9okTFxpDN2qDV6rTd+sUNrk0hulUpwlk1ymFB0mlZ5nVp9n1t+oDiBtT+Pw1+Bo2SEpWiHp22LqnCOq3aTr3iTr3qVsX+ZtEWc0kql29kpL9krMdkwNtozOds4Pts8QdxBRtxESt1ITt5LUd5RVt9VW99YXeBSV+BZXuBcYeBiZuFlauFobOJtcuNxdeR6feR9gYKbtYaeuIeguI6lvJCmvZOpvparwJmtwZ2xxKGzxqS2yKW4yau7zLC+zrDAz7TC0bjF077K1uWAhOWDiOaJjOiLj+eNkeeTl+eVmeiQlOiVmemYnOqfoemhpOqqrOyztey1uO26vO29wMDM18HM2MXQ2srU3dDY39jY2M/X4M/Y4Nbc49nf5tvh5t7i6O7Cw+/GyO/Jy+/P0PDJy/DP0PDS1PHb3PLf4OTk5OHl6ubp7Ors7uzu8O7w8fLk5PPn6PPr7PPv8PT09AAAAAAAAAAAAAAAAAAAAAAAAAAAAAAAAAAAAAAAAAAAAAAAAAAAAAAAAAAAAAAAAAAAAAAAAAAAAAAAAAAAAAAAAAAAAAAAAAAAAAAAAAAAAAAAAAAAAAAAAAAAAAAAAAAAAAAAAAAAAAAAAAAAAAAAAAAAAAAAAAAAAAAAAAAAAAAAAAAAAAAAAAAAAAAAAAAAAAAAAAAAAAAAAAAAAAAAAAAAAAAAAAAAAAAAAAAAAAAAAAAAAAAAAAAAAAAAAAAAAAAAAAAAAAAAAAAAAAAAAAAAAAAAAAAAAAAAAAAAAAAAAAAAAAAAAAAAAAAAAAAAAAAAAAAAAAAAAAAAAAAAAAAAAAAAAAAAAAAAAAAAAAAAAAAAAAAAAAAAAAAAAAAAAAAAAAAAAAAAAAAAAAAAAAAAAAAAAAAAAAAAAAAAAAAAAAAAAAAAAAAAAAAAAAAAAAAAAAAAAAAAAAAAAAAAAAAAAAAAAAAAAAAAAAAAAAAAAAAAAAAAAAAAAAAAAAAAAAAAAAj/AAEIHEiwYIABBAgMKMiwocOHECNKPJhQwMMLIzJqjBjgQQciTMKYMRNmiRANCCSqXMmSoYAHH4owITMyjBIgGg4UxKBxo0MBGpTY6UO0qFE6Ryi0XMq0IIEOTO4YndonDREJA0X0zOjQwheqYIniOQKhqdmVGsKEBXuHSAIABQwYWMCggQOGA35IpaonT549YOl4OEu44YEheKju6fsXLJoNEg8gmbpnTZQaMVi0eHHDChzARfEAsVi4sAImU/OoeULDheYXOK7A4WPUzg6IBJQY3ZNFRgkSwIMDN1GDC2iiQgKUPpsAjNE8WFz8Fh78xA02RvHcbhigiFE4NaZT/6duQkceo9uXLxWwxCgb3+PHn3hynugdDg1BGFWzIr5/EjLAUVQdSqnXkg9GaZHCf+OVYEMcRaXxQEEKoFHUGiow6N8LEBL1BWmFBQBiRBLUURQXKGgYXw319XFEQUAUFYcLKvp3w3H4lZbAERqM6NARRcHRX43jNVHUHRUMhICFRDkhHpHBlZBFUV8oV1oQfTDR40MRmNgHHzhAKR8XRb0oUAdBLigmdS7UZwdWpT2QBlFa+ihQD0WpccKa1NUAWhoKCAQkUVLwSV0JZBKVXmFYFlVnQV4UpYOhwp2AHVEaACCAGUXJQKlwRhKFhHpyTvUoAEsSlUcLnwZXRVFCAP+gwJx9xDFkqzOAFsYDCvTq66/ABgvsoKb2KMFQfbyRYqsk3FCUEgCMUVQby7baQotrZastWHbMkeeTlMoA2hfRFsXGnsyygO227LZLVBfMAvcCaGAEAIGXcFT76bXu9pstsn2oAa6hM1CJKpNy3PppwfaN5PDDEEcssZdUpeGDBsjCoWarODwLQABqEUVDvE+UaSCxEfqQ0gGc9rEHjcxiUdQPAhFR1BUDi2mCGkUNthwFAFelMkHtEfUEsygISFQGAmkgo8J85kpUHRMuR6zFKRWkH1FsbGxox0SdkTXLRVWRc40nJNoHtD8PhcbQDZVKVBNnq4jCpX0QQdAORen/MTKfJYTaBx6ZWv121g8NUZQcMK9ZwqtTwynQAWUE2TiRDraYhJWFPbAD4hA9wGQfbkCtYgk5HDdEQRKgDAcMdR96Q4tolGUgS1sTtUYLsQtXgg7HmYF45WDloQO6DKYwxXF25Hg7S97JiAPy/pWwgswDJjmQUUYovh8OKQxsfRNK27fo8yoNkMRUXNSAgvgrPNHh1M4LZBQCAgixl4xZOFGDDDO4ARS2sK46gAB9TCEAyogChyw04X8BpAIX1kWH+tmPKEYYiAdo1S8xWACBTQnADujgrz6AYQINKUrVBPKAI1BMW3QAgk5AaBYJCKVdaOABARxCFDOxTghm2N9UOuxQBh8EioaFoUAR0CBEo9QhDJ+DCFFW6BIKhIAIS/iCF5QgBA9IgHNILA0BLLCDImRxi0HoQARUEhAAIfkEAA8AAAAsDQI/AW0AIgCHIFCAKFaEK1iFLlqIMV2JKWSWLWqcNWGLO2SOPWaQP2iQMXGkM3aoNXqtN36xQmqSSG6VSnCWTXKYUHSaVXicWXyeXX+hOIG1P4/DXoCiYYKjaIana4mpcI2sdJGueZSwfpizRZzSSqXb2Skv2Ssx2TA22jQ62zg+2ztB3EFG3ERJ3UlP3kxS3lFW31Zb31hd4FVb4Fle4F1i4GJn4WRp4mht4m1y43F15HN45Hl+5H2Bgpu1hp64h6C4jKO7kKe9lKm/larAma3CnbDEobTGpbfJprjJq7vLsL7PscDOtcPRucXTvMnV5YCF5oSI5omM546R55GV55WY6JWY6Jue6aKl6aSo66uu7LO27bm77r/Bws3YxtDbytTd2NjYzdbgz9jg0tri2d/l2uDm3ePo7sLD7sfJ78rM8M7P8M/Q8NLU8dvb4+Pj4OXp5uns6evu7O7w7vDx8uTl8+fo8+vr9O/w9PT0AAAAAAAAAAAAAAAAAAAAAAAAAAAAAAAAAAAAAAAAAAAAAAAAAAAAAAAAAAAAAAAAAAAAAAAAAAAAAAAAAAAAAAAAAAAAAAAAAAAAAAAAAAAAAAAAAAAAAAAAAAAAAAAAAAAAAAAAAAAAAAAAAAAAAAAAAAAAAAAAAAAAAAAAAAAAAAAAAAAAAAAAAAAAAAAAAAAAAAAAAAAAAAAAAAAAAAAAAAAAAAAAAAAAAAAAAAAAAAAAAAAAAAAAAAAAAAAAAAAAAAAAAAAAAAAAAAAAAAAAAAAAAAAAAAAAAAAAAAAAAAAAAAAAAAAAAAAAAAAAAAAAAAAAAAAAAAAAAAAAAAAAAAAAAAAAAAAAAAAAAAAAAAAAAAAAAAAAAAAAAAAAAAAAAAAAAAAAAAAAAAAAAAAAAAAAAAAAAAAAAAAAAAAAAAAAAAAAAAAAAAAAAAAAAAAAAAAAAAAAAAAAAAAAAAAAAAAAAAAAAAAAAAAAAAAAAAAAAAAAAAAAAAAAAAAAAAAAAAAAAAAAAAAAAAAAAAAAAAAAAAAAAAAACP8AAQgcSLBgAAEECAgoyLChw4cQI0o8mHChwwsiMmqUmKDDkCVdwoTpogSIBgQSU6pcyVDAAw9EmHwRySXJDwsECmLQuNGhAA1K3tgZSrRomyITWCpdWpAAByZwikq1M2ZIhIEheGZ0WGHL1K9D4xx5wLSsSg1dwH59MwRlAQMGFjBo4IDhAB9Rp9KRI4fO1zYezApuSGBIHL17+34No0HiASRS6ZiJUgPGChYubFBR45doHB8BBotWwCRymSc0WlyOcaPKGqlvQEAkoKQonSsxSIzYzXu3iRplpAIJLbpsAq9E5VRpobs3bxM3zhSNs8NhgCJF1dBo7tx5iSZyisr/Lr50wJKiZ3J3724CSmc7cDg0/FC0jIr1+EfIeD3UDQXySvlQFBYo5NcdCTWEN9QYZBH0wBhEmZGCgfi9wJ8dTFg0WADESSSBG0RlcQKF6yVI1BEFBUHUGi2QiN8N78kn2gNGaKDhQ0cQpcZ9LjpHghNEwfGfQAhAOJQT3PXIGwlXEMVEh4IJgaGND0UA4lA3KMmeFicO1IGOBWrpHAxzDPWGBMU90MZQTFDJkIBDlWGCmM7R0BkZCQiU41BR0OljFkSNJ5qUTro5EHJ25OBnbyZIN1RjAoRBVAyL9tZEl2muWVSbFhU5lBwsVMobFUQFAcADZAy1Bo+iytBZFw8g/yDrrLTWamute0rFqQRC2YHGiKKOYANRSgDgBVFnzBksCwqq5eyzYL3BBlFaJLmoDHUMtYWxyCor6grNQivuuCEGu5sLnXERgJVDpQGsqMySK6+zvdpRhrV+ykDUtgmkaseq5uo7FBxjFGzwwQgnnPCVU5Hxwwa9qhGmqDgQlQQAAqQ1lAzmPoFpcUk0/ANKCIgxFB2hBlsFUT4IZARRVOCrZQnBDRVYcRTUa4fDKA1U2pHBnqAGURkIxMGKE1bqan8NihbyUDwztAOy7/p5A1Fi9HyApHzK7GIJgA5VLM5CRd2QmkTp4DWJJzhqBxEEwWmHHBzTScKlYRVd3BFmP/9ExIopi0nCFES5geZACHBthxqB94hgs0lAadYDPPQcEaoRsup4Du8NUZAEuS7uwto+2tDsGBAAyBII9bFAem8k6PBeGJaDAZYcOXibHwpSvPeGjKqrFMDLK9pQAoUkpLBy4RUQVJQRf9dnAwr4Jq/D0EFWFzxLtEmVBQ0mVK/CExfa8XtBRSEggGFSrXFFEzTA8EINT2ARrh1ufLD9UgSEPpQaVtDBDGAQAxtAIQv3awPwBkIUIwzkA5qSVxgssD+mCMAHDCMXF5LCEKI07VRH0Jmz2gCEA1TQLBNQQl6gNYYe5KQhQ0ERQyZAhDGsEDZh8MEHT1iWCvDthkV5QxcrdmA5GNphhwQZQAV2EBMubEEJQ/jABCTHQ8EQIAM7MAITnKgEIXjgKhIJCAAh+QQADwAAACwNAj8BbQAiAIcgUIAoVoQsWIYuWogyXYkpZJYtapw2YIs6ZI4+Z5A/aJExcaQzdqg1eq03frFDa5NIb5ZKcJZMcphRdZpVep1afZ9cfqE4gbU/j8NegKJig6RoiKdriqlxjqt0ka56lrF+mbNFnNJKpdvZKS/ZKzHaMDbaNDrbOD7cPELcQEbcREreSk/eTFHeUFbfVFrfWF3fWWDgVVvgWF3gXGHgYGXhZmviaW3ibXHjcXXjdHnkeX3kfIGCnLWLo7uRp76Tqb6Wq8CarsKdsMSitMaltsimuMmrvMywvs6xwM61w9G6xtO9ydblgobmh4vmio3mjpHnkZXolZjpm57pnqHpo6brqKrrr7HstLbttrnsuLvtvsDCzdjF0NrK093Y2NjP2ODS2uLY3uXb4ebe4+juwsTux8nvyszvz9Dw0tTx1tjx29zx3+Dj4+Ph5enm6ezq7O7t7vDu8PHy5OTz5ujz6+z17/D09PQAAAAAAAAAAAAAAAAAAAAAAAAAAAAAAAAAAAAAAAAAAAAAAAAAAAAAAAAAAAAAAAAAAAAAAAAAAAAAAAAAAAAAAAAAAAAAAAAAAAAAAAAAAAAAAAAAAAAAAAAAAAAAAAAAAAAAAAAAAAAAAAAAAAAAAAAAAAAAAAAAAAAAAAAAAAAAAAAAAAAAAAAAAAAAAAAAAAAAAAAAAAAAAAAAAAAAAAAAAAAAAAAAAAAAAAAAAAAAAAAAAAAAAAAAAAAAAAAAAAAAAAAAAAAAAAAAAAAAAAAAAAAAAAAAAAAAAAAAAAAAAAAAAAAAAAAAAAAAAAAAAAAAAAAAAAAAAAAAAAAAAAAAAAAAAAAAAAAAAAAAAAAAAAAAAAAAAAAAAAAAAAAAAAAAAAAAAAAAAAAAAAAAAAAAAAAAAAAAAAAAAAAAAAAAAAAAAAAAAAAAAAAAAAAAAAAAAAAAAAAAAAAAAAAAAAAAAAAAAAAAAAAAAAAAAAAAAAAAAAAAAAAAAAAAAAAAAAAAAAAAAAAAAAAAAAAAAAAAAAAAAAAAAAAI/wABCBxIsCAAAQMGCDDIsKHDhxAjFgyAUKHDCyIyaoyIgIMQJV3AgOmS5IeGAxJTqlwpMMADD0OWhATDBUkPCwQKYtC4saEADUne2BlKtOiYIRNYKl0qcACHJXCKSrUjJsiDgSF4ZmxIYcvUr0PhGLnKtCxEDV3Afn0jBAGAAgYMLGDQwIHBAT2iTqUzRw6dr206mB1ckICQOHv5zvk7FYyGiAeOSKVjBoqNGCxYyMAxBQ3joXF6BCA8OMGSyWSc1HCReUYOKmqkvvnwkECSonSsyCAxorfv3iZskJHqg3RZBFyKzqHSgvdv3yZymCkaB0TDAESKoqnh/PnzEkzkFP+lbZzlACVFzczo7h06lM9vNjD8UJSMivb4R8yIPdRN0vIq9VDUFSjk5x0JN4g3lBhkDaSAGESVkYKB+MGwBlFLLERYAKNJJIEbRGVhAoXtJUiUEQUBQZQaLZCIXw6fyUfYA0VY0OFDRhCFxn0uPkdCE0S9QcFACIxBFBPs9dgbCVZgeKNZQtihhI0OfUjUDUp6Z8JwQ6EokAc6FpjlczEw9kYEpD3QxlBTPjmQgEORMeKYv9nA2BhuAZDjUFDQ6aMWRJFHWJREtVmQV0Pp4OdvJpxB1GMCgEHUC4v+xsSJxqkplaEAFDmUHCtU6psURP0AgKZ2qMGjqDMQ1cUDCMT/KuustNZK656b2jiBUHaYcYKoveFAFBIAeEGUGXOKyoKCajXrLFhvsEGUFkn6OUMdQy1R7LHJVrrss+CGO1UWwPYmA2NbBBABiL3+CmwLzIor71rTVktnq9kCoICRqa5aKQ1EwSHGwAQXbPDBB/M61Rg/cMArGu6KmgOmAqQ11AzlOkFUEeUhsfAPbiEAoR10sFAuFUT1IFARRElhr5IkcGmHB8ZRoLAdDOcp0GlDMQHsCWgQZYFAHKw4YaUzMOZGg4N5PFTOBvFwbMR+CjtUGHkeIOlQT7xMYglZEJVEzUJBzRCqduzgNYUnTDeUEATBaYccGNNJwqWgDU3aEWY7/5TdUGqYbHcURLmBJpFb24GG4DDbMMewbjL1QA86P/QAv3aQcTTMOnwGN0ES4GrHGS6s/RuCzDIIoEpSE2Wf6b6RsMNnYOj8BVhy5NAtfii8FyQHq6sUgOhp2FACiSmgXHgFBBVVxN+u23BCtSSgsEPQAVsXvEq2SYUFDSZQr0IT/A31BvDNE4WAAIdJlUYVO9Dgggs1OHFFvHa4Iej2KREg+lBooIIO5OcCGzwhC/hrA/rSZweOCeQDa5oXGDLAP6UIoAfsklcX/lMQojANAka4WbPa8AOUVHApE1CCXp41hh7khCFdYsgEhiCGFcoGDD1g2gmXUgEjjAExa+kCDygqZ5Ch6JAgA7AAD4ogEy4oQQgfmEDkdsgUAmSgB0ZoYhKC4AEJSCQgACH5BAAPAAAALA0CPwFtACIAhyBQgChWhCtYhi5aiDJdiSlkli1qnDVgizljjT1mkD9okTFxpDN2qDV6rTd+sUNrkkhvlUpwlkxymFF1mlZ5nVl8n1t9oDiBtT+Pw2KDpGyKqXSQrnqVsX6Ys0Wc0kql29kpL9krMdowNto1Ots4Pts8QtxARtxESt5JT95LUd5QVt9VWuBVWuBZXuBdYuBhZuFna+JpbuJtceNydeN1eeR5feR9gIOctoyju5KnvZKovparwJquwp2xxKG0xaW2yKa4yau7y7C/zrDAz7TC0LnG1L3J1eWChuaGiuaKjeaNkOeSleiSleiVmeiZnOqdoemipeqmqeuuseuytO21uey5u+2+wMDL1sLN2MbQ28rT3djY2M/Y4NLa4tne5dzh597j6O7DxO7Hye/KzO/O0PDNz/DP0PDT1PHb2/Hf4OPj4+Dl6ebp7Ons7u3u8O7w8fLk5PPn6PPq6/Pv8PT09AAAAAAAAAAAAAAAAAAAAAAAAAAAAAAAAAAAAAAAAAAAAAAAAAAAAAAAAAAAAAAAAAAAAAAAAAAAAAAAAAAAAAAAAAAAAAAAAAAAAAAAAAAAAAAAAAAAAAAAAAAAAAAAAAAAAAAAAAAAAAAAAAAAAAAAAAAAAAAAAAAAAAAAAAAAAAAAAAAAAAAAAAAAAAAAAAAAAAAAAAAAAAAAAAAAAAAAAAAAAAAAAAAAAAAAAAAAAAAAAAAAAAAAAAAAAAAAAAAAAAAAAAAAAAAAAAAAAAAAAAAAAAAAAAAAAAAAAAAAAAAAAAAAAAAAAAAAAAAAAAAAAAAAAAAAAAAAAAAAAAAAAAAAAAAAAAAAAAAAAAAAAAAAAAAAAAAAAAAAAAAAAAAAAAAAAAAAAAAAAAAAAAAAAAAAAAAAAAAAAAAAAAAAAAAAAAAAAAAAAAAAAAAAAAAAAAAAAAAAAAAAAAAAAAAAAAAAAAAAAAAAAAAAAAAAAAAAAAAAAAAAAAAAAAAAAAAAAAAAAAAAAAAAAAAAAAAAAAAAAAAAAAAAAAAAAAAAAAj/AAEIHEiwIAABAwYIMMiwocOHECMWDIBQocMLHzJqjIhAA48iWrp0yUJER4YDElOqXCkwwIMNPoyEHCkERwUCBTFo3NhQQAYibegIHUoUjA8JLJMqFThAgxE3RKPS8cLjwUAPOzM2pIBFqlehboJYXUoWYgYtX7224YEAQAEDBhYwaODAoAAcUKXKkRNHjlcwGsoKLkigxxupc/ju9dolQ8QDQaLKGcMkBosUKVrMgHJmDtE3OAIMFpzAiOQwSWBcTuGCRhQ0UdtweEiACFE5UlqEAMG7N+8RMsJExTGabIIst6Go2O279wgaZIi6mc0wwA+iZ2Awb95cxBE4RKkX/185oAjRMS62c3e+xK/QNo4NciAa5sT6+yBcwBbKZsL4lTgQNUUJ+HEXggzgCfXFWAM98MVQYphQ4H0upDGUEQsNFoBoEk3AxlBVjDDhejLEMVQQBe0wFBoqjHgfDe7REZ9gDwBhAYcPRSbUGfa52FwISQzVBgUDIfCgUEeo5yNvIUxxIY5l9UBHETc6JMGHQsmwJHcjCCcUigJtMNQZBG7ZHAvutQHBaA+sIRSVUA4UoFBhiGimbzG490VbAOhIxxJ3/mjFUOIJJuVQcBbUlVA1BOrbCGcM5ZgAXQy1gqO+IXFicW1GlSgACIAhFBwoYNrbE0PlAECndKAhoan5Df+VxQMI1GrrrbjmiqufRME5QVB0jGGnqTMMNQQAWwwlLKwgpJBgWtBG+1UbagxlhZKBunAhshAOi6mz0oYrrlRVMAtCC+5hEcCVQpVBArMqPDvuvGpZi+2d2gplBAAKiNpqj6a+MJQbXxRs8MEIJ5wwsFKtoYMGwJrxLqw0bCoAF0O5wGyQQgExnm1ROdyWkULJkQKzUAxFXJ9DOXHvkiF4SccGxVHAMB0iE3TFUEfASkKkQlkgkAYrvuqoC+6xwaBgIOOsA58E3aCst3cWK5QXfB5QqVBKvDyiCFUMRUTNQeXMEKt01OD1hCSMMVQPBM1JBxwa3xnCEUO9IfRoQ5j/7dB1QqFxst1NDMVGBAQhsDUdZwwOMwwmCiVEnEs9gAPUD6EdhtE+hlBDjHATJAGvZCzXOYJDgbH0fxBJPVR9a/sWgg0xdgE1xl7BQQPV65XQ3sCBsZ5SALyeEYMII5qQsuEVEEQUELzSYUUMJGAbQgk2AA1WB8KvRIB5RFHhwgjWn4DEfu8FPxBRCAjgg1RnRGHDCyusAAMSU8hLh2zds0SAEPCDQg1cUL8YKIEK+luD+tbXsYF0wE306sLe+reSu2BpXlrwj0GGsrQICOFm0FrDDlBCQaVMoAh5kRYYcIAThnyJIRPwARhSGJsu4GB1JUyKBYKwhsOoRQs3wNwGJ+mAw4EQwAI3CIJMslCEHnBgApTL4VIIkAEcBOEKWiAJDzaAlIgEBAAh+QQADwAAACwNAj8BbAAiAIcgUIAoVoQrWIYuWogxXYkpZJYtapw1YIs5Y40+Z5A/aJExcaQzdqg1eq1Da5JIb5VKcJZMcphRdZpVeZ1ZfJ9bfaA4gbU/j8NegKJjg6Rsiqlzj650ka56lbF9mbNFnNJKpdvZKS/ZKzHaMDbaNTraOD7bPELcQEbcREreSU/eS1HeUVbfVVrgVVrgWV7gXWLgYWXhZ2viaW7ibXHjcnbjdXnkeH3kfICCm7WGn7iMo7qRp72Tqb6Wq8CbrsKescWhs8WktsimuMmru8ywv86xwM+zwdC5xtO8ydW/y9jlgobmhonmio7njpHnkpXokpbolZjomJzqnaHpoqTppqnrsrTstrnsubvtvsDAzNbCzdjG0NrK09zY2NjP2ODT2uLY3uXb4ebd4ujuw8Xvx8nuyszvztDwzc/wz9Dw09Tx19jx29zx3+Dj4+Pg5enm6ezp7O7t7vDu8PHy5OXz5+jz6uvz7/D09PQAAAAAAAAAAAAAAAAAAAAAAAAAAAAAAAAAAAAAAAAAAAAAAAAAAAAAAAAAAAAAAAAAAAAAAAAAAAAAAAAAAAAAAAAAAAAAAAAAAAAAAAAAAAAAAAAAAAAAAAAAAAAAAAAAAAAAAAAAAAAAAAAAAAAAAAAAAAAAAAAAAAAAAAAAAAAAAAAAAAAAAAAAAAAAAAAAAAAAAAAAAAAAAAAAAAAAAAAAAAAAAAAAAAAAAAAAAAAAAAAAAAAAAAAAAAAAAAAAAAAAAAAAAAAAAAAAAAAAAAAAAAAAAAAAAAAAAAAAAAAAAAAAAAAAAAAAAAAAAAAAAAAAAAAAAAAAAAAAAAAAAAAAAAAAAAAAAAAAAAAAAAAAAAAAAAAAAAAAAAAAAAAAAAAAAAAAAAAAAAAAAAAAAAAAAAAAAAAAAAAAAAAAAAAAAAAAAAAAAAAAAAAAAAAAAAAAAAAAAAAAAAAAAAAAAAAAAAAAAAAAAAAAAAAAAAAAAAAAAAAAAAAAAAAAAAAAAAAAAAAAAAAAAAAAAAAAAAAAAAAAAAAI/wABCBxIsCAAAQMGCDDIsKHDhxAjFgyAUKFDCyAyZoyIQIOPI1y+fNliZAeGAxJTqlwpMICDDT+QhBxJRAcFAgUvaNzYUEAGI3DuCB1KVAyQCCyTKhU4QAOSOESj3gHjw8HADztBNJygRapXoXGEWF1KFmIGLl+9wvGBAEABAwYWMGhgUIAOqFLr6K3jVYyGsoALEvghx+tevlK/ZIB4YEjUOmWeyGihQoULGlPS2CEqR0eAwIATIHk8hkkMyipe1KCyJiqcDg4JGCFap4oLESFy685NYsaYqDpAk0WwhfaUFbh36yZRwwzROLANBghCNE2M5MqVj1Ayh2h04SsFHP8hWuYF9uzLnSC+A2dxwQ5Ex6BATz/Ei9ZC30gAv1IH0Som1JedCDN0J1QYYwmkQBhDlXGCgPS9wMZQSCwUWACfSRTBG0NdQQKE6M1Ax1BDENTDUGusACJ9NaznHmAOCFFBhg85JlQa862onAhMDAXHBAIhwKBQSpynY24iVEEhjWX9cMcRMzq04VAzHJkdCb8JJYRAHAyVRoBWKtcCYnA8AJoDbggFJZMD+SfUGB+GuZsMiIXRlo13OCHnjlgM9R1gTg61ZkFdCWXDnruRkMZQGQjwxVAsILrbEiQKh2ZUgwKAgBhCzZGCpLpJMdQOl96xxoOg2jfUFg4g4OqrsMb/KmuseBK1pgRB3VFGnKDSMFQRXTTIq6QqGJjWsch+BUcbQ2Fh5J4vUBisUGQMi2ixyWarrVRXpJqbC4hpMeUdZ5Tg7QrGbquuWs0+K2e0QiGhAKem5ggqDEPFIca+/Pbr77//5iqVGzxokCsa5qZaA4kCeDHUC972qCV4s0VFcFtCClWHCt5OMVRweEbh7pEiZHkHB8JNIPAdFxOUxVBKpFrCokJVAIAGQ6mBKqIvIPZGgoBVzDIPbRWEg7C9DgVGWwc8KlQTI4M4whVDGZFyUC0zVOodNkQNYQllDPVDm0PNAbGcIigxlBw2g1ZE1g5RJ9QaHKMNhY8QDISA03ek/1E3yTGMKBQRbC7lgA5FQ7T1GDvrKIIN6/lAUAS1moGc4wUOJQbQ/EF09FDyeb2bCDes90XRDnvFRg3WomeCevn+1XlKAdSahgwjgHiCx0O9QcFARAlR6x1YxFDCsyKYcAPNQsmBw+wrETDefy+QgDwKS+AnFByyC0QUAgIAIVUaVNwAAwssxLBEFemy9yf0EhFAxPhT2PAC+jIwYUX7bnTv/cQC8UCa1vUFDMAvKXbh0Lq4sJ+CDAVoECDCyo7lhh6g5IBKmcAR8JIsMegAJwYRSokMIoEgiIGDrvmCDjiHwaRUYAhuKIxauICDxIXwDiwcCAEqkIMhyGQLRwBCBxckULgWLuUAGdDBEJLABSD6gANIgUhAAAAh+QQADwAAACz0ABYBtAGuAIcgUIAkV4glWosoVoQsWYYvW4gmXpAoX5AxXYkpYpMrZZgsaps1YIs6ZI4+ZpA/aJAubqAwb6EwcqQydag0eaw2fbBDa5NIbpZKcJZNcphRdptVeZ1Ye55Edq1HeK5Iea5Le7BbfqBQf7I3gLM4gbU6hbk8ib0+jcE/kMRegKJUgbNZhbVeibdig6Roh6doiKdsi6ljjLpoj7xtk71wjqx0ka54kqt3k7Bzl795lbB9mLNAj8RAkcZClclDmM1GnNJIn9VHodVIodZKpNpPqNxQp9tTqdxbrN1zl8B1mcB6nMNhr95jsN5qs99+oMRrtOBwtuB0uOF7u+LZKS/ZKzHZMDbaNDrbPULcQUbcREvdSU7eTVLfUFbfVVrgV1zgWV7gXWLiYWbhZWribXHjcXXjdHnjeHzlfoKCnLWFnriHoLiKorqQp72TqL6Do8eHpciIp8iMqcqVqsCSrcyZrsKWsc6csMSbtM+XstCcttGBvuOgs8ajtcinuMqru8ujutOovtawv86FwOOLw+SSxuWWyOacy+aey+irwNeswdixwM+0wtGzxdq3yNy5xtS8ydW9zN6hzeim0Oir0umy1eq72ezlgYbmhonmiY3nkJPok5fomJzpn6HpoaTrp6vrqq3rrrDssrTst7ntu73tvcDAy9fCzdjF0NvP0NDJ09zR0dHQ19/S2Nza2trE0eHE3e3M1uHO2OPQ1+DT2+LU3ejY3uTH4O7L4e7T5O/a4Obc4+nV5fDY5/Db6PDuwsTuxcjuycvv0dHwy83w0tPx19jx29vi4+Ph5url6e3q7O7j7PLr7vDt8PLy4+Pz6+v09PQAAAAAAAAAAAAAAAAAAAAAAAAAAAAAAAAAAAAAAAAAAAAAAAAAAAAAAAAAAAAAAAAAAAAAAAAAAAAAAAAAAAAAAAAAAAAAAAAAAAAAAAAAAAAAAAAAAAAAAAAAAAAAAAAAAAAAAAAAAAAAAAAAAAAAAAAAAAAAAAAAAAAAAAAAAAAAAAAAAAAAAAAAAAAAAAAI/wABCBxIsKDBgwgTKlzIsKHDhxAjSpxIsaLFixgzatzIUaKAjiBDihxJsqTJkyhTqpwo4ccPEytjypxJs6bNmzg1jhjCc0iJnECDCh1KtKhRASd69pxgtKnTp1CjSjWYoIfSnkIWTN3KtavXrxkj/Liq9MdHsGjTql0LtQJZsj3Yyp1Lt25JASbevoVpt6/fv4APVtWrl0Lgw4gTg10wlrBerYojS54MlIJjxz8MUN7MuTPJEnqPRKIUxXFcz6hTq34ogAfhW69eMXvimO/q27hVMyb8ZDauSZEu5x5OfPIEIXqjvHryrJcgPcwwF59O3S8JwpF4VRpC6VklZcH1Cv+BUL28ebRI9RoZEumZoSFGBk0SRESvDwXn8+uPmsCH+l2DFPGKMktcNgQPZ+2n4IJAtaTeEJMwE8URvNyyHmE/MajhhjPtdNWFg1hoxIBHPBHeW0IwxeGKLJKU3lVH4BKFFE8sQ8kQUTzzCmaQtejjjxgNRlYRvTBzyxB6eBcbFIT1kCCQUEbpEASNkWWEMkbyREgvtzBBmG1ShimmQW69VYQUUUAhBTOTSGHEERe+ZdiYdI6Jl3qvFFnIEIM8IyFhP/RY56BACvnWIMowgaUUQ0BBm149JEDopD/uRpgeh1RiyC2J1vYkpaAyaJlScR6ySyVMMBfFLobESVYFocb/qiFoSg2ySxFDFAIgM5Uc0csyJ5IFBHmyFptfa2Td0qsRtkxSSSWRDHKEl/ZJauy11Vl6VSTM9EJIhJQs0csgjp3wKbbo3nacXkkywwSFyihjIWEjpGtvbhI4xgQh8r75nKtKCSHBvQSvhoKBUDBzo2P3FewwarReZivASiH48MWclWkgxT1liPHHkuVlIGEpgmxyZFaN/FagJ7eMmMpv9aCZyzT7JQDMV4FZ885zLYBzT3PyLLRco8LM8tAYN6BBCCFkgEBXD2yQAgdOIxTxyJEi7XADaDySzDNgh32MIjQ83ZQFa5iyTNhh6+JHCwQQlPLIJpyr9bUZBML23mwn/0NHA0Rt8AjfhB+zhtk8+OAScoTBere9BdhB+ORgI6NDUAz4QfnkusAwUAAChG5AAgss4N8QQETwuL0YzEJ4M7+MMgowzhC+iNk2cZAL4cXETkowtfPNR9wICUACCdauji0Hx+wNzBlZUCH99FxkUszeqQBeEwxfs+2LGVdMP70XmzSz9yO4K3+xBs2HPYwYVEwh//z0V3GG+WGnwgBNLXQP9i9fiB/9BmgFTAQPbI4gnvq25rqwdcIKA4zg/LLgC7b5YQAysYAu2JaJKkhQglsQBtvosMCH9YFtmBDgByNohVCwzQYxGcDgwOYMM6hwhfS7QgXD1oISEiwEawPbJv9uiEP6WWGHz8iF9i7SAAs4hAZsuwQRiyi/Kwwjf+mzCQP250PPOCJsvoAgFSWoBfw9Yw0ZQUAq/OBEhRAgFWELhQfHGEEwHJAGOJHhM2bRxc5koHvOAAMdP4iJsM0iixSpgZ/YmJAUhK0ZWxikBDsRNlNg0CY5eMYpbgARDOSiBn2UyxrCNoo5SpJ+WLge2DiQRlaAjRmMNMgewuaJKUpyC/hLxgVuQodn9BAiikRDKNlSirCV4ZQS9ETY2KARRYYNlm0UCAEa+IwwIHOAVCBF2EBZkz0gI4mLAMADHLGMY9iBeGjY4Cx62Aaw6SKca4hFBgDggFiQcAOxWIMfTAH/AAJ4MxmLcMAwgcKAWtAwktekHxnCFs5W7g2aArFA+4qBhYTSr5Bg24NN5LDBVfiBALlABhs0p1EYPCMVbThGMhiwht3lIpySY6UFnhHOFoStFgBYxDP2IIdk8JEhqAiqUIdK1KIa9ahITapSl8rUpjr1qVCNqlSnulRVuO8KFp1fFw5ojK569atgDWtY/be3ZKiiFWAUY1bFELZH3ERyIQBAJttgAQu4DgAWQAMCEKC5FAAgmAKJKV5pCgCbHsOJM31EXTW3AaBS9bGQjaxkJ0vZykrWlWADhlotisvNefazk/PfKGx5yi8Ez5I2gSsAerk3CyCgD+3z5V+fIUwA/wh2pjXdqUBsujc8DvQmf8zsZhPaWdAa97hgG21W5WdasKG2JqrVwTNqsMUU7FJyamhAO3sI2NU+w3MhIKxN2yCQDDyDD1vUwAYu+duaXOCbzxgGVpe7VeTal3DMgCPYfGFKi7IVbG5N7TPi2oBk6CIHafBpTqergd310KazuJwia7EG1+WWvAJJxTLWkINZMGOJ7Z1JA3b3jGZoYblTGIMh18DiFrv4xTCGsSnwy0YLwLcY882qJcLGh7cOWCAh2OAed6mBby5Db54DwOB++kWaPsMRhX0GhvGqX2QkOcQ1OUXYxoBiSoJNDhpBACweGssCUPMLKBZF2C53EwUK5P8C0exnBuLmZgYUYCAOeEA/iedmgTxgzli+STvBFgrS0vEKxOBhM9kGUYJoDmycMPQYy/hKDAR6UhsIojO6kNUzGJKLFxHzK2NZEN6WOAtZ1UTYTtHnS4tpADNObn8lmcqwgTkjimz0QRBAzU5IGofFfQabXT0oUz9DisisggvBdtg0rjHOCJGuMa95xE8Tm1AaoGYNf41NTrBNDRppokMIoGUaiuGULWSbb68dJQJsQAd8SAUz+OaMFNLRCqBg2yNafZIih23bhx6FBdn9IwakIA1+oObeTEHWUSB0hVQQwxUNCW2V1GDecUQ1DqlQBlWCLRWIJLiCarAIIW/uw9z/21soxDDcKVzBDMDYWy52WRMdYJyGnwDDFK9giYnnD8Qi1xANFD65HgMgBLH9tzBA0YlOhMLnbEuFnm8CA/iyzRm/+ETTReFxtjkC1EFfEQxksbloNkCnyGUGHfg9EwvE+rjJqG3Yf5SGyfnBIC3Q72cXYemhwIDok1tGHyo+dw65wOqtRYgG6AD4j6+B8EEJAR9I/FBToAHohV8Rawl394UgYAMwuEENYADoqTSAAzDIQQ1akAH2Zr5FDSj35Gj++to3BOl780MmwdZQ2/s+IaNk2zJyAIALhG2ev08+QRAww5siHwBrg7Lyp9/gvS3izgOBowamr3yb703uA9lD/4C5b3sCKGJvx2isQXKgfvK//gJELwXYl+/+2tMgiGGbcv2VPwA+7A0Zv7R/yvcAevdxmCeAtdcCiKdbCKh8clBWV9aAttcAbwc2swB5Ehh2uGdBbJeBQRd8YTN8Hmh7CNBkYZMLzzeChVd9bHM7Kvh63sc2aPSChUcAjyY2rESDc2dXCzd/OshuNEBWz3BrPyhyAzBLbAOARRh0DlCAJ3WAS4gRBBByW4EAroUWA9AADdCBpbaAGhWFGpFXi0B5z3AMptAG7ecUXOMIQogMi6ADVDgULcB4fJMLewADbPeAfbNuYGgRLyB7lKMLasCFNpECxbR3aSgUDNAGQohfe/8QZxS4NxfYhxeRAU7oWcjASUJhAc1nXIvggzeRBvhnXGt3dEn3DB9FiRYBgnyzDI0YNo4QhzEBAze3N8uADLWYhHGVEw1wiWGDDKO4N7XgTCE4bKo4ETcYNq4QBzHwAR3wjCvgBIwQjLMAhSvBiu6UBzMAAs/YASKQBH9gctuEExhwisiACEqgAt0IAjIwB7HAN8lAebmwfcdIEcn4DI3AAt24j+tYB6OYC6CoEtg4C0nAjwapBOL4XTZhY0kYB9xokN0YA4AINtEni/WoEKyIDAUJkQa5AmOWPzVhbM+ABxxpkB/wB3uTgitRAGQICSJQkvzoBsFIQhc5ERrANrr/sAIwaZKMwDZEuBIMgH/MoAQ7aZBwgJM0kYx/UJT8GAOIlwo1ORHUhAw6yZT8CAlsg4ETsYsMkYxEaZX7GAc+qRFceXtsgwhguY8xMIrEF5UPYVJhMwNpuY8gYHKKwBF7kAp+pRAzFTZLOZfd2JNhY5EOkZd7yRB6NwseAJjP6AZscwyu55YKoXeMwJjdqARsY40S0QAfd5gGITnu9JCMqQL4B34VwZkn5ZkHcZNhEwOW+YyuoG6SyRB9CTZV+ZrUlAZ4mT+qKRD+Ewev+Yx5cFMagYSpmRCg+QyQEJwdMAP6NpsLsXvP4ArM2QFiCTalwBGoyZsEwZp+IpqWuQJs/0OYDbGdnXkQBgU2Xxmc4hiZ0OloYTMH1SmeFNkRxsmdAIAGylidHWByEWgR93meA4EAbAOelomSYUOP72kQeieX1Wl1chBjEjqhLuZ/hKOXg/YMf8mcgvkMj0ChIPpiFso3eikQ3jkL/OmY4/h6NqAKLvqiMBqjMjqjNFqjLso2txmctHBfPLo5wFmdCNqjPJoMrYBWYLOc1emcYWOaYdeiNvqkUBqlbKOO1fmOQnqlYQMH/DmcWDqkYYOkzKmkYDODC1oQ1OSa1ZmQXWpc+Cef1QkIa4pcqdAC4QU21FmdScA2xlimAtF86/maHyCDITqoLTai2NMCIJgI/BmbvP9HqCFqqFH3S7V5DPw5B2wTgHwqEHqooUl6gvZJor9EjLpQnR6AfzmIEQF6UpgKADeXo5aJlWEzdZm6W2LzpmHTB9p5qMvHNmj6mnkaNuGmqwbRfHXAnCBwc7owqwQxAP7jBMEpAvi3qhdhnHN6EB/5DJUZnIz6DHeZEdQqrQMhnbqwmK9pqWFjB8pKEMapC85omXDKbLl6nAghnc/Qq4D5q2ADrpspoAmBAG36mqTJNn2XroMVNoBgmUjANkwKoCW6EFZHCwZqlSoQWz+Fqg3LEJvHDPaalrCKQARLEJv3DG6almtJnBxxqgsBRV9KrmAJAla6ShqBsgyBAFaXk4D/GaRgo5VlSgDpCTZ3kJYzMIqJqBKd6AoRW5IqoHCdJxNw6U4bC5MekAh7Q6Yf+2aj6AquCpEfwKVLWhMIII66gANMqQRPaRMhywxzwLIlGQMv67FVWxAckIuJ8LTPqAJzcIo/2Xan6ApJoLbd+AFO0LZ7RJ4lcY+64JAcOQMdWknu+bb+tje6wAh1AAdvMAeAILhgs7Ay8QCAtwyQkAdx4AZx8AeuEIwnRbgmEbJhAwt/EAdvEAd50AinyHuN+7YA0ACdaFzHUJZtdo/Gha5BkXL3pbm2OxAwQIabswxtQIgzEQKNNzmnoKA2IQAJYC0IkKqbowiyWrwK0QKLkItR/4cG2GcULXB+lCN4Q0sSEqA4JUABJFACJ9ADVTIEJEAQLNWzhUMHOsu9BTEAG5ADcrAHfEAHaNACqJsTIYAGchAIj+AHbYAG6VsSV+MYgjIQDVADa7AHi7AIfMBh+8u/UYIsI/MDIIwxCTC/l6EzJWwv+YIzA7PCBHMdP2M3MCwrArADP3MgNZwuJ5zDQxA0O1wsEcA4ZEEJTeAYyRPEsaIxV8EElbAMpWEfSlwsSZEczLALHMMTpzHFlGIAp0MWejAIRkAIz0AuekHCXDwpCxAEZnILvaAMvXAElMAMTPIWJ5DGhFI0PXEhUtALTKAsblIJdXwVP5DEeBwmIqMUgv/gHFKgB8vQC4UwCL2QxU5yyHYyN0pxBPPWKr3QC4bQC5OgFypsyUCiLVcRBcrwDKEsx7dgCPVBFkBMylAyAXrxBJRQCEfQJ5FACIQBBBUsyz8ywT1xBMrQJuvRHnH8Fj4wM8AMJCL8FlKgDJKAJYIwBEegF3fczFDSw1YyCGI8CbdACM/SONoMJS1sJbvAC2wyBFLwCsugByhCLOXsIzJ8KHHcC89ACFBgCI9CyIY8zxtyw44RBSEyCJXwDIN8FShAwwCtIP2hF93xCkbQG5JczW9Rvw3NIkOcHMpgCMpQCUZwC8zAy2/xwhnNIUysFE2Az9uRMMHizye9IlVMFu2P/CzPwCiDINExw9AxfR71nCzPcMTfQS1v4TE9rSEonMnKYAtGENLw/BYqctQbktRKkTChfMa/LNUK8tOHMi9wwdNanR+YDDOjHNYLIgBU7RixbNYbsgBEfBm+zNY/QssG4gMHINdAIsxXkc14DSSuoReO09fOnNTjIdhSkgBvXciGHSaWYi6LPSYJANYEGxAAIfkEAA8AAAAs9AAWAbQBrgCHIFCAI1eJJVqLKFaEKliGLluIJ1+QKF+QMV2JKWKUK2aYLWudNWCLOmSOPmaQPmiRLm6gL3GjMXKkMnapNHqtNn6xOH+zQ2uTSG6VSnCXTHKYUXWaVXmcWXyeRHatR3iuSHmuS3uwW32gUH+yN4C0OIG0OoW4PIm9Po3BP5HGTo+/XoCiVIGzWYW1Xom3YoKjaIenaIinbYupY4y6aI+8bZO9cI6sdJGueJGrd5Owc5e/epWxfZiyQJHFQZTJRJjNRpzSSJ/VR6DVSKDWSqTaTqjcUKfbU6ncXK3ec5fAdZnAepzDYK7eZLHearPffqDEbLXgcLbgdbjhe7vi2Skv2Ssx2jA22jQ52zk+2zxC3UFG3ERK3UpO3kxR3lFW31Va4FZb4Fpf4F5j4WFm4mVp4m1x43R35HV55Hl95HyBg5y1hp64hqC4iqK6kKa9kqi+g6PHh6XIiKfIjKnKlarAkq3Mma3BlrHOnbDEm7TPl7LQnLbRgr7joLPGpLXIprjJq7vMo7rTqL7WsL/OhcDkisLkksbllsjmm8rnncvoqsDWrMHYscDPtMLQs8Xat8jcucbTvcnVvczeoc3no87opdDorNLpstXqt9jru9rs5YGF5YWJ5omM5o+T55GV6JOX6Jaa6Jqe6aGl6qmr7LK07La47bq87b3AysvNwMvXw87Zzs7QxdDbytPc0dHR29vbxNHhw93tzdbgztjk09vi1N3o2N7ky+Hu0eTv2uDm3OPp1OXw2Ofw3Onw7sLE7sbI78rM8MvN8M/R8NTV8dfY8drb4eLi4eXq5ens6+zu4+zy6u7x7fDy8uLj8+fo8+zs9PT0AAAAAAAAAAAAAAAAAAAAAAAAAAAAAAAAAAAAAAAAAAAAAAAAAAAAAAAAAAAAAAAAAAAAAAAAAAAAAAAAAAAAAAAAAAAAAAAAAAAAAAAAAAAAAAAAAAAAAAAAAAAAAAAAAAAAAAAAAAAAAAAAAAAAAAAAAAAAAAAAAAAAAAAAAAAAAAAAAAAAAAAAAAAACP8AAQgcSLCgwYMIEypcyLChw4cQI0qcSLGixYsYM2rcyLGjx48gQ4ocSbKkyZMoU6pcybKly5cwY8qsKGCmzZs4c+rcmVPCDyAmeAodSrSo0aMEKxBZSqQE0qdQo0qdelHACaZMJVDdyrWrV6IJfGBlKiTB17No06oVCQHIWKw/aq6dS7euXYMU3r7tcbev379TA1zV+9Yp4MOIE888IJaw3gmKI0ueLHKBW8d6hSygzLmzZ4gUhmB2DETu59OoPZsgjASRpSiY+aaeTfuwgB6EjdyKdUtZE8xBawsfrlbBZb1RmEW5ZQkR5iHEo0unKkEIYSmZoEDjVYjQMsxApov/H0+0hGNEuzIdycQsk7JKjoVAIE+/vkwBKAgfIWIJ2iEiRxhySSH76fWDAvYlqGBKCfyg3y0ExtILEqMR0YNpC2aoYUcSHDfWfpcsEwUSvcQyWnAbpqiiRUp9uFQhsRxxxC0TRkGJY0NAtuKOPDZk1VtI3BKFFFIsYwkRU0CTCXib9ejkkwSFpdcRvTBzCxGFMHNJLLFI4ZgPB0ApppNt6acMMyYSgUgvt/xG2AkBjCnninnpZcQUQ/LBzCRTHIFEgXpRMOegGgqmn4TLFELEIcwo4yVhQDRJ6KT1MeZYIb1AcaaXUsBGmA9mUSrqeJZhVgglmUyyy4SYoYDhqLAK/xcaVoAigsslTSQnxS6JAPpWBbEGO9xqWBVy5aK7MHoJEsoocyOkEQgrbWq3vXVLJn/eQsklmVDCBxJQFEHYD6FOay5nCjj4liXL7FLIJVo20Yuijrl67r2TVUcYIdAw04S8yrDp61iG4WswYhJgBgUiysSIRHcDMzWEVgdXDFgKFU7BzLOOHWjxx34NNpohuETM1IUgp2yXeRUSQSFhKKoss1oit/xWjjPnrJa6No8Vqc5An9XzW2AGbTRXCQyN1QmvHu00UhAovZSgT1cNVZ09/2y1uQNcIMILL3DQwABIEeA12GIjVHOFoG4t7QVtqLIMNHTXjQwkOzAglAZttP/CTN11H8OIDQgQ1FjL9rod6waNAO444Mn0cUFOIkTy+OXI0NGAQD38BIRojgGrOKwI+HH56XQnwwbZMjXACOqnH3ODQALUXnsCCizQ4VJAUDy6qBrQ8vgzxfhCCim+NHN5JJvDJIIuwxdzCimlAKP844AUjlACJphQ7u+TinCM476gsUUVVKRPRRVdcDKM47RM7pIMyQD+jClmZIG++lV84UkxjlOF3sB3rw2Mr27AGMP+1MfA9Z0BgHWTRfNW8oL61c0XX1hgA9N3hU1cj26R0B4BpdUA4dUtFFfYoAqpoAVTAK4RBFgJBqBHt2dwwgor3GAXfgG4PtyEAQMcoWL/AAE4Tmgwh+q7wigApwaVDMByNTzDEZFIBSy4sG4ymEkjktEKISpmBXOjGyimSEUqXOGK0NDFAzLSAAw4xAaA0wQZqZgFYNSNFiJ0yQ2SkYrZPQQDtPCjF7cCiQumsIwq3AIEoeGGjBRAFYDQwEII0Iq6kQKHiNwgGD64g5jQIRkriIgNksGDQW5FAxZ8hhgyuUJN3DGIFoEjNCKZkBXUrRldYKUKQ1E3VsTQJXjQRTJoMQgAPKARyMiFHX6pBltw8QUAcEMykpGLYq6hFZJsQCvoAAAOtEINgIgEAAiAh2MIboKmdEkb6maKOWYyC4sMJUYKUEm6DUKSBjEd3Ubh/05EduF6y8BnS97gzFb4gQC00EUb/JAMPACAfqpoQy6QwYA20CIZtgAEAOyQDA4A4ALJ0GgFp0kLAGwRD29ARhcZgoqWuvSlMI2pTGdK05ra9KY4zalOd8rTnvr0pzi1IDTQoMsViqJuxgAqTF/huGO4AqZCHUNRN1gFNHbyJRwVAQD22IYLXEAWyfgoDxCAAEAkQ6ujLOVGO/rRkAKggrmYHEgb4dU/sHUhSs2rXvfK17769a89XUUqcznVBpahbsnoq1AD91RUuKJuxdhCYRu4ibr5ASZZBcAnp8lZByCgD8KcJjTTKhCOehSkIm2oQEbK2WRkMZ0tucABh5GFyf8y8AvPoNsx7PCG3vr2t8ANLnBZcbp7cuBv0PjFIW1LBTLUTZxYPSsAdpCMGwBRBG7EQzLU0ABpjna7AvlkFkXg1go2EgCo7AMQN8AB1sF2JaikGzCWa1sufBB2+M2v42RRt1P0M5O4pRsr3MuSzDbgGLbIgRqO0UWz3mADF4XmCrjYyVHSom/lTcZ5AdAKZLThBq1IBjrfi5L4QmO+zE2fffXL4hb397+IDDA0VEHglWQWACJw5jAnp4HQmjUGAoEEFwWyxWRssRFv1fBALqCKaR7jtSRWyQWQQTfappgKMnaxlh2XDFXUTblXHsNzY/LLJctPIATIANnKDAAGFGD/IA5wwDhZx2aBOEADNY7ySRhgQmcQlrmHpRst1EDoQhv60IhGNBS57AevHrAYWriyK+n2Bz2Lyct0O8OVj0o3bmYEAfyFXKPRPIu6rZK5VShF3dRqaSetk27tZG4WiFE3aGZkB6I+s0D+UDdRwBiJK4ZGQFv9pA2kMgzMTcMrPx3qZIzaIC+45Z8L+4le1pnYKqIkO+mrS0XWzdMYwbWzdV0QBNQTGvycrBc+yGpsa4gAHNhBH1iRDOTSrRO/buAVSBE4clMEAax4tkJyALg05JuBWPDFst2dIAaIAJwXbe007SdHXVqB03Rbg0Ya4G+EEADT0HhGGQ5uRn5jkeH1/7EBI3Qs8ZbnAnCe4HYOs2ByEF67JBo4YMgrjsgtnAJwGkV5fWQQ4pZLvA8ioPIFM4jEKpSB1neUM0voB7hSdKGfV0DDfVmRR6GTJwZFN3oy1vgCpbOzDFiogtrXroU02BFwtHCjHhf7DFKQ4QprX/sWNvE+wLVixF6njxrEflmBcMAWwxNGKUYxClNAPYBSf8kLdF63ZwSDFIw3xSJf2PXAk2fyYtd1A4jo4mS84eYsucCiWYyMJno+QZs1etALIoJU2Bt1ywCE3G8Cdv1GLvKvJ08DUiH2aXZcIBp4gyzCCDlVqAH4OeGAHWhx+9RFYgeAD/50OpALifsBB5ydvf9CELCBF9hABi/IAOp3wgAOwOD8L7hAnrUvnjZIHBmzA+k0M0D//g8EAUXGWbQgUMhgZP7nfxAmcYPwZgPRZBtwgPRHXRLnegSBB5AAgcFHAGbVWrbgUQZxAx6IgV53ARHHWZEASwTReSKIbTZQgK3VBit4gAPQBxJ3DLYWg/T3AGE3TaqQfTjodaDXWg71g/T3BjUIZUToeQwQCRLXCseXhO7GfRIHCOsHhcTGBi13VVbodQAocQO4hYEXPBLXCCoIhq0mga1FgWbobhoocbkQgmuIbRcwCxJ3gnHIcDLggpy1YXfYagOgXa1lg32IbQ5Ab63FCj44iBZBAGV4FAj/cAGNWBQD0AANUIUEEYScNYSKiBEXoAaN8HKBowpvAIc80QBqIGSOgwyNMFZF8QLT9zi50AcygHpGGIhIuIkUEQPEhV+6wAaW6BIrkAr61QikaBMMYIT5xQySQxBL2IRPiIsNoQHnpl/IkAM4oXpa1ggoGBNrwHwstkzd1H2tRYXQWBGvdjnLsFiOAwmRmBIyUH11swzIAI90gwxa1TrTmIre6Di2sEcSp4XlKBGkBziwMAczAAIekJAt8ASOsI+0kIgocY51owt7UAMhkJAeMAJKEAg0BDiC5BIZQHnQgAyKsAQsgJEhQAN1UGpcVoJfGJATMZB08wgugJE2iZJ3/+CNubCNKSGR0EALSnCTQrkEHUk3tyhlZjeSc3CRQomRM7CLkGNk7QiTCCGRyBCUTSmULRBqdLNSLBFtgKMHWSmUIBAIjiNQKlEAoEg3kjACY3mTcLCPdkCVE7EBgKMLLfCWZOkIgANuKcEAzMcMS6CXQikHd9kSMhkIhHmTM5CUXkmXD2FCI5mXi3mTkgA4zygR98gQMjmYlWmTc9CXGrGZDSECgKMIn2mTM+CNAHkR85eEMgA4NZCaNhkCHckIHNEHrSBPCXEBgKOYtImRfFk3U9kQusmbC3FutPABwZmQcAA4x/CaE0EA0hmD5+YIzYmRSwA4EBkRDdCVyFkQeP8wkUzZnCzAfGpYEd8JDbu5EHZZNzOQnQkJC4BjAxtBAPhZnRDom3VDmfIpmRq3EX1QN+1pEEI1B/KZkHtQN7agEQMKngkxnmyZoB5QA4ADXRqBn/mZhLhGN7BAoR4QmnSTChyxngSKnO/ZL+WZnS0AOMXJECYKoQaBeHTjmQlalPoJERqqoTkafANZByDaonSzDB3xoH4nT2pQNx8Koh15lBRhpCeagoCzotlplnVTjBUxADvKo9ZZN7MJomZHB20wpmRapmZ6pmiqT4+zm29QN8BJocMJDZGApnRap2Oqpo5ToClKCyDqAc9ZNzuwpYI6qIRaqBqaMzjgCoq6qIz/2qiO+qiQGqmKCjj+maC1sGWYCjsICqJWmqmYmgyvwFQTCqIWWje+aKiomqqCKjOJKqmu+qqwCjgnCaIs6am2Sjdy0KcLequfWjeS0KelSjdtoKrEiqoiKJnxyaS8iqnMB6QgKgjL6mKt8AKm6aF9qgRMtKUDsK3c2q3e6q0CoaWDGoOLZqPyCQKAY6fqSqd46ncvcI6L0Kf0STeNsK72ulCnM60CwZ/QcAx9WgeAc4MYIa47+oN04KakWje5UKRrams3MJEg+gHM1wEO2rAFYW+Vmp2XWTdrlKEFS4Rg2a/PWjeVthExyp4CiwCAk6zyia11s3F5KrADsWh3QKEh/2BvurARBGuFAyBUT5CgI8B8MnsRRqqvBsGV2Jmg8woNuJkRRTu0A9GhacSc8gmwdaOJGIGfZmikuoCQ2QmtulWiMnoQUgsNLBucLks3UCsR61mgCYEAzSqf5wk4/JcR27qG/AoNgpCdScBEuem2CWF2tUCllckCOldSTgu4CmEHdcMMZ5uaG0s3FwiZD8G4deOsqbmaDNoRFNsQssSWVPuZIVCr0NC5GGG6DYEAZoeXwdmpdJOZlEsQBECjdJMHqVkD3oilJrF6sEC4Y8kCkjlLLRGbE/m4b/kBi+A4MBi7f+SNsJCxTQkCu1o36ZkSCFCUuqADi7kEjolVgMMMdf8QumM5A6QLDZPLvA/RAdW3CMabkCxQByLpl6knkrCgBOKLkSDwBOWLRzAhk2m0lFlZA3FaNzSGvhGxAUlJN7rgCHcgB3FQB4JQvnRTvSzxAME7pJKwB3MAB3MQCLCwj+z5oiRhufsVCHMQB3OwB48gkvTaowZcEA2weix2DKQJExqIqVgbE1S3ZRT8wg4hA2uJX8twepRzwbDDCg+IEw+gCC7GCB3rwxXxAo1Aj12pBgy4Ey/wOrj3B7pbEhLgA0BBARVgAigAxqBDBCrQBrR7ObsFu1DsEAMQb3TQB35gB2rwAiIsEw9HB4MQCYDwBmrQxSZBLBXSJA1wA23QB43/0Ah+0AY74MZvLCrV0jLQEck6kwAeMhonYMk5IwFn3DK+w8kgQwJS0zSijC/4ITWyccoV0yBSQwRUw8oGAwHWoReX4ASY8T2ybC4t8hZNECKPYiC7jC9rgxVSwAy7YDJL4QPDbC4CcDhjwQcEYgjQQC96ER7NLCylohcSogy8gATwAgWEgQLZHCxYwxQFMgW90ASxkAl9kgme4jO6XM6EQshMwQe9QAhSMAUBgwiYosw+YAD0LMnQzBRI8DeUcAS80AtrciR6sckDTSnGQRhRMDdHggSYsAsJHSgRTSkTQBhNYAmG8DDQkAiGoMxBICkdPSf2jBUkYgl9QgSUAA2s//IW5LLSgzLJeiEFznImhEAETGAyiYPTY4LJU1IIBGIJt3AImbAkhCE6RD0mnjwlq8IMRzIF7sEHejExUS0npEwYmNIEvAANhhAFkxDPWAEE89zVO5LKjiEFhnALhsAeaI0VKMPWT+LKetEfMQIFzEAIu/DTelEweN0jZbLTDK0M6nELzPAfehHKhb0j54wVTtALSkIEx3wj4vIWah3ZTlLMSyEF7cweU0AEhhAjeuEDpuzZGmIBjnEL0CDO7uEmehEzrL0imezSDSMjtyDYbxHLt70juW3MVk0aKh3cK8Iyl3ILJhPQyP0kBW0zEP3cTiIAw40ZwE3dPbIAn/wcxzGt3T3y0RVy0+A9Ji39FkNd3mKCG0+t3jmd21zt3oOSAJ/c2fJNKNuc3vc936sdyQEBACH5BAAOAAAALPQAGAG0AawAhyBQgCNXiCVaiyhWhCtYhi5aiCdekChfkDJdiSdgkCljlCtmmC1pmzVgizpkjj1mkD9okS9uoDBuoTFypTJ1qDR6rTZ9sEJqkkhulklwlk1ymFF2m1V5nVh7nkR2rUd4rkh5rkt7sFt9oFB/sjeAsjiBtTqFuTyJvT6NwT+QxU6OvF6AolSBs1mFtV6Jt2KDpGiIp2yKqWOMumiPvG2TvXCOrHWRrniRq3eTsHOXv3qWsX6Zs0CPw0CRxkKVykSYzUac0kie00eg1Uih1kqk2k+o3FKn3FKp3Fut3XOXwHWZwHqcw2Gv3mOw3miy336gxGax4Gu04HC24HW54Xy84tkpL9krMdoxN9o0Ots5P9s8QtxBR9xFS91ITt5MUd5RVt9VWt9ZXt9aYOBTWeBZXuBcYeFhZuFlauJpbeJtceNxduN1euR6fuV9gYOctYaeuIeguYqiupGnvZKovoOjx4elyIinyIypypWqwJKtzJmuwpaxzp2wxJu0z5ey0Jy20YC946CzxqS2yKa4yqu7y6O606i+1rC/zoXA5IvD5JLG5ZbI55rK553M6KvA16zB2LHAz7TC0bPF2rfI3LrG073J1r3M3qDL5aPO6KzS6bLV6rbY67vZ6+WAhOWFieaJjeaNkeiPk+eRleiTl+mXm+ianOqeoemipeqoq+utsOy1t+y2uO26vO2+wcDEycbKzsDL18PN2cnN0cbQ28rT3NHR0dTW2tvc3MTR4cLc7M3W4c7Y5cjf7tDX4dTb49Td6Nne5cvh7s7j8NLk79vh5t3i6dTl8Nfo8djn8Nzp8O7Dxe/GyO/KzPDLzfDO0PDT1PHb3PLf4OHi5eDk6eXp7ens7uPs8uvu8e3w8vLj5PPn6PPr7PT09AAAAAAAAAAAAAAAAAAAAAAAAAAAAAAAAAAAAAAAAAAAAAAAAAAAAAAAAAAAAAAAAAAAAAAAAAAAAAAAAAAAAAAAAAAAAAAAAAAAAAAAAAAAAAAAAAAAAAAAAAAAAAAAAAAAAAAAAAAAAAj/AAEIHEiwoMGDCBMqXMiwocOHECNKnEixosWLGDNq3Mixo8ePIEOKHEmypMmTKFOqXMmypcuXMGPKnEmzps2bOHPq3Mmzp8+fQINWFDChggGhSJMqXcqUooIeRIgAUdC0qtWrWHcyABI1qg8BWcOKHUsWJIUhXbueKMu2rdu3BQOYSEvXAty7ePMqFQCVbtohEfQKHkx45oIffv1OLcy4seOQE4QkTvz1seXLmB+WmMwZRebPoDMLQMG5NInQqFMLVuBjMhImpYlMUE27NtkJXBMrSpYs0xHOi20LH67UAucm1gBxShaltA/i0KPvFHBi8hEpVKxlypUoWGkg0sOL/4/JejKTTMOgXEtGRZN3zmvHy59vcqv1YNgUEUGUzFqw5pOdABZ9BBbIUQVoJYYIElRgk0lUSETx22QVGGjhhRRRxxkSyWxyBCPYIBIbEBJgaOKJCz01WRNTEAEINowcoYkxE1JGFYo45giAfWkZQUVUmFjTHCYhHtEEfAPqqOSFZ/kVhTWaaIJEMMY4oYh2pdm15JYFyuVaMtw82ER/1iRSI11BzMblmvLxxdkRuQSTzJFNNCLiZD7cyOae0R02GRW5aMIEEsMMk4sTpaGQJJ+M2obbZFNodw0nR0TBCydIcFZCo5zathlnmOSCyDDYYELEmXQNoWanrII2mmtUNP/RBBXMBXPMkZP9wECrvGZWXldI3CmFMciU2eAmwWQ6WQ9H9eqsY4+mxcl7nGSCiDWMNJEJJwAmZkIAz4ZbmHF0HRFMLopMEUwwwwDCXWlDVCjuvHlpmFgi3FwjBSNhMiIkcLvSK/BbB7Q22W7YUHEEJsYMkwhneQ4scVvVvckEJ/8igWpaAk7sMVkGl0ZoMBunJe/HKGf1aWxR6DcZiSnHjFXFsTmnp8w4LxVyzYl1nPPPSuXGs19aAm10UAIM7VeaRzcNFANKp/XDzU5XnVMFUUelqNWtDlAAAggUkJTXYIuN0FxRb8o1pxfUEEgltPjiCy2U6AGDAzwRcIENglT/oovctEQyxwt4E5SC0kJQsDajBLwQSTXcRC755NMQ0sEANyEQQyXXTO45N8UEosFAQo8Y8OJsdlDJ56xHjs0hGdT0Ai2ts36NIBcAUJQFJZhwAgo99LBzDwegziYBcUD++TbZZLMN69PoIBMCfGCzvDbNP/85MTEkJEAJQwzxbUpgG+9YA4R4vs0yoJwxRhdegJEGKc5oLzkeBLz0wOqTZ6PMJ2f4AvzkZ4pn2C9fblCIARKgEkJMIxbmYwwCIjG5baQiDFaoggY3qMErnIEVB9QD5ljigFhMThun+EIGObhBLKRhGZ6LA01qMA1K1AAiF6BF9yJolQEEYnLPOMMK/1nIQiuwARqTS+BKCEBByTGjDEMkYgs9kQ3JXeOGMonDNEQQkRhMwwY8tIoNJqeMLkjxjFUgwzMkVw0uqiQOk1uFFtBIRCucAYmRm0bsYIIHX0yDFoMAwAMIAQxfyGGEOqAFMWLBxTgUYxq6COQOKhE7B1RChhuohBv4EAkAEKCPviBE4cIIkwcAw4lcoOMZwYBHbsTCbBcZQP4akoFpSI4VWVClFM1QxchBIiZxoMU0YMEHAsQtDnyYBh4A8IIaxkEXwECAG4RJC0EAYA7T2AAALjANa4pgGsT4IwAIQQw8xAEYsGiIK9bJzna6853wjKc850nPetrznvjMpz73yf/Pft7zlJHLxhh0eUY02M8W/mznK6RRC3tKQ3LPSCVBidgGK7rxJXKYBgcAQMM4XOACsSDGNnUAtkBMowMA8CIYr5nNbXYTAN/0Re64SYiPJlObC0moTnfK05769KdA5ecrlMeNT0Rxohq0winY2NNbcIMaDZWnLCa3BqQS8QqskNwvYZLRjWpxGmAFqwMKoAc/PnIFKf2iQLCpTW56U5kCaWZYwbpDUrYkBhCdo1VZ+IVeVgOnF7kAMSIXixfMsiBukNwysLBXFppBe9PIHUY1CgAbTCMGYOtA7rC5gwZoEa1elB4AtAgDAHDgpd+UIQBqqQewaWADI7QrSwYhuVL/NLaIq5CcEjEih8kV9rAC4R83OnFbDmIBhpGra0u6CgAHzK0GOvAFBAVxWQ0IE63fjAUYvUgLN8QCtdNQLQAqQQw31CCkDZAtS4wpuTIUl4NskFwnMyJYz/1WIA4AqDa88N4NjkJyeuAqZQHQAWH+MXca8CMxTPoCgUDigQJxYOUqB9PwDuQBlACrLxqs3pU4YLDcgIZE+wsG7ekCAxBIsYpXzOIWszh9n/ttBpT3jFz2twpokFwlYgLcbUpWIATAAOaA2wBYOgBvBBhhj5ubgdh2OCUXoEbkanzjKnShl7XLspZbF4veRk4ZR71tiSM3Cyc/GUMzjhwzGHtjLkRj/8twjvPnlFHlKnxBe7RY8pkNFOUp67W/XsCynAfNOqIuI8yNBYPkZrFnFH04oGa8cRisKLdKW/rSmM60lFlXjMFt+hl/fm8a5NvoEw1gFpL7RJU9ITlCbATGk+v0AwDQAF9EbhtgqHIp7ldqAxFAAzbQQyWIigpEI9UKrZCcaDGyAaKCbg6zHkgTuQGKG2PBGZLjcK/Dg4AO6CAQsXhkWDcd4hHftgzao8YeMQJrWRtEB3nt76gjR4xRbns4MSCEgefK78mVwti6vIIqJEcJjTT72dE2CARAzA1PAFyVx5WcNe8dHRh8l9/8Juo2hNhYK1TUddq+CCHcrRA9SC4buf/uuCjYCFiKQ+cFsMD4XG0dOWik/NhnwHIkzEyRC7wh4Qq5AEC50QxzE9QKa7BfIFw+Hh3IfBp8eAFRnyGGh3PQCmnAcjFGpxIbWE/NXrD6Bj1uP18AnenEeYEfMV6M3MHx5J1gMx21IAr7VQOLK+HD5KChBrmf0QpbOIX9qHFRtBPHkU9fOgAGoHcyqkELYQZ8G9Zoxd2upACwjhwr0JCFyHPhE63kxt0ND50GRILf4Qzrjwkwh87tPRWeOAMZypCGT6hC0E9ddksKIIjPPQMVnZA97UPBCtxflvTE4cDaw8oHGoLV1QWxAcPlvGGZDMANtiT0LFqOfNq4QdxgJcb/DbkJ1nUT5AKCILeWlZlemmgAEs7OMjHigIDu2wYBEg4rLTAwkHBCHyEaUFbxx0a+4FE5wQGBQAyu9znU0F32Zn+pYV38RgjAlWFcpxAEwAE7EAiREAuxEAl6YAMawHOZIwJuIAiUEAuwEAl4UAPmB4GqcQOpF347YBB4cAgwiHwEQF1zRQvcJxA18IM5uG0XMAv8Fgn1dxBJOIQuFwPAwG/ixYT2NwB6wG++UHhSiHyWxG+U8IBZaHhqx2/L9IX2h3hhBQwhR4ZoZ3r8Fgs/poZop3z8FggkCIfb9n1zRQwrZYdMh3/8RgsvyIfbJoFzRYGCyHTSl4c1eIgURwAm/zVzG8WI9wZSR9h+kthrTgiFl3hveGCFWLiJT7aFc1UJXgiKGUEAS6gUCHABqYgUA3BkenYQK7B8YDWGpkhfbhAJ0/dAcxCJPOEAbkAJ8UcNkbADrZgTL1BW2xMIMRCLZghWwFBat4gRMIBqWlYMcBCLMbECsABnkeCLNtEAczCAn4MNgfCGbDhXbjiNF2Fdg0YNOGATFyBccRYJljgTb7CAcaYH+cMBvTCH2siODfF2tkOOkUMJx3hXX/c510ANC+k5hDcTDkA7rUMN+ug5wFAD4AdOeyiQE5F5kYMLdyADIOABJtkCTyAJF+kLpfhGn1MMf0ADIWCSHjACSlAIxf/wOR3ZErUEkY6wBCxAkyEwA3mwC59TDftGCxfokRIBkpPgAjQZlUK5B/pIDPe4EgQZOb6gBFLZlUuQk5OjXCvRZ5JDDXcwk11JkzJgjZRTObDElBGRldTAlWnZlS2gC5NDCy7xAp7jB3XZlSBQCJ6zlClRANNnCSPwl1JJB/qIDXMAlxSxAbHWAooJmJIwObaYEg2wgNiwBJXZlXYQay2ReYXwmVIpA+qnl5ApETT3VJRpmlJpCZPzhhjxiQiReZ4Jm1F5B5ipEbaZECIwOY6gm1EpA/qoexeBAHVIhnglOTRAnFEZAmDJDVulEYFAC2gVdJNTmtBJk5cpOQkpEdf/mZ0MQZHc4Asf0J0mSQeUs5wRUQANoJyHaJ6SoJ40uQST05IT4QCRg50J0Xigg5bqyQILaHkVwZ/c4J8KIZmSIwP2aZK4MDl4hxENUKEIEJAweAGT85oP2ppvwBE/1J/kSRBEdQcPapJ/IDnAYJ2So6AHAaCWcKIeQAOTs2MaAZ8VGp8Y2n3wFpIy6gG8GTnptBEI2qIjyqDcgA0Cap8tMDnhGRFFKqIHMXS5eaLTyQ3uGRE5uqU7aniwlgc/2qSRcw0dEaJ5mZ2J5aM/Op1iWRFmaqQEgQCTs6T2KZiSA44HMQB6uqd8uqcEkGQIsKVcKoXm+Zw/Sm7mFAeKuqiM/9qojuqovcc62DkHksOdMvqd3HBJj7qpnBoHkfo5CoqkvvCjHsCektNZgpqqqrqqrFqhXdorN1ALsjqrtFqrtnqruJqrsrqhpPoLhParW2aiP2qnwFqs1XALThU5MfqjNCo5cdCq0Bqtqvoxsaqr1nqt2Do5QfmjRlms3uo5dkCqKfqtxio5yyqjzRo5cyCt7Aqtr7ptremga0quxbqAYPqjhkCvhEYLLxCcaiqjSjA5z5qjgRqfYHOwCJuwCruqbwmDwlWlDwoCAtupFPuon+o5/EqQj0CqERo5kVCxIOuprcOvAqGheUSqeTA5aWgRqtqwOYgHlcqskiNSIAqqHP82RpFTDD/6AQuIUhnxpv2ZhgvJoQ8qm5IDARoxAIL6pBDIlycro/kaOYFEpBgbcnLaoAA7ORoRpQm6suMlOXsgoyGwkMWwEQUbn3Y4AET1BCc6AgvotW7aol6Ll5FTnyfasdTJokGbED0KOun5oCkrOXyQtBZ6iGZaDCVpn1HLDdPAEQjqou82OfKqngGbbRnxuCOqhPb6oAQ6OYFIEeXDiCYbOYZgn0mQRCAKuQhBbr9Ap7DJAtl3ntapuglhcq4zudBptAe5mhFhu5Fzr8RpnCraET7LEDUwOZbwt7oZAt0aOcV7Ec/LEAhAbsVAtLBJrJFDm7y7EAQwdNzQB8T/SQP6iKcoQY+44Lp/yQKtyQ3/pxLNmbO4W5kf8AgxtL0RgQH6iAvWm5YgMK665RIIcKXFkAOmuQSp+RK+m6R5oLx/KQPNu7v2GxEd8JDc8AjxS5MskAexGzmZyRLc5Dm4oAQMTJMg8AQPfJ5MaxIgWQxnWZc0gKmSEwtZGsEHsQHql7OSsAd2UAd5YAgnHDkG2hIQsL5jagl/cAd0cAeFgAsXmaApfBIJLDm6UAh3UAd38AeTsMHyNcM0fBCW9KtbRBMEAJJxNrg0EQMGqWVB3MUQEQPTl2XXMAfvihIiQMRZtn2ZA7RaBglIy8YX4TgUnJdu4LKyAwlwPAjkCxMW//ADPmABFaAClwAmtTMNeqC9flwRA8ABOoAHgSAIeuAGL/DENWGCN1gJhDAHbpDIMOEmiYEEiXAJmpALuTAIcaADlnzJA8MjNRMfuBwzkaE0q9LLH7MyPBMEiyLMA/MqUdMDyOwxfpI1J9PM9BItUTMEVCPNz0LMaaEtJeMV2DwvyuwX7jIMypIYavPNzvIriYEJ3GAqnBHN6MwqEVA6wJIIU4AEuWANuOIt8cwrCJIYTpAMxnANmQAFxkAyk6E4/cwpAUAzfpEJmjAFyIAJTiAFmJIYnrHQjaLOXREliYAEmiDQVFAtnGECGt0oupwW+HINVDAF2JALQQIIiREvJ//NKP+8ztiQMC6yLndCF0BwOjW9JmjjF1SQCVSABBiTCD+CJ9cc1DrCyn7BH5nQHFPCDZoQIMfs1DqS0nSRCcGQCdZgDE1gJBSi1WsyAQlCF02gCFJgKdyRDA+TGEAQGGa9JdrcFZGSDCz9IbkwJzZS10sSzn7BCZrwIkKSCI2wz2mxNYCtIwqAGJyhCIoQDNciDN1cNI2NI9ScFlNyDYxABI1gDJPdIn6hKpmtI3fdFZgQDJqADfZsDclA2nQxNaeNI4Kt0tbADQ8TJFNwBCXDA1ld2wbC0SptDJlgDMagMZzw2eYs3DjSF36BHDQyJpQyGUOg0M5tIgpQGomADYt6QARUMAyK3RU/nd0ost2lgQksfSqJ0QPBbd4FIgA74xdHwAnu7BcmDd84wgCSwRlFMNPwrN8mMgFZU94CjtpK4wMMdOBKQhq7/N4MjiECANnvHOFcogD0TN50beFbQuB+ETEcvibk0hWMHeJrsjKYbeJrIgAMAOG8GxAAIfkEAA8AAAAs9AAcAbQBqACHIFCAI1eIJliHJVuMKFaEK1mGLluIJ1+QKF+RMV2JKGKTK2aYLWqcNWCLOmSOPmaQPmiQLm2gMG+iMXKkMnapNHmsNn2wOH+yQ2uSSG6USXCWTXOYUXabVXmdWHueRHatR3iuSHmuS3uwW32gUH+yOIK1OoW5PIm9Po3BP5HGXoChVIGzWYW1Xom3Y4OkaIWjaYina4qpY4y6aI+8bZO9cY2rdJCteZGpd5Owc5e/epWwfpizQI7DQJHGQpXKRJnORpzSSJ/VR6DVSKDWSqTaT6jcXqHNUKfcU6ncW6zdc5fAdZnAepzDYa/eZLHeabPffqDEZLHgbLTgcLbgdbjhe7vi2Skv2Swy2jA22jM62zg+2zxC3UBG3ERJ3UhO3kxS31BV31NZ31he4Fle4F5j4GFm4WVq4mtu4mxx5HJ343V55Hl95X6Cgpy1hp64h6C5iqK6kKa9k6i+g6PHh6XIiKfIjKnKlavAkq3Mma7ClrHOnbDEm7TPl7LQnLbRgr7joLPGpLXIp7jKq7vMo7rTqL7WsLnBsL7OhsDkjMPlkcXllsjmm8rmncvor8DPq8DXrMHYscDOucDHvMPKs8HQs8Xat8jcucbTvMnVvczdoc7nos3orM3jptDoq9Hps9Xqttjru9ns5YGF5YWJ5oqO542S55GV55SY6JOX6Jea6Jia6Z6h6aKk6qWp66mr662w67K07ba47bq87r/BwMvXws7YxdDbzdbeztjf0dHR29vbxNHhwt3tzNbhztjk09vj1N3o2d/lx+DtzOHu0eTv2uDm3OPp1OXw2Ofw3Onx7cHD78bI7srL78/Q8M/P8M/Q8NLT8NfY8dvc4OPl4ebq5ent6evu4+zy6+7w7fDy8uTk8+vs9O/w9PT0AAAAAAAAAAAAAAAAAAAAAAAAAAAAAAAAAAAAAAAAAAAAAAAAAAAAAAAAAAAAAAAAAAAAAAAAAAAAAAAAAAAAAAAAAAAAAAAAAAAAAAAAAAAAAAAAAAAAAAAAAAAAAAAAAAAAAAAACP8AAQgcSLCgwYMIEypcyLChw4cQI0qcSLGixYsYM2rcyLGjx48gQ4ocSbKkyZMoU6pcybKly5cwY8qcSbOmzZs4c+rcybOnz59AgwodSrSo0aMuB0ygMACp06dQo/ZU4IMIER9NpWrdyrVrSAZArFpF4bWs2bNoEVYYIlZsibRw48o9OsBE27sU5urdy7emgh537wZh0Lew4cMjGfwIHPiHAsSQI0uOSCEs48A9AkzezHlzgBKXQ5voTLo03wEoQquuYLq167KKLydJolpIhNe4cyOdYDnwImTJNiEJDeSx7uPIeV4IPSXZH17HpKgmm7y69ZioZUtJlMwTL0W8VP//uE6+PEqql5t84jUl27EqocKHfmu+vv2OvGUPy4aIiKJr1wwj3WUmaHbfgQhOZMFlR/yBRCLZbGJVE1IMx9gQrCWo4YYKDXBCaFFc4wkSnVxThWpEAEEYhyy2CAB6jDkxBREQKoJEfBYy5oNxLvaIIFh3IXHiEZ4k4wQRn5iYxJGXnZCVj1DWt1ZgU1zzySZOEDOME41co0loQ1gQ5Zjl1SXbNd1IWCWAiOR4FxASkClndX+FlgQvxBBDmxSb/BHajnMGqltsjD3nyZLJDBMKk00+KeijpVEgxGVVJPNJNp8gQcUwn9B22QWQhkraZ6p5Ekoix2DDCBFuvjmBqLBO/zYAD7JR4YQUfxwzBTHHeKrjArEGi9gCi4nlxIlEUHFMMslUgQg2oPDia2AoOCrstXPlJxYSvITCKi+bcMdIFJ8sOh+26Oq1YJDHgKLIFMfwMswf86oWRF7p5otWdowx0s01fEbY5YCM/bCivgh3BSNjXV5DBRJFDtPfZSkgkPDFXKUWGhJO8GIkEUm02pYJ1mJs8lEBVIWiE8nwUgSYGZ4ss1MfophsIsTdNvPOR2ls85888iy0UCr/zJiTQycd1AC9GS1WmEpH/ZMCTrsq9dU8TVC1WIBi7TVO61Zd7UgJJPC1awlgoDYEBgyVdgYYOFAAQjU7TZ9IgNxCydmdJf8wghy1/EJNNdVQ8wstcHgwt04JuJCHLcEMXo0xv2ACBwcEEFS0zUC8OlIMtwwCA0QYYOIC32Y50MYv2XTj+uuwY3PLDmbb9AAcv8Cuu+vW1GLD3Ewb7QOwJLVxSwcRuXBLDah7ZUPuu0fv+i0x0FRAG8VIL70tIwhAgQUlmHACCij04EOxY5X8ERy13IJJHgA4sIf7bmQOgA2Y6I38Dre4D78NkcBA/CLRBgBsIBI6uEMgAFAA9tliDw5oXk4aMIjW6W4b0oAGNKSxjd1hYw+1ewkGKBG9bURDgxzcnTXgsDiDeIgIQ7hb8fIXiTgUABO12IEcbgEHAChvEDvIXwL/dJC/9wEADrfYAAAecAv4daB/t7gEAPLAQ+PtjSGGyKIWt8jFLnrxi2AMoxjHSMYymvGMaEyjGteIxklQQ3fSaAUavrCFOnLhC2l4hTZ0Nw02+pGLk7AGHFlhBi/UcQt3XAMs9gi7YGTxBQdRwAFS4oZbcAAAoNvBAx5AiVsAAAI1SIAB7nA8Hy5PIEhUIhOdeAtaPOCTtwDEJneoxIX88Za4zKUud8nLXpZREm98nTZK0YUrWOGYyDzmFbygCka6ro++LGMgYSeNUXDBmMlE5hW+wIoOvs6RkIxJJS9pPCj2zwEGiEP7+ucBUzLviElcYhMB8MQeAmAE5uzf6SQ4/5MCRAJ2yggDNrOZzSuMgRmwW+BKElAL2MHCCwMlqDbNAA3YxWEm48TkLV5QNg4IEIk2aAD/2qk8GwjEeKfjwDyfWEAAYICHZctALfkpkzY4dAsSzakVuiCL12XDpCrJA+xYkQWdSvQLCOWdCmSS0QbYAhMxsIEt9kZFF2jgErdo5xMpUT3lXUIHnWRlSwHgiFvoIAadDCFNXYIBY7xOFjg1qkS5sIzX/SKCGCkAXhnSAUG6zhVFlStBv1BR19lCrS3JKAA4kL8oCjAD66TiUgEQCL0JZH63mN8e6HmLsTpgEP2rxWTX+hKhuk4aXxBsTsPgTHteJAGUgMNeE3KI1/8xI66qzaYZvNkNoMKkhQJRG0EIgIHMATcBLXRABAtgP+AKxAHFJS1MHJA917EhorlVJinsiliK6KAbwZBtQjTg122cIbsEvQIrXlcL+0m3RzV4HTRwi15kdkEarxutRRLQC9eFd7YDgcPrlIGF+mYTDIy0xkzf26JBvA4VBi7oel13B41895viJQgmXreGCCfzCj11nQ4Y7KIC3MJ12yCDh5OJBvZqhL+6++9zoaeN1K74mKJ43SBI3CLqorjDN7bCF7xZjBi44MhITrKSl6xkB+/uvxjwKzS0EGQrkOF1tuBxggqggRjA4RKv24YXqnxf7Zn5zGYOhpO7wQzsRnj/yNNzr5atkwAO2OAOnYQi9LohDSoHucxoDrSgddfmKsO5G79w7pxz44I9NDaf/duzNOjrYS84c9CYjl4wXveMAgc5DK/z5KKr44I8Q/oWrHOdNsBQZTG8rhqUiLWsZ03rWtfaF9Jb3gaCKY0uVLnFrpPiqK0zgkic+hZ+7YYaqjwKHWuEACTU3fLMZoATd2MbZajyKl5X4WFfxwanDmY3YuFm9GZBGa8bcUY8gA3YTZsggXgdK8qd3S0Uthv79HZyRmCLU/+i3d3QRhhuXAZvUkOAGIF2qENpEBe8rtc3VsM3Aaxv3JTz1I5+HSw8beAszOJ1V8QIu7vx7oMkYM+r/6C3YLfQjNdttuK6oeCx+4eBGIRZFCrX6RVK8TprjCAjBDA2wxViUxSjIcLqfR01NADz3HBgnVCUA+j6B78CgFnVaMh5etfA2x1nxAEcbUgCrM1nFaP3CqTgxuvk0HTc6ADSo3spzQWyAbeqeg1a1+YoePsLhKdkBMmWxhnyfswsnIK3t2hA21uTgLyZ8xJ+79/LBRKDZG+DFb6W6xdeAbtq5FslbbDgtVVB6fSGIcSuM8YlF18aDTya6sAFLdMJogOAnzYVAiVoFsawiktXo3ouETDsolGKL7g5C2RwxaWN8XPWk6YGkPZtgAFxkBqIG8XOcAUp2MCGUrwCGrx1Xf8xPt+SNiRb1cxoxfbZYApYgF93v2in8zlTAFKaExMLHkgM8j+Qp2e6G5gwezGhAriWaYPgd/MnGSOUT4HQXQLRNgmRADuwZ2eGC79TEw0AB9WFZrYQA3KWgJChPPm0AxfRADZACdcHO8bAVQ4oEw5ARCn4TYPgAooGgoeBROZUC8ijEQ7gATogB3uwB3GAAx1AcThBAA8wAjoUhHBgAxygeDY4GZ+VT4NghFG4eB7Qb+bkWleYgBcHReTXhYuXAKBlTpQAAWKYgE+XT3LwgWnYdG+XT8D3hotnAJgFRZBHh6yXAa+XWTWoh8M2deYkfYCob/WXT7TAf4U4agtoTg3/uIgw5wJaCEVjBYnehoNQVAvyZ4nDNoXmVIWcKBIF0IJAkTak6BMEoFx/aBBZmE9cGIoagQFtQAkb2A3UUAtysIM8oTqXcH7dAGu04xOOQ4HiBwgx8IdfqE+wyBEwYAtoZgxvsIowoQK0EGiUoIs20QBy4IvRkw2AgIAJIAj5RAkIuIwWsQFkF2jVgAM2UTqZRglQSBNuYHuClgdzwwGZkE934IbmOBHCFz3YwI2vcwmnmBIxIHq6gw3VgJCd13wx4QDpqDvVQI8xJohQNIf9aBFr9jq7YAcyEAIfEJIsAAWVQJF3FRP/+DrG4Ac0IAIh+QEksASEYHewQ4gsoQEp/1gNj8AEK/CSIjADeFCAsNM7UIQJ5ZiRE7GR3WAJLfCSTumTekCPxRCPLJGSiLYET5mVTECTroORK4EB1dB5duCSWfmSMuCM8OeHSHkRKVkNWFmWWckC/RVqLuFwsNMHcJmVIUAIuqOIJmEAtZgJJJCXTzkH9JgNr7iWEsEBKsgChKmXlQA73aYSDWB72cAEj5mVdaCCLbGRhJCZTykDYUmXilkRe1YNjgmaT5kJsHOUFuGQC7GRmKmaTmkHkqkRsMkQIwA7j0CbTikD9KhuGYEBBdmFNvc6NOCbTikCNBkJHJE3+nUQGAA7n6mcLxmZr1OcDQGdDkF2vwAC1hmSc/8AO9TAjxPhAHCjnSBIdpUQni/JBLBjhec5PdFJEHugkmQZnitge5VYEQ5AnwvBmK8jA+4ZkrsAO+80nBmQnoA4na+TmgW6Z27wnKFWnwCQbHZQoCHpB9+kEYBQoQlxn66TCRr6ATQAO5iwEei5oAz6hhfWDbtQoh9gm65DCxzxn+6mXwLaDdmQn+7JArCjnguBoyBqEJvmOrOpoVxpnhOBASy6oMSZhmuGBzIKpK6DDR3xodI2WUUHozL6ATTplRWhpTlKEAkAOz7qnnz5Oh5AAG5aAHAap3JaAAZQp3VaNniKp076pFAqpN5Gdskpo6PZDXcAB4Z6qIiaqIq6qPH/Fj23oAJy8DrVWaLYCYCLeqmYaqiNujuPKhA7+gtfOp6vAwd8WqqmeqqoCqVUiTA3kAuu+qqwGquyOqu0WquuCjsQqqHA8H+8amYZKqNr2qu8ag26oAuvQ6IyeqLclqrM2qylGl0J06q2Oq3UWq2w05MyKpTCuq3dUAdfyqHcOqzH+qXK6jp54Kzoyqzy2XR7RqAyypXhOmi2R6UyWgjximm34AK76ToxKqNLADtyADdqM7AEW7AGiwEQsEkPsKeluq5tt2FIKqMhADuZWrGXuqnS5gL/CAlfeqCuE1sWG7IY62775KC2+KV4ADthWBEMy6IOu3h3IKnJ+jrFkKWc/7pPNqCSMgoCtreJF0GmoUZ+oper7smar4OGGZEAfPqyrGeXJ1ui9uo6gnCjGWumsOOuBfqvr8ODVWsQENsNelCiIiB6xrARDOsATAqCBJBsUKChJGB7KzumQXsQc9kN7amhHtsNzpkRZJqvCfGixgCeBZqyLvdiC4q2i0imxgCS7hm1tki1JGehAvGi3YC11qm1rhO3EYGjnaoQCTCvBbqfsCOAF4EBD5C2XWiy3VAI7qkEsNOfP9u5CjGowJCmqrkC4vYLHiq7C2FaPGq5vmm0wfZs0viGvtsN9OqbwNmhHOGzChFfxyq4tCkC2uq8FWG9njuoxkC0oBmsruOapf/ZEAVwpK7DB75JA/SIjSnxtTBqu3m5AhTodStxnKkHvIQJApCgO4kZvg+RAfS4C9yrl+D6OrCLEgnAlcaQA6DJBINKcqUFO9mAB9KblzKgrd0gbPxLER7AkJBgvyG5AniQgpPZEhiQgruwBBP8kiEABRb8C34KEkppDGMJlzRQqeyFuhkcoA2cepWgB3VAB3hQCBbsOgW8EhBAjN2ADZngB3YwB3ZACLtAkST3wiFxvK/TC4RgB3RgB35gCTHYDZSAwzk8pOwraNSQmy9RAEopaJMnE5XHq0U8xhIRA7VoZtggB8XLEiOAxNpjC6tXE42HaZGAhgOgAEEjxxRRagz/6W5tAIE54QL/pD3YIAjqm41wQL7Rcw2cYAQ+AARAIARCMBqInHAdkECAEAh50AYuQMUvMQJtcAeHgAmDIAdtUMk74QA2AAecwAu8cCWKwCh3ESejnDQv9DNDoD7DbDILYzPUkcw7AyROEzPOfDJTUjWTNM0nYxdb4wPYbDIDABhbQwQy1M35As2BsQkEwxjEQ875QgFsERhJ4AkmQhzsrC+gcRlUkA3IIDJcU8/o8s347CCL0A04cxlA4M/XQiyX8QnJcA3E4ARJMiOM0QMIHSzasi1WQQXJIAXxUQU3giyCsc4VDSn33BZVQAxVQAVVcA3H0AmIcAz8TASOMdKh/8Ivd5EE7XYox3ANi3AMn3AZPIDMNB0ly9wWUoAmnkAEThAKx3AojDHOQy0nEtA0YtEEm6AITwAhjZAISMDPQ+A5UR0oYXPTx3Aqw7EJ3ZAMTcAYQCDSYT0mxcwYVHANjbDT/fEE0yIWPSDUb90iRW0VDeIgn3AMmxAfotHXc2LObcEtyZANI1IFDF3QdzEE+ILYY1LNgfEHG00M3aAIVOAJIN0WKmLZZKLN+MwIoYDa2SDRgeEDFkPaUALQjKEJ1xAKSfAE2IAIxGAjR8PXsP0jVC0WUtAdtZ0E+yEhjCHNv90ikhIj+8ELR1AF2cAISJDXVjHay90jJX0XHC0MvJ2QDSeiCMPAz12T3S1SAaHBC93wMKFwDUfCz2Nj3i6yOXfBMrxQ3cMg2XchJvLdI+gj19jQCazCGEEA1v3dIsuhGoqgJwVzyAfOISmDIvwc1A8OJQcQ3CgC1RXeIgzwzjbz1RtOJujNOW4d4j5i2pex1yY+J+DMGKK84nISPJNd2TAuJwswKWKB3TUeKFNtFT3w2jsuKAPAAA7ejwEBACH5BAAPAAAALPQAIQG0AaMAhyBQgCNXiCVaiyhWhCxZhi5biCZekChfkDJdiSdgkSlikytmmC1qnDZgizpkjj1mkD9okS9uoS9wojBuoTBypDN2qTR5rDZ+sUBnkUNqkkhulUpwlkxymFF1mlV4nFl7nkR2rUd4rkh5rkt7sF5+oFB/sjeAsjiCtTqFuTuIvT6MwT+QxF6AolSBs1mFtV6Jt2KCo2eHqGiIp2yKqWOMumiPvG2TvXGOrHSRrXiSq3eTsHOXv3qVsX6Ys0COw0CRxkKUyUSZzUWc0kif1Ueg1Uig1kqk2k+o3FCn21Op3Fus3XOXwHWZwHqcw26ozWCn0mCv3mOw3mmz336gxGez4Gy04HG24HW44Xy84tkpL9ksMtkwNto1O9s5P9s9Q9xBRtxESt1JTt5MUt9RV95UWt9YXeBVW+BZXuBdYuFiZuFma+JpbeJscONzd+N1eeR5feV+goKctYaeuIaguIqiupCmvZKovp6suqGvvKOwvYOjx4elyIinyIypypWqwJKtzJmuwpaxzp2wxJu0z5ey0Jy20YG+46GzxaO1yKa4yai0wKu7zKO606i+1rC/zoXB5IvC5JLF5ZbI5prJ5p3L6KvA16zB2LHAz7TD0bPF2rfI3LjG1L3J1b3M3aLO6KbQ6avS6bLV6rbY67jX67rZ6+WBheaFiueKjuaNkeiOkueRlOeUmOiTl+iVmeiZnemeoumipeqprOuusey0tu22ue26vO6/wMDL18LN2cXQ28nT3NHR0dvb28TR4cHc7MzW4c7Y49Pb49Td6Nje5cfg7szh7tHk79rg5tzi6dTl8Njn8Nvp8e7Bw+7GyO/LzfDLzfDS1PHb3OHm6uXp7ens7uPs8uvu8O3w8vLj4/Pn6PPr6/Tv8PT09AAAAAAAAAAAAAAAAAAAAAAAAAAAAAAAAAAAAAAAAAAAAAAAAAAAAAAAAAAAAAAAAAAAAAAAAAAAAAAAAAAAAAAAAAAAAAAAAAAAAAAAAAAAAAAAAAAAAAAAAAAAAAAAAAAAAAAAAAAAAAj/AAEIHEiwoMGDCBMqXMiwocOHECNKnEixosWLGDNq3Mixo8ePIEOKHEmypMmTKFOqXMmypcuXMGPKnEmzps2bOHPq3Mmzp8+fQIMKHUq0qNGjSJMqXcq0KUkBApxKnUq1asgTRIZcsMq1q9evBQWsMELWSAWwaNOqNbogSFmyRBisnUu3Lk0KQt6WDWLArt+/gEWe0Kv3R4DAiBMrfihABWHCKBZLnixZAZDHjy1Q3syZ7oS8mAnH7Uy6tNULRUJjFqLAtOvXRwWkUK0aSFTYuHPvtIzZSqhQUlSn0E28uEwGoAlLWQYqWTIlqjUbn07dpIXUmCUVg5TMUyTVP6qL/x/PMQCK0JRAQbpWrAooX8LJy58v0cAPzEpIVYukhFi1YtVgERoQfdFn4IEHIYdfEr5wI6ASkXhSRWgq3IbghQdWgB1hViyDhRLJFJMEbUZsheGJ9A32GBJGMLhMFFZUE4pqQ1CA4o3jCeADYSMa8ZsRUCgjIhaGhBbEAjgmOV1bhGFRDBZVPHKNJEZQwo0nqvlgoZJcwobXY1RUc80nRnhyTSjLeAIdZid06SZsJ2yolxXWcENmEp4oA0qPhBVx1puAdtYYfo9YUYUk10xiSBJ8EiaEXIFGOhlvj1WxzDIBGgEKN8pEEdoPBUoqKmISJEeYKKRgYU01UhxRxZqPof9w2Ki0/nWdapNEst0yIoZWhHS1BjuXbG8h0WN+zCkhSTKQFFPkapAKKy1alJYVyihk+ULKJFNeUU2mmAHR2rTkeqXgW1DsF0UUy0xSjCehVMFoaClsWe69Ut2qFxK+VONhMddAgkU1E4ZmIr4IO3UeZps+56011pC52gQJV8zUwphdEUk1oBihhCEFPyauxSQjJYCpmEVyzXeqVVjyy0ZdRiIooTSqlwkcIYAAzDybdB+JNNq4UR2bHNLz0SEJ4BbQmB3JEQubAMICRA8kMjXSWCdkAMpMk6VlRzpswkFEJGwCQ9ZoG7RA14S12VEPi2yCCB0ANEAHJovwMIBAMyz/gskhY+OAySaL0D2DIBnULUgOAGggyAxy+AHAADwscgkdO6c9LQVsl+XnRzjELUgcAyyyyA1xbNIDAB9EHTomBdyQCOF087CJBgA4sAndHWwyeCIA3N2D4EYzdMfxyCev/PLMN+/889BHL/301Fdv/fXYZ6/99tx3370TnRvxaEi2jw31DQ44gAgmucNAAAFziA1A2WcDYDvuuvNOuAO5b1JH+qlL3EK8R8ACGvCACEygAp2Hh0MoQhGHwMMCJ5gHB0JQgsx7Qud+cACRlA8AYduECEXYAALEIW6D68D8zCaQ+/VPf6sDQO9GKEISaE4oA8hA5XIRjGMcIxi4yJsG//amEwJsAG48PMYwgIgIHAhwIDJjGgrs5ZEPwmATLHjfBvhnuxkgAAebUGHZYtDCTXwAABzYnQw3gQOBZEB178vAE2/YEwLMYBPU4IYe98hHamxiBgW4yRdxUSc+GnIal3AfAE7GtF+V5IMNwBsMZoAJRAQPixmYnQrTiIizlQ0RMziEGnvXRoEIAhMzgMEhMJE5Ou6EBLgwpCwNeQsb0gQGupilLrmBiQ4o4AdACALX3jK+R8oPjXGT2wMAkAEU0mETHhCIHYomkGfubpRsHIgDACHCRUTTlTopAB3yaEhtYCMa0cCGNmRJDToQICYIEEQh+WhOdGJjltOIQyAHEv8AAShAAV8ywshOQkRt8m8gORRIQQGAgHcKpAENmBxCDdKAOYJTkIswZDaYYQo0iAEMYBADGkzBjHXycRGtZInuDImNWpTCoyAVQxpQ0QyT7lEQDjWIAi5gASpeFEEIyOgetRELMmghC0hNKlK1YIZY2JQbjtjnShzACT5i4xViOKpSk7oFNMziqYJY6E/fBAg+QkMNWt3qVrWgBmjwURAsIYBQ9egMNKRVrVx1QzT4SLexAmoG19gjM8KA18JmIQzM2KM1ZrCSOPCxFl4wLF7J4FY9UsOWfuVSB4KxR2eAQbKFBYMz9hiMiGJkAClVSAaksUdbRBa0ah3DXvWYi5z/ZhZBOYRBHE7JWT1i4wywLWwZ7qnHvl4kqDxI7UEEscdoiCG4eF2DTW9wW/oggAOQWx8NOUFObqjirtBdKipIq9yJ8IAbukhuQh7AWj3CIbxq1QIs9piL6o6HBHRIJg1pmEs9RuOz8N3qF2Z7jfodt7fpLS8O9ggNLgR4q2LIhmVVaN/qfAAR+93vMfYIiwevdb56BIRGzrvHBBdkrqjwsFK1QIs9xqHC4/GAIDK8CU5MY49rULFS1UBfjSCgtyVWL0N7qw3g6hipcNjjImBMHhlkmBOFxMZzj3xYkyLDAxzIspa3zOUuc5m5skzwA27MjWi89shmKDGTxeOBS2QY/xeBLfOZdeyF2e7yznjW5S/8wGDwehgMJg2GbdesG8HROJb+nbOK65znRjtaltDw84PBIGFuDGPQhH4NAvyw38GJ0Mb+/QKVszDgR5v6zu3lBjS2MOowBFqsmTYNB/QrwjhcUYR+AIYetUGGUYthG3q0hi6GTexiG/vYx97wLIdBBw+0FxsAPjIaehxr2FCShpg4m+5EmAFM7PENo3bDHjmxkUPIktn8I0B/taGGUadij5astmkIQDQaJuKJg6MbHfZIC0mHVwuz2KNxL7IBMusR3QQxtx47fGQuNGOP1JU3aZq5X3cShJuJ40CcsdFrHY/BpNSgMEYUbmk6HJQgMP9obrQ9nIY9SsOiEpcMDDwtQlQahAd2EAgBOrFHWfgbtluQxR5xoZGCl/zkBfnxHl3xc9ByIbF6dETMNzOA+NFwETAHAAtwx7ehvqHphdWCG4DNjWswNiOHQLhCHLvrdj9YC6fY42WnPpkHYJiGfigvAGxLgKr6Fq3w1UIaiMsNTmB6Ig3oAdITgoD+ltkMARa7TZdM98WQgOYiLKVDOpBqbLAB7EnVAhsILw2RowQG3Y2GXaGrhTfYNBhZr7xderDfRZjeITiYpzZaoWi8emEVNrWG5lWy7z1iwxRdgC0YYGHTaRhY9n9pwIxpCAi9MyQOcdYjNEwBBj9rAQylqGz/sAeukgGUlY/PeEP34ysGVNiZG9QYPvTt0gFab4IHF+lBd31bC1a4QQ1q4AasUAuEp0f5BBMDQAfz5F+0oAptAIBv4ArMUIDcIA0RN39+YWgjhAlnhBEwoGunBgzP9xIzMAynxg258E0YWBebtl+HsHgW4QB1gAyOhgx1YFozAQGCkGp4NgxyYH0r+BUbYH9y8BEZEAe6YHCHpAtyEHsxkQF0oAv7x0fTgAs8AINBmBbXtoEj2BEDsAEzUAd+gzd1MAMbAGs3QQAcgAN2MIaFMwNOmIVfQQDWNEL3JodymEkVd3h4WHkzh21n14cYOAByUHtcJ4jzpz77lXeIiIGX/7df8teIdEd7V3d7khhzDcBNNCQIOHiJJUEAQOgTCJABocgTA5A+fGgQ9bdfMeSJInGEmKBseiQNuGAHKrgTDpA6UzgNmNADpSgTMAAIQLZHx3AIM8CHGlhzmOWKHyEDuZBnyDAHqQgTLHALjYYJt1gTDWAHUzhL13AIc9SCNPSCzAgSHOB4jTYNOmATGeB3j4YJnSgTcrCAjQYI7zSE+zUHaFiOGFF8s2QN3bhHm/CLJgFYumQN05B9h7SML+EA6HhI9MhHw7CFNdeF/JgRc7VHvdAHNCACIPCRLjAFmUCPwYCFxCdLyFAINjACHwkCJcAEjECDhhSJK7EBPMgN0/9QCU3QAi05AjXwByDYR1cXhxdJERnJDZrwAi25lD0ZCAt4DPF4knwUDEzAlFbZBDK5R4HIEhmghNPQByxplS1JA89oSLiwO9NYlBPhjzhZlWJplS7wC3ykCy6RcnxECG9plSLACIY0NixRALLIDZ1QAnnJlHqwgNbwYmrJER3AR8jgAoWpl5nAR5KzEg0wT9fQBJFplXzgmC2RkYywmUxJA0pIlxqxj54IZNMAmaLJlDy3R0RJNg6RkZrZmkvZB5SpEQy5ECTAR5Vgm0tJAwuIfxlBAB5gko04A3xkA8C5lCOQlZfAEYegC1eTEBnAR6HZnC05mXtEkAsxndW5EI7/FwwhoJ0fqQd8JA2oGREaQAIfgJx96HiZYJ4t2QR8BJ8R4QB6RJ0JAWbcgAxhaZ4tME+KeRH6iV7heRCNuUc0QJ8f2Qt8dIEXQQAkUKEfsEyXeJ17xJoOCmRFWG4llqAC0V194KAfWQh7NAwaQXL8iRD+2QkmCgI2wEfkphHtWaHuiaGISGLc0AsxCgK4qUe3wBEHGqIEsaBlF6D06QJ85J0KUaT7KaIAYIJ6VJsmmpXcsJ4QMQA4iqMfgAGIOFd/8KNMGmwdQXJGCgBs16M/CgJZuZUWgaZRShAIwEdKSp98uUckQAAF0Kc686d/ClGC2gDpU6iG6gFd6qWxOXWO/8ecP2pwfkAHkjqplFqplnqpiKBL1GkHe5SdMcqdhXepojqqkpqps9SiSBoMbYqeewQIifqqsBqrsmqhizoqObALuJqrurqrvNqrvvqruMpHHGqiwnCCxnpnJfqjeXqsxkoNvMALewSjPzqj8Dar1nqtr/oBUlUutwqs3vqt4MpHPPmjQcms5soNfNCmKHquzRqtbUqtepQI2Dqv1poBWipxQNagP4ql7Ppo8zSmP9oI/WpqugADvalHPvqjTPBWXfoBDvuwDusBEiuxHVCxFmuxHICosDpEeOiOVuqgIsBXpDqymKqpMOCPltCmEKpHmECyLksHphpm9aOhFdimf//ARxZJER/wqhzbh3ymR57qoPB6DGcqswKxYHqEDD8aAvPUgSNntASRfcNKn6+pRxCgEQ6QqBuQltBnlzUbowIbr0RqSAVLp3ykrw66sHuEtWRrke4YCDE6AtmHDBuxsxW6tZc4AN01BSZaAvOUsxTBohYpl3o0nya6stwQnWhXYoDLo8hQng56szeFtRXKAVwbhCSHDB5Jn2FbgWOLoAnBo9yAttqptnoEuBBxoC3KeP/qoAPKRxugEVi2rZ5Is9zQCPS5BHxUoGi3uglhcMJwp63ZAqkWDCvquwpxfmVHusBZtdywCRoBimqpvNwAsMApnCnaEU67EDfAR50Aubb/OQLlur0WQb4LgQAG95jauax6VKuL2RAEQKV6NAjAaQMLmI0o4Y49Krx52QLDSHkroZx7hAzMW5ghYAmGRH7vexEasIC9MLViKQLr6mIugQBYigw7IJpNUJovQb3X8Afgm5c0UK7Pu8Daq5DcYAkF/JEt8Ac3WZkusVqG1AtMEMItKQJTQMLB4KQgcZTIAJZvaQOgOnT3asIR0QFKmLSZEAh8sAd/0AgkrEe86xIQMIzB1gmF0Ad60AeM0AsRqQs8HBLUu0e/wAh9sAd9UAiacJMsW8RGnJ/662jSsJsuIVfGClc0MQMBmWdT/MYcMQOBeWfWYAeXqxIkYMV3lguW/whPcopnl3C1ECEACeBTfowQM4fCc6lPOwEDlyDIiYC/2kgH8jtL0gAIWVcBP+ADFUABFXABKKACwSQEshwtldwQA+ABPOAHh4AIgGBrYfwSJBAHfuAInLAIdhAHoKwTDoADdLBKlUQHPBB7g0IiQkDJtXw01UIbKnDNNxQBw4QZf8LNWaMvQFME4yLOR0MsbAME6Iw02cw0B9POL3MunUPL8mwxFkAEj6EEnmAzbxEE1nzP5IIxenEFpLAMsAIZAm0x9hEansANHWMwC50wDLA0epEEWGAFSuALL0IvE40vFTAEjxEFxaAM1eAJUqAMvuDPZAEsHy0tKvIYnuALWP+QDKAQBVfgCwldFrbx0tIyzW/hCaDwIaCgDMYACaHQMSztMj4dLAsQRW8BCdwQIFhwDb4gCdUACZgRz009KgFFGJRwDdYgIM1iDJJwBIRRI10dLKjxGFfgCVBy0IZwBfNCGE6z1qMC1HqBBcsgClYAJABDCpjB1HgtKe8c1O+yDMQQBUpgBSztNoUtKd68z49QBVVQDMUwCcug1Y/xOZEtKeT8FlWQDJiCBUkQCWgSMsRkz5/dJer8GKFACoZgDctQBZEACqpdFqDS2oFy2G+RK8WwMb0SKwHN2ydCz2+BLJGQBMvSLI/Q2S5t3FyiIZgxCclACtbwCN7iIY9RTNKyzSUCQNBvYQjKsDJJAArVcAVKsNNkMVDfrSQC8DNNct3L8BwMgiWPUS/v3SWOMdL+ogSWQgqM4s+OtN9cogCqsR7fUdOe4igUY+AHThvo/SAic84QniQCANU8QgoRTRiEfeFKwgBywiMszdUgriQV0DlqfeKAEtMkctcs/iYBsCMk8uEx7iZKQxuQfeOBsgDf7Nk8LimcY9esHeSAcgGFESpGLioYM0VLHiwKMAEWjogBAQAh+QQADwAAACz0ACcBtAGdAIcgUIAkV4glWosoVoQsWYYuW4gnX5AoX5AxXYkpYpQrZpgtapw1YIs6Y44waJg9ZpA/aJAubqAwbqExcqQzdqk1eq02fbE4f7NCapJIbpVKcJZNcphRdppVeZxYe55Edq1HeK5Iea5Le7BcfqBQf7I4gbU6hbk8ib0+jME/kMVegKFUgbNZhbVeibdjg6Roh6Zoh6hoiKdriqljjLpoj7xtk71xjqt0ka54kqx2k7Bzl795lbB+mbR+m7hAkcVBlcpDmM1GndJIntRHoNVIodZKpNpPqNtQptpTqdxbrN1zl8B1mcB6nMNgr95ksd5ost9+oMRlseBstOBxtuB1uOF7u+LZKS/ZLDLaMDbaNTvbOD/bPELcQEbcRErdSU7eTFLeUFXeU1jfW2DgVFrgWl7gW2HhYWbhZWriaW7ia3Djc3fkdnvkeX3kfYKCnLWGnriInLCGoLiKorqQp72SqL6Do8eHpciIp8iMqcqVqsCSrcyZrsKWsc6csMSbtM+XstCcttGAvuOgs8ajtcinucqru8yjutOovtawv86FwOOLw+SSxuWWyOabyuacy+irwNeswdixwM+0wtGzxdq3yNy5xtS9yda9zN6hzeir0um01uq82uzlgoblhYnmi47mjZHnkZTolZnpm57pnqLqoaXqpqnrrrHssrTtu73AzNfCzdnF0dzJ09zR0dHb29vE0eHD3e3M1uHO2OXU2+PU3ejY3uXH4O7L4e7T5e/a4Obc4+nU5fDY5/Db6PDvxsjvysvwz9Dw0tPw1tjx29zy3+Di5url6e3p7O7j7PLr7vDt8PLy4+Tz6+v09PQAAAAAAAAAAAAAAAAAAAAAAAAAAAAAAAAAAAAAAAAAAAAAAAAAAAAAAAAAAAAAAAAAAAAAAAAAAAAAAAAAAAAAAAAAAAAAAAAAAAAAAAAAAAAAAAAAAAAAAAAAAAAAAAAAAAAAAAAAAAAAAAAAAAAAAAAAAAAAAAAAAAAAAAAAAAAAAAAAAAAAAAAAAAAAAAAAAAAAAAAI/wABCBxIsKDBgwgTKlzIsKHDhxAjSpxIsaLFixgzatzIsaPHjyBDihxJsqTJkyhTqlzJsqXLlzBjypxJs6bNmzhz6tzJs6fPn0CDCh1KtKjRo0iTKl3KtKnTp1CjSp1KtarVq1IXoDiRAKvXr2CTWihCFoiAsGjTqrUp4ATZtykCrJ1Lty7JBD/e6jVht6/fvxMXBNFLmALgw4gTA6hAuDGRBYojS0bbtrHlIAcma94s1UBey5Z/nOVMurRRwaBTnzDNunVPCqljF6ngurZtmSZAI6kyRTbk28CDlxTgA3SSW8iUZTKSOkhX4dCja0wAJLUjWFJwZZISm6/07+AhTv8gAjoQlUy9dinKpCn26vDw4xsskToRMkxUksFihExR6sfyBQifACik5kRyTRQRCC69MMLcZb8JKCF01IHmRCZIKKJMI7KR5cNoE4Z42wSDgTYFMhhiokwVsnkn4ouujQUaI1QUoeEiSGzCIWhE0Abjj6VVRpgUOOaIjBNFbLJibEFECOSTkuFlWSLK9IJJErvsQsUtsNQI2g/PQSlmYqhZVoUyzbAoRS/N4JKEaiCOKadfjOnmRCO37NIEEklUgURqFswpaF9CNpaEkpsk4UQvyOzyJmhBRDDopHN5lpomtjCijCZISJEJi1+GSemoX5UJ2i2LwKLkjqmhECepsFb/BZtlRySCyRRJXLcmhqmVMBEBBMQqbFC56bWIf0Wgd0syVTSSTC+L/DfBRDz0Icew2O5EHGEH4nggFZrAskgSigSSGhCiPtRBH250AFEDc7ib7bwiKVAdYUkgs0mXyPSSCRVHxvYhRTL0gUFEHPThAb0MezQeaJo0AwsSmWy6y8S9ViRDHtbuAAACO+yRhwwDjUCHtQe70EcfdHisghwNfCwHyRjI4cINbgAwwMZ77IBAw0APVCdomSxLxRGLbHIlj9NW5MLJctgwwBx5uGBDHyRvwO7TexDgghws3wBAwQcz0IfYGaxsLQA7YO3CHtcyBMfcdNdt991456333nz3/+3334AHLvjghBdu+OGIJ544D0fIhgQsvSDJpJMEGwzAui4wwADYADAwArA3WJ7wwmNbbjbaLP9s9g6ah37wQorHLvvstNdu++245047D+TJlkQv7aU2MEZkl672yggQYAPHK2cAwOgCFX86AGmTDIAGx6/MQdBAfyabE49a5iLxlnvQRwfAYhBzwSoUoLLzCY8QfR8bAIDB2dT34YJADWAN7AOv4x69BFCiDqXGRxopHgL2QIcOjABubDvfA8DmvPvJwV0JsxnYULc/gchhDy7owAcLIEB6JWAIBoQU5cj3OgyczFoxewDH9hC6+gGgWnFrWx/a5rG0dfBjblhZHv9sWMJsLSCFoUmXRgZQkAbEjCBPZOJACCDFj/2silUcCAKeWMR5zQqJbznBq7pIxp0UC4yzKeOgCoAABBQgiz8ZABvdmJDigDFSahxTA2Swh0qwYhazYIUlBGEDCPTkATYQhCViAUhWVGIPMuCiQApoQDDlcUIN4IAMtieQAXigEMZohihHScpjSMIFwbKJ1yRxDFK6shnGKIQHmHgASsrGVZeEzwAw0AEZxEFteyAhADYgiVcac5SWkNdMOmCJYx4zEhtYQO865KtcRocAGBjBDcCWvZWRbAA7COUrmbGMZTDDmMeQQypfQgA5JMOY5DSnMY3RAwcoYAERmAAFKmD/gRLYsQhCaJo1gcOBHbywm8fbQ/L24Epm/CIUaBiDF7wQhjN84hfnJGUhfuYSBBSiob/4xBnCMNEwoCEUwMjoKLuGkBIEwZIDFQ4HuIlQtUmtD6RkBirMcAUr+PSnPr0CGU6h0mZIQpgrQUAkcnoKMvQUqD/FwhlQUdQ+xDREGqApQjdHymGs4alQheoV0CAMUlqVJTgdpTDQANaw/vQKayAGKeN2VQmNoKY2GME7RRmMMLj1r1bwgi9GqQwbrMQGpPRFFwDr1jAEY5THkF9dA6QB5nUTA6wY5TC+wNi/duEXo6yFJC2C1IU0IBej/AUXOutWMAxjlKxY52TBA4Oa/57tBqNkxhlY+9cwLGOUdCVtIWxQWoTIYZTL8Ctvw3oGlYpttt8pQBBti9lRkqKtyw3qJ0aZC45eBLesIG5CEIBaUXoiu2G9AilgC13pYMCyK7vBula2Aw4gl7PoheoWXivKGGQEAbMQZXiLKxAXaHYL+YWqFzJ6DGW29zYqS6i7+reyCY7yFAkWqyhGKQiN4Ba24iWIIEYpigwD9QqnAO6Db0OAah0PZgPZww4BUExRrsHEQDXDKGehEQC7csACIUBmm8EMM+D4p2sYZSVWXJsHzCF7O8jiG/rwgALEQpTMUO6RuZDRYmwAA2AOs5jHTOYxz8GYA0ZAMUS5jMUe2f8KX9gxk1tjvuxJliAy4MHHdMHm1b5ZC/x1pqAHfUxWxEGz2M3wFjKqC9nOeTIDyEH26BBAgnTgYGpmM4LfnIXHEvrToHblMBKd4C38thnF8O6jJdMArfaBB46eokDIy2Y3HxnQoc61oFspSmJk4c1W4LIodQHHVSOGAzI+3g8VImQskwHYXVApIKdN7Wpb+9prNmYxFMbnZrQZ2GGQs7EjU7Dj5aHSC0HEKNsAbDSwVyN0eOW2D0YAVYwSDcDmxCglMe7EIOCXx3ODqhnihlGigtTZvUIpVqqRB2RblPMmCENFWYo3YwEVo9RzvwFT2exZDyIZQBORtZzhLpw6GSr/gPcoI16QESDX1hkOA4M1sPG/RBiYRITIAJopylMgnLVXGMWOiz0Rh6PacgcpQIBFOYqfdxYLKRZlKmreF+lmTw4McFpu2eB0wDZ3lB7LyBxYnpAd5Ha3Cb4CGwi7bKqr5b3Ze25FCFAJ5PI0v2EIdGz/Kwd0IwQBQ27GMEjO2yuY4dTNWLLb53Lzle3BwRXZwMOXwdblXqEMgY7sSvSqVjF0/a1oQHwxaL74tBBAh2qDsUZsIHIig2LTjM0CJxDfjOCm5LjI5cSvO7sFUKg0GXIvPVicDGWiW6TgpAxGG7iQ6CtsQQ2gJeUeXjLx1KphC83nQhs8LUplxEH4aKnz//FS/hE38Bq5p/BEGspABjR0whSBFmUy6ACTAdBhr5o1RSfQQIYypMETp0B7zXAMOQN+XzEAoXM8lCYSLrB0uZYLhiUTNtBtuTYLbWeAVdFq2eMGseYRDZAHDzdoxiAIhkQTGDAI4kRoxZAHWYeBWIFs2XOBIlEzs3B+rpQMs7AHpHcTGrAHNXhMxzALfeeCXlFuapMHzqMSA1BQfSAJqqAKkrBD6NMTBNABOyAITpgKkrAHObABxkeEUPFvGzhwYMgSBECGQoEAGICGQDEATtSBB5EB8IU1ZdgSGOAGklBeEKcKDeQTDeAGlWCDsCQJPMCGNvE2DshdgiADcNh4ff+wB5xUhykRA6tAaLoQB3AYEyqQCp8mCZBHEwxAB4JoTMogCJVmdS/WgpJ4EhsQeJ9mDDlgExjAc6EmCao4E2+Af6DGUi4Ud6t4e86UDKOoZIaoEjLQejdoDMhISsZwZzDRAK7oSsagi65UC474eL+IEh/lSq+ABzMQAh8QjiwABZNAjbMwWiyBe6SkC4BQAyIQjh9AAktgCBQ4SsHXEhoQgrD0CEywAvAoAjSgB7LwSsdQCKn3ANl4Ets4SpTQAvD4kP/IB7qYC7e4EuooSrOwBBC5kUxQj83wcSyBASkIS3jwjhsJjzNQia4UhVGWkCZxkcagkSe5kSxwZe/GEgb/Rkp/MJMbGQKG4Eo5lxIFoIfNcAkkwJMQWQe6mAyx6JIlYV+jpAssgJQ9OQmklAcswQD4pwxMQJUbeQfr2BIL2QyG4JUQOQMjyQobkYlO6YDGMJVmCZGXQEp+ZxHOqBBj2ZVx+ZB4cJUacZcL4XKj9Ah7+ZAzoIthhxEIIAN16ZIyQEo1UJgPKQIUGAkcIQisQH4JgQGkVJaSCY9WOUrF+BCYqZkLEXizAAKfGY51QErF8IURMQI7YAON+YuBNwmrCY9MQEroWBENIGCmWRBp1Qy6YJKruQL4V4AX8ZvNkJkLAZWiNAO5GY6vQEoRiBEFgAM7MJtJ6JKcOUpwOZ0O//gGlwlbwSkQ54cH0xmOgBBaGjFiwJkQw3kJ6/kBNUBKlrARHrCd22kDO/iLZidKr1CfH9CXUscRzGmeBAGdymCcuckCpDSaDpGg8WkQtTBKerme9QibEEEA2smfO3ADQVmGC6kHBAqh8tcR8ElKzgkAyNcMA0qgFAiSFrGiCqpFpOSgufmTo6QCbaQ5muNEQupEDwBAZRZmGSADIMqfIrqKgReZBJqCeSAHVFqlVnqlWJqlg1BoKhBvouSZ9RmazWAJWVqmZkqlW4pm5Aeds0CgH9Cao1QISzqndFqndrqdN8ABHDooONAKfvqngBqogjqohFqofkpK4bmetKBrjP9KaOpJoDzaqJJ6DK7gCqNEnwR6n6MUCXfaqZ46pzcgoXPSp4ZaqqZ6qqTkjwQ6kJLaqq50B27anq46qZfqppoqSpLwqbp6pzkwhWDogNIpo7MqqfhnogR6CMOqa6zgAoIJo266BBqVAzcwrdRqA9YqA9iardgaAzHwAi7wreCqpHOaAx7AlqVHixk6nSEwV2farlpaaF8zSpDgptWJq+56r3KQpq+0rALxnajmpnpASjJIETYwp5/zi3kwSmA6nbeaCyq6rx30YcRJoCCAf6SDETYqYG3Xeomam3M5SiWIERiwpCMgqsKXk/9an8gqSoSAoD+2bAhASsE6ndA6Shr/QaHNKYO0yAf1KQKtpwsbIa474KNOOQDnBwXrSQL4N7AUsaL8ahA22Qy4uZ712gyWmRFOy7QBSpyqOZ0BO0pnJbLb6QIm64IrqgvgmJsri2ou25znORBb2wwz+5k1K0pM+y4VOl7FOp3ISUr/aREykDlOWRD+2gyHkJtKQErKibUtqhApSAs6Gpcr8HA8xrhvexDVpwxzW5gfK0qKp5gVObgCUX3NYKyFeZjuyREXuxCIdaldu5ciwKqitLoWQbsLgQApKJWfGamiVJuimxEEcKGj5AeFWQO6+IknQYswGrk8uQKJWAgt8ZhRublICQKQ4Eq297sekQG6+Aode5Ih/yCro7S4KoEA9agLOmCWTJCW1EdKyqAHr8uTMyC7nqu9JOEBywgJ1BuOK6AH+oiVL4EB+vgKSxC/8BgCUEC/zTALZRsSY0mcJTmTNSCmo6QKe2q/GMEBIzlsk8AHd2AHenAICixK5NsSEJCI8ncJgIAHdYAHhvAK1NicDSwSpDtKsWAIeGAHeAAIlKCPuHrBGIwRDaC8oFYMgOkSBPDAoBa2MiEDw0hoJRzEIiEDRClo82euLDECKCxoqxCJNIEAGTtokRCyICEAZizFBOECkrCMLOoGBFYTLrBUwUgIyAuKciC8x1QMe+C7DxEBJ4ACE7AAE1ABJfDHPwAEQRAEAv+Fxp1khXkgCIOwB25AtkExAm6QB4hgCYVAB+0SFA2wTVgoCYMgBzvAxxBBHx1CBErEyANFICn0A6w8WxWSQtUUyzFFImC0QrasRjKCREGwy9ZUKEj0HsCsRlKCRkWwyMVcRBJgS2SBBI3wJ6AhBGO0zEEzNITxBJmADE8gPNZcRMJMGIzQDJvQHd8sQMdMGEdABbiyCQEDGilwzkFjKnpxKIySCVGAC7cQPoRRy/I8LxUwTWTxIIqgJbiwCVIgBbfQzY2BLv88LwJwRm+xCJpABU3gCL1wC43QCOUszYQBUw89LAfwT3pRBc2QDIogBcpwC4rAC6xCGGIU0tiyAPf/0hgaogyJUASJsAu8wCuE0SMyjS0U4MxF8ASNYB6agAxVQAV8chmSEtTCgsqN8QS9AAvmchwr7dF6AdJQPSquDBqLAC1cAj5VwM9hVM1dPSezTBi78QROkCfo4QipcQFpDSu4bCi3wCiBkCHoASqEoch1TSq93BiYcAsAgwxSoAib4Nd64dCBPSnhTBiL0Aiw0AjpYdZvgUuPPSjprBcUswuMgAT2UQW4gCOW4c+bLSfNDBqJ0AtKsghSgAzIEC2OYRipLSjYrBdTgByYYASYoNRNEAWWAQS6fNs/EtlkQQWwAAu8wAtJkCPB0xg+kBnGLSdSjS+8gAyKUtVI0N3ifCMX1T0mAoBCrL0hRUAFvdAbjoFA4S0mAiAbmJAMVw0h7S0oJN0YOVLOSVTfgqIARP0WTd0YMc3fgjIByMzeBD4nF+DLT53gk1IgHcLVDi4oAuA9oKHZE04pCfDfRUDXGQ4rEXAZyvzhlJLbjk3isSLVGI7isZIAgbx4AQEAIfkEAA8AAAAs9AAuAbQBlgCHIFCAI1aIJVqLKVaEK1iGLluIJ1+QKF+RMl2JKWOUK2aYLWqcNWCLOmSOMG2fPmaQPmiQLm6gMG6gMXKkMnaoNHqsNn2wOH6xQ2uTSG6VSnCWTXOYUXWaVXmcWHueRHatR3iuSHmuS3uwW32gUH+yN4CzOIK1OoW4PIm9Po3BP5DFSICsXoCiVIGzWYW1Xom3ZISlZ4eoaIemaIinbIupY4y6aI+8bZO9coylcY6rdJGteJKsd5Owc5e/epWwfZizQI7DQJHGQpXKRJnORp3SSJ/VR6DWSKHWSqTaT6jcUKfbUqjcW6zdc5fAdZnAepzDYK/eYrDeabPffqDEbLTgcLbgdLjhfLzi2Skv2Ssx2TA22jQ52zg+2z1C3EBG3ENJ3k1S3lJX31RZ31tg4FZb4Fle4F1i4GJm4WNo4mpu429z43B043V65Xt/5HyAgZu1hp64hqC4iqK6kKe+kqi+g6PHh6XIiKfIjKnKlKrAkq3Mma7ClrHOnrHFm7TPl7LQnLbRgb7joLPGpLbIp7nKrb3No7rTqL7WsL/OhcDkisLkkcXllMjmm8rmncvoq8DXrMHYscDPtMLRs8Xat8jcucbUvcnVvczeoc7optDorNLps9Xrttjru9ns5YSJ54uP5o6Q55KW6JKW6JSY6Jmc6aOl6qWo6qmr7LO27La47ry+7b7BwMvXws3YxdHbydLcz9jf0dHR29vbxNHhw93ty9bhztjkyN/t0trj1N3o2N7ly+Huz+Pw0uTv2uDm3OPp0+Tw2Ofw3Onx7sLE78fJ7sjK8MnL8M/Q8NPU8drb8t/g4ebq5ent6ezu4+zy6+7w7fDy8uLj8+vs9O/w9PT0AAAAAAAAAAAAAAAAAAAAAAAAAAAAAAAAAAAAAAAAAAAAAAAAAAAAAAAAAAAAAAAAAAAAAAAAAAAAAAAAAAAAAAAAAAAAAAAAAAAAAAAAAAAAAAAAAAAAAAAAAAAAAAAAAAAAAAAAAAAAAAAAAAAAAAAAAAAAAAAAAAAAAAAAAAAACP8AAQgcSLCgwYMIEypcyLChw4cQI0qcSLGixYsYM2rcyLGjx48gQ4ocSbKkyZMoU6pcybKly5cwY8qcSbOmzZs4c+rcybOnz59AgwodSrSo0aNIkypdyrSp06dQo0qdSrWq1atTBWDdyrUrUxNDhCjwSrasWZwCgiBZSyTB2bdw45pcMGStXSFa5erdy3ciBSN2A6PoS7iw4YEmAitGUuGw48dmBaRYvDgC5MuYqSaoS1lx28ygQyedQKQzZbyiU6v2ecG06RSrY8ueKdm16xKzc+tGmUBI5yqYFi1xPWG38eMdI5SmbEVYJ2ibXBdxi7y69YgVjpjupElRMEdWXJv/uE6+/EEBKExrurLJ2S4ptDC5bmy+PvnenZlognaFivtOzlBhGmr2FXjcAssttkQUzkAznBWbbFKFaSjkZeCFs2XX2RW0MHEFNPLZhoQFGJYo2wmdDecfJ0s0Ak0grhFRnIk0hpZWZ0p0AmMg0DSSxHoDUncQAQTUaORedC2mSCZVMNGegLRAE95rFho0wxs6HKnlW39Rpgg0ziiyxC7CLOKMI0yYhltCGrxBgwYQIeBDBlvWmVRinX1JzRVIRLGLM5qYVsSMCXnwRgMRYfDGBnY2OpQAQORnhRQcClMFFQuaNsRYCo3gA5YwAFBADD/4MMJAHHyqwwMAdPDGGz6E/8pBDgyImoMHADSQAwcw0CDQCD/8AEMBjhbLG2eLNeceE0wAA80urgVRJUIefJoDCwD44EMHMLxxqqI0dODDDwNwsAOsoY5wKAAIvBEqBK9iCUC3I3jwQ5YM4aDvvvz26++/AAcs8MAEF2zwwQgnrPDCDDfs8MMQR6wvnQSRZhowmTRCTSdLMKEIFKadEIBD6iKawRsdIICADm+wu8EAA3SLqKKMAlAyu+4CAK8PCOA8g8oy5yvx0EQXbfTRSCet9NINUyxQa67RokgvGofY2REUQHSzofG+WsAALHz6KgYA0Pzruu2+661Ainb9BtnGxu1RbXYNt1YUm9CSyBIRKv+yiyKmEbFARDdv8EYGMD/Qs7ocEOAq2WYDYCjZDeQMbwcCMeAtzAwgKvfnGuFnV46AKwHMJs9V4aIwAnYWhJAP3UxAqRpscO+8hzfAMtkPYMnoyTrMajnKA+XwBgcZsFwk6MxTpJxiVVBjBRNU8McLJpssUUUUIU9L8rq5iq1DzwyI3S3cNMgLwJXuDo+5QAik/8YPcDdv/0MaKsaEe8BU70wginiG3ShzBPpoRGUF6ZlBlicQAhBrIQSo1f0myBD0mGYXG0MCJqABDGc0InCWoaAIk6IC1zRiP3y6giP41BkhwG6EMBRKAkS0BABxzzUViqEOHyUiJDCBaq4h0Q7/68MADHigfmUBjIiYkITOyGiI12mABlhgvHgxkCwC6KFrXAjF3RCgARuAAcvc9qpTnWUBWuxMCrzXRdFgAAZiI6PbrkgWCqRxMWtq42wwMEY5xsuMZ8HTHZFwBELpMTcYqKIfH3gWtQxyCIM75HE44MdQJaQAEPDAGHUAAwwosCcIwMAINjkCTxokQVqUliSPg4Ef+PGTBClXHl7RDGrY8pbQwMUgRkBHmjiuD694xi1v+YxX7KEDAxBIFu9ogpGtcjdck6MlC9IBSUBjmNgc5ito0MuXxKwV2QwnNSwBgwEoII1Ye6YX5ffKgjCgD8IUpzgrgcSXPKAQ8pRnIVYw/wQiEEE7gYukOmfTgDi+CgZtOmhBNPCKbCqjGKcgBSlMMYxkSAObv5imSzqgi2wmYxgRJcUpKppNXLBAAAI4QAISsIAFTECQXBzobCjpNji161USFAgHfjFMaahiDV/IAhaGOtQuoOEU0RhmM3LwEhgwo6eoSEMXhErULHQhDai46C2XoVGCUCAFFmCjTEEzAHa+Sgc5fZUMCIIBXwzTGGigKlHnioUshAEVSu0qSjrw1FuuogxypetQszCGYQxzGe8bK3LK57aupi+nBXDFMEvBBcFaFgta8IRWqfGLepqkAbi4pTRCsYXLCnYLo9gsLnKqWN0Yzm0cMMgIZkAQOf8McxSBNW1V2bDZSqxkEKL1RG51W1dPDHMQrd1Nt7rmA88t1LkYqKUtTzFc4hZ3mL7CyAByAMuEdGCYpKgucbNACmImNrmqWZnbaJDMg7RXIHu4ZTK6YN3LaiEVt3yFRvaAC54tRBK3LEZp63vaYtxSEuhdTSvddl6FIGAZt2QDgS8LBq1CI7YYgUAt+9vdgTzgmtSQxhkmbNkz3LIZrEpwaNTF3BQ3BAbyHTCJ55oFvNqSDvu9JYcN8oMAi5fAWiDGLX2g4swUQJGv4iZE4mtLUszYsmrIr0Y0PMwdDwQRt/TEkwVrXFsWosiXWXDXAPkQS9wyDVumaxduyYz3XoT/yVX27wBCG2IypHmuYtAxmB/jqq7RTyJztqU0wHBnom4hGQcuhKIXzehGO7rR4Axnf6kc4soWGgtcmIYtm+HmPe+FAGbFUocbQgCehtgLl8bsMfLJ6laLs6OC/vGEt5BUajRj1J5+S0EbWxECuDXEX0i1FpDh6mIbW7SyJjCtN43rXJeFpl2DU0UGYAtBiyHVyz62trO5DEJIVxr0vfSabckMZ8tlADJwG1oxAmBbSvjSX2AzDOZN73rb+973hvNh+4CBATSUGtMwQ6rNcEtYmBsuDOijQjNi2+mm2g23tMRGKoHNZfB7IMC1ZShSPYpbIvfgZklo1zCcke/aMhrh/05zFgxrSzhoxAP7rmcObokMLRR6C8S2ZXZB7pXlxqu5HCEAnakBikKbeNOepQjFqWHxpCOgr9R4d5rZwOZm81wq6u2akjsSh1tGg9Bb5oIxDvxypl88IX2Qb8pn7AVE27IPV+eKmOPV4I0w4NfUGIalSayFUhCT5BcpxNkVEt1bokLGs7YxNZiR9LhHhcXx+nNIdDDMVOy9vloQxTAFsZHGH6ThtiwF4q27Bb/fUg6Ot8qR3ZaDbnYEn7ccBhiSXdRTDLMWVg8JAcxs+GDX9wv4jXinRUOA3IPSlEYZQAMa4HqDYMCgaysJAiJ9ck9M1bRbWEPObekLaa8EAkOnRv8y2nB5wXbBDW63JS6cCxpFSQLvTG8FHeqOk8pVQrpslsQPjC8TGPA3m74gCFtnEH0WeZ73EQ1AfbaUDKRgBl6wBVqQBVvQBWHwCQY2TL4AeCuBAeFHDcgQCmLQBRCoBVvgBWQQCttnS7ZwgIYxA5LFar8QB80HEyzACq4mCfQnEwxAB/gnT9AgCEgEaurGfx2BALCHTdFgDKuwCsSQfsPkCiz4WbyHTcmghMNQDE54S5XAfpexAf9WbMzAAzaBAVNYbJLAWjIBB/FkbHtQJLvWNXqFEj4Af63GDHTASDBBAHIAYca2DHAwfI8Betn0DD2ITZVAhCVBAyA2iMywiNj/xAxk9hIN8IXZxAxrmE26wAJk5H0t0QBzAGv5tAyDwIkzgQF7YGr59At7EIWEcYS3NAt4UAMh8AG06AJTMAmXSA3rFxOCaEu/AAg3IAK0+AEk4ASGgIq3hC8voQF8yGaP8AQtMIwiYAN6UG3Y1Ax7EC87gIYuET+FgAvL0AzPAA3PsAy4IAk6wIouoSvfGI7j2AzmWAg0wIWY4YrUQAkvMIz6KI18cIm+wI0p0Yu44AT7WJBPgIzUsHMsgQFQt3h4IIwFOYw18ILD1AdvMAOAGBMPwAEe4AEcgAEzeBMDgAEc6ZH9thqCyAwEGZEF6QK1oE0uAWPD9AcsWZAhYAjY/1QzK1EA8HcJJFCT+1gHl/gMCpl6McEBw/QLLgCUNjkJw5QHLMEAawgNT8CUBXkHSdkSrmgIVrmPNdCQ+nVARokRQ8cMS9mV+3gJw6SOJOMQrliVaKmPePCUGhGJCzECw/QIcamPNXCJRJYRmqOTYxkRNDBMN7CX+igCqBgJHCEIr4AthDdMXImYw+iUt4SICuGYkMkQX4gLIECZtFgHh5WREkEDeQAHGjiYnHlLkwCaw/gEw0SPFdEAtvSYaHdLvwCRoNkCa9gyGEGb1GCbCoGUt1QDrkmLszBMTJURCEAHeZAHcpCDqlkQGDBMZ3mcQ+dyGyEI+bWZBIF/eHCctP8ICLekCxrBnbXpnQWRdrZ0CeL5ATcwTBKnEab5nNApndOZLa/4nh8wl7bEChwBnN1JEMRJDdCgm67pAsOEmQkhoOl5EKAIl+KJjKQZEc1pn88pB7iSnwZxhHrAnwpqS8/QEeipTZD5BvvJn6hYlBVRogM6EAgwTAjqmjh5SzCwfMv3AA+AATzaozyaARpQOxswpBvAAUbaAa6CofYpByNQoan3hYfJn1AHnXJQpVZ6pViapVmacdn0mHRwS5P5npY5TlpapmZapVyKTcJZoLjAnx8gmlqopHI6p3RapxnKAiHpKDsQC3zap376p4AaqII6qHxqnW6aC9uWqPkUnvz/WaOKmqjNIAuycEvuyZ/xeUutYKeauqlyKgeyGTd7SqiiOqqkOkzRyJ/W+Kiqakt34KbkuaqQSqlueqm2lKmceqt1SgfDwqEAMHTGqaKwmqhr+KH8eQjBemyvAAN4aUuz4KZOIJ90QAdzUKZxEAdw4DbBUiraoi1xQKc0wKDmNoUSepwhMExneq5lmqbaBAOgBwlumpy2JAnoOq9yoK75ZUnVaUvL4KZ6MExxSBFyIKffyqsEkQdgaqm35Ask2qWWRHm+yJ8gsIYbihEuWptdtYjXeZxqeUsQoBEcoKQ0AJAcKpNMV6y3RAgBqqYaFaPF+Z7Peksa4aDBGYdTyAfv/ykCi/gLG9Gtz0krBOte+DcF4kkCa/ivFFGiyXoQL2lLrSme8EoNjJkRSGu0PoCbn3mc/XpLcJcRH5sHOvCpPwsAJfoLs+iaxqqvKRuc6kkQVduyrvmytmS0EAGcwpkQCDCsx8mbw0SKFQErYBu2ZTNMh+CaTTBMvnmedZsQUJcLM4qWLdCMuIC4a4sQcAYNv0qZG2tLvgWYLga4CaFvxLqXfVmeHTGxCzFzlHq1cSkCqUoNpmsRr7sQT4ebGYuWjmpLbOm5GEEAoEgNfrCXN3CJ+DkSZTgLjVuTLRB+X8YShYmbl2uVIAAJ2IR6unsSGXCJs1C7ERkCr3pLh7sSCP+AjL/QA135BGD5EvoGDXqgujVZA61LDZtbvSfhAY5IDZDwvPrYAnrQjLYElS+BAfxLDbPgBOw7jCEwBe+LC+DqEfb4Cw/JkjcwppjqpPLrERzQkL44CXxwB3agB4fwvrb0vS4BfoN4CYCAB3WAB4YwC7kYnAv8Efp2S7VgCHhgB3gACJQQwPFKwRXsEQ1QhsW2DHbpEgRgj8W2tTNBA4VYbCLcwyhBA3QoT89AB3m6EiPQgfnkCqkZEwhQsawWCR1rEyhFsDBgTfL0Cm+AhzcBA5GQT89ACMMLEwwgB73LbavIEglgAigwASw1ARWgxykgBEIwBOPxswMgLnkgCIP/kI0w8MItoS55gAiWUAh0QDxAoTtyIAiSIAmDIAc+kLseYTEiEkJO7GmCZBtHIFalrFh000OwscpFthl3ZECwnFyinEYGUMvoZQGDhARCoMutZUG9fAHAPFaisxiLkCamwSnF/EwSgEp2wQSLwB+B08zqlD+L8SHAMECLEQTWLEnCvBhUgCmbICXV/M1tlACOtBiYEAzOsAlMcAvCADKU4c3oDEUIohhKsBZV4AxWQAu9QAVRAAwspBhHIFD3HEPYvBZW0AkCHQjOQAuc4DcdQxmCk9A7hCKLIQVgkgn7IwyBQAud0EIvhNETJAAlRBlVcE0fdAXAIAy0cEOKkUMm/z1CSbIYHnMFV6AJzxAI0xMFTbQYQlTTInTLgTEmu9AISlBD0CAMyuwZhkTU93PKimEFzpAInbALVbAEiSAFp1HSUg06rawY48wEZJLVI61GqhzWxiLLi6EEmyAMziAcKgQMjNAZhczW9mPUgQHRzcEfIc0I3LwWg6LX98PLphEImrDYf0LPi7Epht084awYi5DUS1A9VrALmvDUgbFGkc08x6wYUhDRIMIEch0dlJHXny03z4PTnRAMnZAE05wIUbDVi5FOq/05C20XUaAJwNALzuDVmrALg80WCJ3bxWJHnYFBTdILwMAEFd3NuYzccoMsyfIMgUIFwgA4lHECa25N3VoCzYrxJYvQJwREy+BtLOnhGprQC8WNBETgAOkt1uJ91DIdGDE135+zAACVRjSt36Cj3Fo01ADOPBptG09U4PezziSt4Cdt3Yrh2Q4+QQpQ36o94fczAYpR2Bg+QvkjFh0eQwlQARPw3UMUEAAh+QQADwAAACz0ADYBswGOAIcgT4AgUIAjVoglWosoVoQsWYYtW4gnXpAoX5IyXYknYJApY5QrZpgtapw2YIs6ZI49ZpA/aJEvbqEvcKEwb6ExcqQydqk0eaw2fbE4f7NDapNIbpVKcJZNcphRdZpVeJxbe5tEdq1HeK5Iea5Le7BcfqBQf7I3gLM5grU7hrk8ib0+jcE/kMVIjb1egKJUgbNZhbVeibdjg6RohqZoiKdriqljjLpoj7xtk71xjqx0ka55kal3k7Bzl796lbF+mbNAjsNAkcZClcpEmc1FnNJHoNVIodZKpNpPqNxRp9xTqdxbrN1zl8B1mcB6nMNhr95ksd5pst9+oMRksOBrtOBwtuBzuOF7u+LZKS/ZKzHZMDbaNDrbOD7bPELcQEbcREneSlDeUVbfVFrgV1zgWF3gXGHgYWXiZ2ziaW3jcXbjdHjjeXzlfoKCnLWGnriHoLmKorqQp72SqL6Do8eHpciIp8iMqcqVq8CSrcyarsKWsc6dscSbtM+XstCcttGBvuOgs8ajtcimuMqtvc2jutOovtawv86FwOSLwuSTx+aVyOaayuacy+inyN6rwNeswdixwM60wtGzxdq3yNy5xtO9ydW9zN6izeim0Omr0umz1eq32Oy72uzmgYblhIjmiY3njZDojpLnkZXokpbolZnpmp3pnqHpoaTqpqnqqazrrrDstLfstrjsubvtvcDAy9fCzdnF0NvJ0tzR0dHb29vE0eHD3e3L1uLO2OTI3+7T2uLU3ejY3uTH4O3L4e7P4/DR5O/b4Obc4+rU5fDY5/Dc6fHtwsPuxsjvycvv0NHwzc7wz9Dw09Tx19jx29zy3+Dh5url6e3q7O7j7PLr7vDt8PLy4uPz5+jz7Oz07/D09PQAAAAAAAAAAAAAAAAAAAAAAAAAAAAAAAAAAAAAAAAAAAAAAAAAAAAAAAAAAAAAAAAAAAAAAAAAAAAAAAAAAAAAAAAAAAAAAAAAAAAAAAAAAAAAAAAAAAAAAAAAAAAAAAAAAAAAAAAAAAAAAAAAAAAI/wADCBxIsKDBgwgTKlzIsKHDhxAjSpxIsaLFixgzatzIsaPHjyBDihxJsqTJkyhTqlzJsqXLlzBjypxJs6bNmzhz6tzJs6fPn0CDCh1KtKjRo0iTKl3KtKnTp1CjSp1KtarVq0oHVFiAtavXr0knEDly5ALYs2jT3rxAtq0EtXDjyiU5QEXbtkS4zt3Lt2/EBULu3hUywK/hw4gbjBV8dwXix5DhsmXMGEPky5irDkhBuXOFzKBDKz0QpHPnvKJTq/6p2LTpIYVXy54900KRzkuUuHZMu7dvlAJQ4NY0zFYU1ygIEiDwu7lzjAOAmMaUCxG1TK6PNBD4YUaJ5+DDO/9kMKQzFCW+MtnKlOmQa7MQZoCAANGADPri86eucJsylGKIZKJNJlVM415nRmzHwQwORPTADBroJ2FmJ5h2xTTTKLGELxhuohtlRlgQAAcyzOCCBwEU4IEMMnAwkAYsltDgBiXKgKIGJSSQYgkuJlCCBh58IFAHLHpQwIRIarYCblVsOM0SRyhhhRWvNQBAADR610EALGrQwQxbPggCjDIEAOMMNgbwpY4FzICiA2h6F4AHM3BA43cMgaDnnnz26eefgAYq6KCEFmrooYgmquiijDbq6KOQRqrnAw4BZhoj01ABxTScfGhaEAcQtKCO8W1QQAEulFlAhHMyGMCDrK7/maKbAcApw5FtfnAqnTouJOmvwAYr7LDEFmvssY5SyhAFizFWhYa+DLPEFdQg4loKAhQ06ogzdOvtkUR62yCsQ87AJq1wbvmqt94qm+S7S0121xJQLjHNJUdQwamUngpmhFkGbavBDBAs54ABakJIwMDjQijQgpTC+eYMGwhkAJjLJdArvBwbVRdlmqRHRSLVILIEMMVUYRoR2x20bQEsQgDjd3RCkIALrsJZQgQBxOcCjuhSPFAJMmgAAdHMdax0UJZShog21VBxRCbVDFMMFKYJoZfL5gqUQIneHfk1mnQq2x2e3bkZdMUCFQBCtzK4u/TcO7XWWSLAVJNIlIto/yJ1ZyrE9pABRxJUuEIEHJ5QARvT7ThO8gqmhCKaXKHEJdVksohrRlj2+OeIbWZaJsNw+KwmxTCy8gSgt+4XaaYpMc0fmkxDTL1Zb+367nDZzdgTUyiByCWcXJH5boLz3rEBEHQgd1y23dUkWYsUM40mG9piCyNQdpac8vAm4CXRcCcdV3CCRWHgEepfwckwVvwBTCb93kXEZ+DrR4ADQJLPbrcukssAliSYP1TjCoigliZscYhhZGcIDMifeCCwov9ZEE3mUwt5KKOEYlQjF0+YRjHcZwvXACF5EnzOA0pwwf8FEC786YwShlGNTl2BGNPwBda8l8IJrbCF3VIcWv8OkB0qHKIam1NC8BAkoh4iaWAXVFfvskMWRhzQNUOwkhN9CDYLChEtA6DiEZKACZV1BlRbnFCWLogiAYoxO9hKo/7exq4uzuCLaGnAGxEEMDmKxwF2dFN8utVGuVhgj4xhmR/zcyZv3ScAF+sWwuYiHES2RWuLFE/aHLmxEglpLyywJFkCl0nwjI1dhRTI2xq3EAN4yQMcaJBQxOcBD2xAlgZp1hs7V0rwNNJbrCJIBz6JuBLkQRbQkIY0qCGNaPBiEDnAJU5gtgddJHOZzdRFIGqwsTAikgis66Vz6FRHVgrEZgoxQBt0UQ1tuPOd8NQGNPYQTJo4AA7BiKc+tSH/DDlQagGIxKQ4f2MAnLELBBSpgS72yVBtRCMOeGyJDvLZUH1Cow2Ry84KUDhQ2UAgkPV8CAH2sE9sMAMZx0iGNfYpi5CyJAGDKOlJj8EMbOyzES1IgQpWIISeDmEIRrjL9zramy/VUZoPKQAl4mkNVKDBC1uI6ha6MIZRMCOewZAiSxwgi3g+wxRm6IJUp1qGUjgjnrpw6QAkMJb7EbU3BWDhQTMo0qW+Exuk8EIWsMDXvvZ1C2poBjyh4dKTJKCr77TGJ7qwV7/2NQtc6MRK36mL5wlkAA0I1Vtn84BAvlAiJH0nM8TQWMeatgupgKcuzGmSSMDTGGAorWn9+oVW/8ATFnTdrG/WCDfLPkQG8DxGF2ZLXCxkgRTwDMRKfABPVmyhuLPdQmrfCQfdNocAm+xWCSLaEAIs1J3MGC50Z5uFU8CTmBfRqkISEI13GuO54zWtFljxTmkU1rqiAeT/UjkR5roTG2KIL3G3gIx3VkIjgIAEfw8Sh8R+QcCz7cJZ3alc/Mrml2ji2UW+q41SyBbCfS0DPO8bEQ1ogxoKTggBoPFOT4B4tml4JzVYa+HLZBdNNIbIBu7qhRebNgvGoK5GYnriFBsEuO60Bnx9/NirulMHNQ7NKb21YIq04Z2tYLJp1fDOWGjExPU18kDy8E5TaNmxoHjnIKKcGQw7bP/I72TDmf3aBRlvhMhhLiQs3nmGOfdVDJRl82XIyUmOIFYbZPAzX7MwWW20QQeQjrSkJ03pSZNZn9JIMYvd2WNFawGegn5MXP+H0I7w4p0PVnQWlFHRVrt6n9Jw7Ts/rGVGvzPHoVZLZ//Hto5QVBup9nMWCvzqYht71oo2bqORmuu4GNWRzNYIh8OQ7CxM+NjY1qcuqPFOLlTbpu7MbbPRMuq5hkTW2khDsj/9TkC4+93wjre85Y1utOrAABxOtKK/8E5orIZxSBEfrntCgAc8gLsF2TW7PvsRObzzFMk2Q6A1cgdt66BweP5EstdgYNBooA2R+LU8YSEH9OrkAW3/oIQ04hmNSPxg4DORQR44/M5gAKIGEeUtmnzbkRIkVguKRkW7NeKAlVP24gTRwTuXQesXZ8EVQr4MDWLhamG8AeEvccErXh0Jk9tTDkavaDUAUU8C0NFb2y3Jit+5Bj97AdzawBNGKu5OXSC9IA6Apxn8HIYRR6YDh351NHhgEw1UAtuRiPZL3MDtY+dBbIGsckjorg1nePvM09WGLoi+crtz1xDvVAbQax1kd8IiMnBoKDMbSgmYn6QG7dwnNaIRe31GQ+4weUDgWd74ffICBHaUgYZP8oDeq6Lp8Y3xOwmfkTt4fiEdgGcpzvwJeLoAMnh+Zy3sYIMRhOD7MJCC/yR6X3eepyT18RSGH3BAgu+HwARNIIQw9AllmHBg0++MhiOc8AL3k+AGeIALmAYHhaYS6OdOpIB8xWUGcCcLG4FzDhEI8NQJTKYG2fBOkYB98TQJMeB+Huh/ekB+waB4J3GAddcEH5iCTjB/8FQDL6EB7ZV/dtB+Keh+NkB18FQNBOh1J1EAgXcKS5Z8cCcN6mUSCXBq7pQNoqCAjpUFngB30IAfh2GC0YCCNZiCMHAL8OSALYFk79QHV5iCI0AI8VSEJ2EAImcJJhCGHzgH5CcN1+cSGsCC7oQMZRBfXyB08JQDLeEBYacNrkBt4wUGqwBP1BCHh+EB8CQMMMCGYv8oCfB0B1vVe9XgBI6YgnWwiC2RfYRwiR9oAzHoTlyYESQIffinDdjQCmgQhItGBqXQaO7UBi9RAn+IDapgBqyIBVpQBqhwDYbogo/BYdHQiJ74gZbgdxuBewqRfZZYjB5oB5GoEcq4ED73To7gjB5oA+TnAxrxAHkwjQ2hATSXZMZwCqHwCaWwCs4Ad+4kDXwIEx8gcqhoDa1gCqEACqXQCuvIcmXyGDUATziAjR5IAnQICRwBCLKAiAgBZu7UiQLpfpB4axmBkAqpEIemCyLwkN83B4MlbhPxA4OwB+C4EAkggdgmC2bIEg8ACdlWCSS2F4cmCRrpfk4AT+YnEQ//IIoVSRChxU80qJEv0HuyiBE5qQ0JuRCK+E42MJPfVwt72I2DEJWA0I8QAQKH92q64ANYtxIygIOuJgs14JF8wZDaQIxMyWFucJDvdJQGEXZ2wJTf5wfvxAsItpY7ORA9aQlwGQI4AE8HphE+EJVRGQgyIJYHQQAeMHMMBQ2GUAOTdBNxFQjjWHODcCuY4V/aUAt7GQLQ6E6vwBFFaZcEkZRQ85MzCQPw5HoMEZo6eRBIqA3NCJd0qA2GCREOIJiCSZi1aRCuJAM/AAdw0AY10AGqGRO92QbAKZwbUJxzgWd4sJmo6U7U0BGAoE9seWXupJmbSYfAiBHVGU9s6TXw/2SaM0mG7zQDEaAB6rmeG8ABHNAB8FlLQfIBH6AnJXCfLpAqeYCbgikIEDhuGnFoAbmZoXgHwHmgCJqgCrqgcGCS1ukCDteQmxkCEakNlcCgGIqhDgqecUiaujChHLmW/DmiJFqiJiqY/7lFOzALLNqiLvqiMBqjMjqjLApPZgmXu5BtOlpRb7mZ5rmjOioNtEAL76SXm9mXInqiSrqk/CkIUthDK0qjUjqlVApP/beZAgikWvpOdTChcrmlQVqkE4qk7oQLTHqmSuoDzAmgCMFhS7mdYKqjvfecm1kIcXpssiAD1ZiZE9oEW4ibgiAIgRAI77YHhpoHiHoHiioHcv8QBwi6ByWqpmyaEVcJm5s5AvCUoZrKoBu6hTJwgI8woU7pTpGwqabaoAyVpwLBkNAwoXgAT1TpnSP6A6U4qRBBeQ4Jl2QaDNRpnf2odO4kDJspAr1Xat7pqwVRezc6k8f4TsN3ESXAn21wk7YaEV7Yqntpp+4kCKAJnrGaAPD0pkzpp+/Ujd56EJWqB3tJArUnDBsBqVE5rdXKEQQQdlIAlybQe7F6rKK4rwKhhe4kk3A5qtpgkBO5lv46EJgpDBnJlK/6TnsgjVEJBy85rxTxnfzkfTOprfLUrUZ5lwKBmdogrg9Jru6UsDjZmus1p0wZlPDEcBWxBxRrsR9BloX/MJNMAE9DiWDhmRChuAvkWYwvgH+bN5E9qxCXBjUki43N6k6U0I0VS7MWkbTaQKfYqI1z2RHGuhA5AE+W0LDOSAJZ6k5baxFlS5KhyIgP+aPuFLVSCxMF8JrawAfYiAPkx4MmUamZGbRh+AI0t2Ys8Y/vJAxLy4Yi8AjxVF1vyxMbQH61sKw1OAJf+k47uxIJMJvC0AOe6AShaJQvQbXVgAdgG4Y2MLZOu7g+AQK1506PULjf9wJ4cIraIIkvKLu10ASj634jIAWmq3lr+hHZx08zeIU4UKHvhFuo6xMe0LnBKgl6UAd0gAeF0LuxKBMRMJnUYAl+YAdzYAeEUAvk/yeKvwsSVPtOt0AIdkAHduAHkyC7pLqbyTsTD6C3xQYNI8kSBRC8xRaxNFEDf2hslRu/PlED8qh6crCVK1ECk9lQsSB5L5EAGPtqkPCsHkOzMhAJqwuebfCYOCEDLKl6goC3M3FPcmtReeC2MtEAKIACDbAADVABF4ABKbACLCAEWSS12OUDdwAIgZAHbSAD4+sSJdAGd2AIlTAIctAGIowTD6ADcAAIkRAJgQAHPoDCMoE+VEQEHCXAXIwQA/RGvNHFYowQDBAYb9REY5zGA1EBupQdRqA7aizGGGBJQhDHafwxluQ5dszFTWNJLbPH8ctWlLEEB9IZsAHI8XsBQf/FGFGACcXwBKahAoiMuqLTGZowIO8xyW+7AKXBGEkABUsABaXTPZQxVJpcrb4zL5xQDAByIZmABJ3RR6c8qYrcGZdgC1dQDNiDCMAAyYxBGLM8qZV8F4uQCFSgBJzgC76wCJmAL6Q8GHAczKGmANLBGItQDdOAQNrACX8AIICzxdIcZQ1QHpRxCdqQKZdjPfTDGLwUzuPGxv5xCFcgP76gKU+wQ4JBBG/hzrmGxYxhBcPwC1eQL8VADZzQGQLFz4L2xZ2BCbaACOuxBFRgMpSxUQodan18F0pABUvQzcWwCbODIBlw0aEGz4wxBbYwDcAQBVCACIxQDH+Tz/hD0lH/NseW/NDVoEOZ0At/QBkQRNNRhsedoTm2gAnXUz9tAQQcDNS6ldFtcTm4PDm+cAXDsAhIfQSmzNS6xSydoQjFAAzTYAWHQA3ezBhFgMZarVu17CyrjAhKYAvDQAVWENN3ccNprVvDLBhUEC378gTAgC+UEQQIcNfWZReUoT7S8gf3cgTnQRkpAM6EXUoLsMiUgQnUMNBejc938S+RbV0M4BrIXAxRsNE+/ced/VYD0MaC8QTDgB2UkdCnvVmH5BqgTBmkFNv4VUl71M64bWEEJEZEQAG9HdRmnB2wPdz4xQCqLRgWjdxsVgGuMdLOHWo2LdPT3WyG3RZ2fd2hNgCdEXwEK7DU3M1mAlABGLDPaRQQACH5BAAPAAAALPQAPgGzAYYAhyBQgCRXiCNYhyVaiyhWhCtYhi5biCdekDJdiSdgkSlilCtmmC1qnDVgizpjjT5mkD5okC5toDFypDN2qTV5rTZ9sENqkkhtkktwlk1ymFB0mlV4nFl7nkR2rUd4rkh5rkt7sFt9oFB/sjeBtTiBtDqFuTyKvj6NwT+QxF6AolSBs1mFtV6Jt2KDpGiHp2iIp2yKqWOMumiPvG2TvXGOrHSRrXmRqXeTsHOXv3qVsX6Ys0COwkCQxUGUyUOYzUWd0kif1F6cx0eg1Eig1kqk2k6o3FCn21Sp3Fus3XOXwHWZwHqcw2Cu32Ow3miz336gxH+uzmay4Gu04HC24HW44Xu74tkpL9krMdowNtozOds4Pts8QtxBRtxESt1ITt5MUt5QVd5VWt9YXeBcYeFhZeFma+JpbuJsceNxdeN1euR4fOR8gIOctYaeuIeguIqiupGnvZKovoOjx4elyIinyIypypWrwJKtzJmuwpaxzp2wxJu0z5ey0Jy20YG+46CzxqS2yKe5yqu7zKO606i+1rC/zoXA44rC5JLG5ZbI5prK5p7M6KvA16zB2LHAzrTC0LPF2rfI3LnG07zJ1b3M3qDN56PO6KvS6bTW6rfY7L3a7OWAhOaGiuaJjOaNkOeQk+iQlOiVmembnumeoemipeqpq+uxtOy2uO26vO6/wcDL18PO2cXQ2snT3NHR0dvb28TR4cPd7cvW4s7Y5cjf7tPb49Td6Nje5Mzh7szi8NLk79vg5t3j6NXl8Nfo8Njn8Nvp8O7CxO7GyO/Jy/DMzfDT1PHb3PLf4OHm6uXp7Ors7uPt8uvu8O3w8vLk5PPn6PPs7fT09AAAAAAAAAAAAAAAAAAAAAAAAAAAAAAAAAAAAAAAAAAAAAAAAAAAAAAAAAAAAAAAAAAAAAAAAAAAAAAAAAAAAAAAAAAAAAAAAAAAAAAAAAAAAAAAAAAAAAAAAAAAAAAAAAAAAAAAAAAAAAAAAAAAAAAAAAAAAAAAAAAAAAAAAAAAAAAAAAAAAAAAAAj/AAEIHEiwoMGDCBMqXMiwocOHECNKnEixosWLGDNq3Mixo8ePIEOKHEmypMmTKFOqXMmypcuXMGPKnEmzps2bOHPq3Mmzp8+fQIMKHUq0qNGjSJMqXcq0qdOnUKNKBRqBhISpWLNq3WqwBJGvJLiKHUvW6AAeX9NeLcu2rduZC3ykTfuDwdu7ePOKlDBk7lwfA/QKHkwYIgm/iHkgtKDhQuHHkNsOOIG4cgmDCDRYQACRAAbOkUOLBqpAbuXKEwo60GAgYuYGo2PLvinhx+nTQ+wKfJBBAwYLAhljcDDQQe8LnFf7Bu7gQgGBF4gXiG4BOADjGazP3s7dYoXb4H8o/xDoAENjCAAwZHDA+AGAzBawX++dHcADDc8JaAZgQIN/DAC0Z5xjDF1g4IEIJqjgggw26OCDEEYo4YQUVmjhhRhmqOGGHHZoIGgUDWDCaUdIcQR4PARAHmvvaeAAAZ5pAAABsAXI4mu74Tfjfv1lQMCOFsDI2HMLeWjkkUgmqeSSTDbppIYgSqRAD6dJ0csywFAB3mXXsaicf/4JBEFv/rWGo3066gdcf+61CKZ/UXYn55wFRWBbZUbEYokfyyRy4m12rdZaAxqAVsCP98EmaIs1rsZZATy6KBCkbRZAJJ2Y0klBX5VVwUQvmvRySCx+gHfVogBkkAECA9qIQAHmtf/W3wWwZTbcBZESB52LCJiX6a/ciUjiIctUcUk0liCyjBS3AdZlawAUQCYGP0rrH2OgMUYgY5rlOhAB3K4K7LijJUDlaYhEgwsRSGCC5SG39TAeQjAW9KNG95Kr72MM3IkYFX4cEcsyTRBRBBJ/VnZCYPs27LBEm95myTJUMOELLQmfVsHDHHe8kFeVHXHIEQL/0sQUwFRx2w9reeyyywOg8K8TRjixzCVERLFMLEcg0ey8LwcNUQEIPBDnY3EhZoQmv+AyxSHNKCIFMLEUfNoODAutNUIFNAABrmCOVttplkQDjM+WNNMMz7eFtfXbAhnQgAXmvQlmm5EddtshmDT/YwkRR1QxMm4tw/0yAnTbrXiYkU12WhOhwptIM7jgvLJuhguNANiLg4keZKWRiAsmsTBThRGKaKLlaTwckDncm3fO+GNjPw6MH7joAozVt5Wg4uuGE7r454V9F3IVfiAhhSaKEJvIbUNQAHzmCJCpeL6CCZuWEYgUXPLOTeDSSy8qn1bX9IZ/qbh2gk3plyHLTEGEH79IgYsmVVCBSamn9ZAA+nDjVuewl5d+IQZqiqjEIZihC0UgQhfgIYIJsgbAoFnrTRAQ3n4GEzHEIAEYyGICMH6hCGD87TbSq6DW1KcBcenHP5fKC8gqwwRd7KxEmtBFJTI2lx9EQIVaE+B//y51rcEwIIKBY4bleDgXeQHRgnUDE/sAgKsY4kUCEfwKIprBv9Ms7Ikv0yCYakSQB0wRLwrIIhGMYAifaQyMLxNiC60okAbQ8S4LUCN4gFA4ODosRm86Y2iwqMfK+ABofnRYZuymq9norZBzwVoiOXafN2UAWtuhDCTT4rZJOoxzRexOAM4FySH00ZPjqh4jPeKAFrDhD4JwhCDgUIMM/MQCLngDLB0BiDfAgEADGYC/9OgDzKGSXCwU10YKQINJJCMa0IwmNJVRizgIUiYIyMEqninNaCqjFW9oUxohyQMKHhNYcrwAAS9Sg1p0853eBATxZFIANvACnvBMhh0aQP9IPfrunOQygPVCqRELTAKfCI0GMmowkwy0IqH4vEUQ9Bg9gCJTcWTMSAju2U1hkGITZzhDGkBxCme8Ew/rVAkMuBlNaARDFGsIqRpCgQqTShMXUJgABSowghKUwAQn8Nf5LIpOu2XgjhVJgTKk6QxRfCELV7CCVKV6hS2kYRjdBMRLasAMaR4DFF2A6lSpuoVNFKObcThI0niASKLOCVZ2u2ZFMsDSaJjCC1Edq16tkIVN2BSadmhJC7oaTVJwIa97naoWPAENabIBIeZ0q5zE6J+MZgQB7oxmJ7CQ2MReIQxnjSYMVuIAjkYDGmlAbGenegUyHCOazNiAZBsmx6P/egQP0tyEalc7Vi8YI5q7OBpJCtHSM+yWt1INw19bgdTZdgeQUvyIBQgbjVEcF7nJbSw04aCROMiIIRuQJieui10zaDcaOXDur1T5pkZ2RA/RLEYWsLtaT0QzGcKVCA2U8YjvJuQR0QwGZ+m71yuQIpq1SKl6ZVNJMCnTIwVARjTRQF76ZuG30GRoRtzJjEfI9iAOoO4YCNxZLpw3BAuWEyg3CJIURNMY8yVxYj8RzUdohAaw9bBBahDNYVSYwKWIJh7oRDSkIC6/PyGAAxzQ3IKw924jeUNhf0xfMEQTGRvJLDQ7/GGBCEKzVMZuGaLZiu1YgA2P2IU0kbGKOHR5/ycOYIMklirNZDxCB0iuSQvwoGXg/gEGSE1mnjUCYGimQcadvcJfLVsRHHeTywJ5KDRHjOi9bkG7ylAwYV7ACohGgxduaPJLUqAKT0dDxzhpQBzonNBm/GGK6dQ0RyQdjTBUOrFYhSYyeMHrXvv618D+tYThyWWWbuHWe120aBxq6vvewCYGbXaNGQ2TNlC32Xh4jkDjehItewHZek2FtMed0GvHGNxSxXA05lkYKeOTGax+pyQGjRIYNOPdybh3PlEsEwfQ+p3JuHY3b7E4aoeE1mBA91SFQe6GQ/Tc6Fa3ewnz5W7Cog4x+EAHNr6CJ0BC4LWYOEvcLU1e9GEGIP/YeAdEoIRBmDaaGn4JBoZ9X0YsQQUqB4EM7jCLdyojBw4WtUcOCs0yKDzdDk96NGqRg1tE8wtHx8J5hd6WikczEixQudZznodr78LgJyE5NGuhhK2bfQkvj8ZoXWKBuiajDik3u8pj0GlpNgPochUJfKH5iaObeMsPWLLgB0/4wheex+9kOmcKHQ01HD0MCIaM2JNRdrmbfQWykGaZBdtNPlje7B8YRDdtyRIDqDmalBDB57cuh2sr48317nGYkauGaK5iI6WWpuIH4oZommL2vKUxNAXxGA2UfAWrBz0kpBnYlTSAus1YQvLNToeSt8Tq0RjE9Lceg7puPiMiV0j/iKNpa3BfgeHQfINGQqD7HMQpAy3tArqxoG4aPEbLyUD+9rdOCWnmXSL8xhDYJ337p3V1wHzrBxHsF02MUIBaFwPXll4Z8QCF0AIPIQnRdArAl1hjFk3/9xC5t3sHoWXWBW5r4E30VhYwIE0z4IBaBwKm5Qgc8QetkAILYQHSpH0uqHLLF00pyBA0aIMNQWu14AE7uHFysGayBhFvwAqPYIEM4WITtoFjpQWhFQ0yqFFL534KgXinRWmV1gV/NWSFQWuQcIQqtwTSFH4U4QDQVIMJsXefFndHqALU9VgY4YbRAIcKYXzRFANouHGwIE32B36rwApOuHYKkXvR4Azl/ydjWGAK0dQMpIcRf8CFC1EAWmYM8odoWRAM98WGb4GD0aR/gahlbTCDZCaEBcFqdRCIG9cH0XQLGvEHqxiHqAeLHTAD0jQJG9GEiMgKkgADmoYBrGYMj2hhQRZNzZcRVCcQIaBv0VAM30ZiWoAK0iSBhJED0QQLutgBBwhNqsAReniLA+GH0dAMdIiGKyBNP7gQ5fiGrEgQTgdNBAiLL7eED+EAhxiMwkgDSMWN0eQMajB7XwCK0cQKz+gRcCBNxmAGsxcGxCBNWVgYVncH39iOW9YRtthNfMgG3fiNHWBaingRHal584gA0rSOaCh6olUddKMeqgImG7ABHMABIf8QAimQAi3Qkz0JA0ApCP4YjJNQA3cUB92ECmNQYVwACn+1dKJYEtgHDaYQBhXmBaNwXtHACu9IFrTWgt/IUnbwBmRZlmZ5lmiZloCATzWIlNCkg7rYg9EwCWlZl3ZJlmsJT3yIjrUgkkk4i0MZmII5mISJiJOAiQThli1FDJ5ABl6wBVrABWGQBqbwlHv4gSNRAHnZUsHACWPQBVoQmWKwBqjwDN2kCmAnEzbgCqzZmq75mrAZm7I5m6wpTaYIi7agdLopTa/4jS65m+OmDK/wCrn4jbwIXIWZnMoZmJNwRjVQV9AEDc/gDNSpldEkCKmJEm4Qb9FJndUJT3qwkC3/sZq0WZ7meZ7ShHPf2HPAqZt0IJKy2J7kxmqUIJLHCU27sJz6WZirwAYGZwGMZ2q3QAP6iBIasArjVgtQGBpaBojfmHby6WnUhZHfSAgR2myt0AILGA3e+I1KIE27sAoiqgqTUKKSIAmPkKKOIEuC0KItCgiA8Acyqgd68AiCuQpvEJUCwQGOwJ3v1Aps0JUnQQAtIAkC906sUAOYFBpEFw33GIgfIE13OaV1uZke2QIk1wgiOYjQ9AhU+qVvYKWaB4WkqFAieQfStKAYYaNDmaMQ4QA1AAircAvIkAy80Apeals7YQE5IJS7kAzJsAut4AhsoE6zYQfRBJeBeJ+7/8CRPwqFXsgL3+gB1MUBtfioBSGNt4mG/RdN7FYRLTCUcYA3EkEACHCqrzIURIOq4ikYLXBlFRpNgUCOV0oQKvmHuvih0aQR8biHajoQTZoHuggC0sgLG8GmrGAHmJliI0EArPYEsCgC1PWrJklm1AoAmQdNZwiLXIqFl/qG1yoQAvlpRhiIaBpNeqARocoKeLCszEoSJ8kLGoeGFqprtLqH81gQ4xoNDnqEugpN4RoResiHCYEAExqIdihNAJIRhaAHwPSuMFGm0UAIaJgEjjWDBJsQLGULLLl/KkBztVCLGasQuAVNzdCvLtip0CQJBVWJECsTJQtNFOqAEDiLHf9hqQ3haNBECeVagCDAntCEsxghtA2BACzFC5u6fb8JTe76skFRAPUITXvggDNwbbCHEk3KoR37eSrQZ8THEisYTbyAssnnAY3QTerntFBxAdcGC0kLevEZTXjIEgjwcryAA9u3BN73EjGbjnfQs58XA0C7smorFRwgjdDUCGSrcipwBzQHWBH7uByqBICrch/wBIO7dEL6Edj3aXBneTMgl7ZXoIVbFBoAnZ8GCXlAB3NwB4SQudA0ty8BAX22ZZTQB3UgB3UwCLBwpK2wuSDRt9EkC4NQB3NQB30QCZLbpaRbukXhAFnbbMgQgDFRAJ3bbOlKEzDgo6Ymu84rFTD/cHoSGgetahIhULsJxQr+RRMIcJKm5gifmhW/87It8AiI65FssKQ30QKOUG6BcLU10QBvELXwhAztChUSQAITcAAKwAARMAEVQAJA1QM9EFnMSgAbkAN28AeAgAds0ALA6xIhwAZ2UAiTIAhxwAYArBNwqksp2ks50LRB4ThZ1APfe8M3ETpqlEI43MMwUTtq1FY+PMQoYTzERMRIjBLaU0idlMRODBLus0nG9MRUrBF2sklEAARVvMUaQQGPszqnYQJcPMYhMkN+QQWaEAumQsZs/BBRjBhHAELlcxpC3MZ2TBAGBMdMcAR+4DfgMcV3HMgTwCl+YT/LkAtSoAhc/3QbdRzIZCwAZuwXlbNAfpIJaqwwjuzIZ+EXRnAJUmAiN6MLo1IFJFMZE5TJd7wAw/QVRoALWIIEmhANiLBAvOMXG4PKdswXp4EL6tIzrrwMiFAZLIPLdvxIhSw4UGMJTaA8buQXTkTMZEzDBwQMuOAzWwTMXmTB0OzEOlwZurAIiBAL8GIIg4MYTbzNVQzEc4EETXAEl4AlmtAMzewXQnBK6OzERnzGvcAMmHAET2MJwMBERHBI97zFS8zJJnQsloAEuBALTqAw2lzQPvzGcCzKunAs8HIaXCLRT5zHftEul4AwenIIolwZQ5AaHP3EXnwamgAMy4ALR4AJzAAMzMeCGEOV0kg8AJGcFoYwMEwgBcuACUjgBzXtF+WE00l8AKR0xsvQC80QzFXADGDsFxuN1EM8AKZxQM2ACURwCc2gJfKDGBVl1Ug8AbeBBLrwCyK9LsIMyGSNw/mMGDqjCQdTy2nxzG9NxEcEHlXQDHPsF6ec10msSbcx1XNxy4KdxAOw1Go0zIn9xAqwyuBB0I9NxRGgR19U2VW80uBxzpr9xCNCOJ89xottSAsw2mR8AKuMAhGN2kns0Z7t2lusABRAAm79NgEBACH5BAAPAAAALPQARQGzAX8AhyBQgCNXiCVaiyhWhCxZhi5biCdfkShfkDJdiSdgkSlilCtmmC1rnTZgijljjjxlkD9okS5toC9wojBuoTBxpDJ2qTR6rDZ9sUJqkkhvlkpwlk1ymFF2m1V5nVl7nkR2rUd4rkh5rkt7sFx+oFB/sjeAsziCtTuGujyJvT6NwT+QxUWKul6AoVSBs1mFtV6Jt2KCo2WKq2iHp2iHqGiIp2yKqWOMumiPvG2TvXGOrHSRrnmRqXeTsHOXv3qWsX6Ys0CRxUKVyUSZzkWc0kie1Eeg1Uig1kqk2lKj1VCn21Sp3Fus3XOXwHWZwHqcw2Cu3mSx32mz336gxGy04HG24HS44Xy84tkpL9ksMdowNtozOds4Pts7QdxBR9xESt1ITd5NUt5QVd9UWeBcYeJlauJtceNxdeN1eeV7gIOctoaeuIeguYqiupCmvZKovoOjx4elyIinyIypypWrwJKtzJmtwpaxzp2wxJu0z5ey0Jy20YG+46CzxqO1yKa4yau7zKO606i+1rC+zoXA5IvD5JLG5ZbI5prK5p3L6KvA16zB2LDAzrTC0LPF2rfI3LnG07zJ1b3M3qDN56LO6KbQ6KzS6bPV6rbY67va7OWBheWEiOaJjeePkueRk+iSluiWmeianOmipeulqOuqreuusOyxtOy2ue26vO2+wcDL1sLN2MXQ28nS3NHR0dvb28TR4cPd7cvW4c7Y5NDW4NPb4tTd6Nne5Mvh7tLk79rg5tzj6tTl8Njn8Nzp8e7Cw+/Gye/MzfDMzvDR0vHX2fHb3PLf4OHm6uXp7ers7uLs8uvu8O3w8vLi4/Ps7PTv8PT09AAAAAAAAAAAAAAAAAAAAAAAAAAAAAAAAAAAAAAAAAAAAAAAAAAAAAAAAAAAAAAAAAAAAAAAAAAAAAAAAAAAAAAAAAAAAAAAAAAAAAAAAAAAAAAAAAAAAAAAAAAAAAAAAAAAAAAAAAAAAAAAAAAAAAAAAAAAAAAAAAAAAAAAAAAAAAAAAAAAAAAAAAAAAAAAAAj/AAEIHEiwoMGDCBMqXMiwocOHECNKnEixosWLGDNq3Mixo8ePIEOKHEmypMmTKFOqXMmypcuXMGPKnEmzps2bOHPq3Mmzp8+fQIMKHUq0qNGjKgU0bPDAAdKnUKNKdakgyBAgBhQSeNCAQEQHXqeKHUu2LIUhR9ICUYoQwYMBEbeGLUu3rt2fF9LqPXKirYOmCAQicOAgsEACfxvALfC3MIACDQY2MNygAILIAAY7wHy3s+fPGAWg2LvXwsHBXAMTtvwg8NbKfx83DuwWLoDWAAY82O3ULQLNSxsIH068uPHjyJMrX868ufPn0KNLn069uvXr2LN37ViV9N4iEU6//wWwtYDA2OQFj5er3jZu3U4FclUfXLv9+/jz69/Pv79/6nNlxABa3u01hAIG1ZbZbgw+INhfu8HF3oLuBaabYbo1+ECAoHXo4YcAWGBEgd4FwdZACk5om1teFbDehu3l9h5u8hkG4o04dibACSSSiEJBCgJAGAGI9QbjX3DB59VWDkA2o41MFYCYgzlWaeVTCgDRY48XEBTkABDGJ+RuQTIVH1OtzXchQWg6YNuVcMbpEwNCbNmjERTIqeeeclYwondKEGLJIFseyOehiHpoQo+U4ILJMoVsaWKilFY6lgBakrhEL4LCcggUWzJg6aikFrVAnQUuAUsVuCRDyRS9VP+xJYKl1moTAQhwOOpZJO5xCy9LELLMr7Ao0WMJtibr0gC4NgAhlbWWQGISSuyxDCxpWVGJIUuQaEQFyoZrErOaaUhmrQKk0GMllihxyDJ72HmEEKKKa69HuD5rboO1dlegsYMoc4gSliQzxZYqZHXvwhxNuW+DNlrKa4FT3HLwJMnsscQk3ZJ4wokMh5wRmA/vVmpepClxSSFWQHELLks8kUwvT9xpmsg4b+TivhEnKhqJlSzTyxSw3mLJLvGSOES9OTdtkcPmjupvgY/2AqoVuyDdYxC0Ou21RG493POhExDoHRVWTFHFLrC0rISxHoP89dwMofmwpSKSiHEy7Vb/kcwyk9hM9+AMkQzxVuf6zCOJUfRiBSbPSHIEFFXA7d0QExCuOUKMaRgWg5RmuSUUlUyCSdCEbt315qwv2KCYY3LGJ517We5r20vwUogllhxMYgpyt064vvOxCS2ffu41BS4HV9HLIbjsAsWjmFjuXZfCsw71buYBKbuei5I2idVLHHILIrccMokSUFhvYJ7Zbx42g7ATRMCbcqZboBXL8HKJsLeIwiUwsSUhLCB+myPe9yp1KhJBIRnPIIQSMKGMXvSCCj0CHgIJt70HdI9UCjAboAoBi15EQQlWIETNSGSCDRJufrzB36gsIK8n7OIWHfMWuFxIN7vtZoG7ktcR/6iAC1mRiF48nJvhGDQ2Ui1AiEdw316AcIAkfg2Gu9FVqSgAxR59zIpe82FT7hW+Lu7FCDcDY86WmDh7qcuMelmaGpvWuQZpMVlBgGNauDbHnGGxfiEhAAZGUIMawGADCJDhTgqAARYU8pCJLIgARAhFFASvj/YiXhM70gAeMMIYzwilKJ/BijpwQJE0ccAPIHGMUYZSGaxogwYGogA4ohGTIuvgHTfigDq00pXAfMYqYHATDPQBGcEEJiQ8AAAudnEIEsBlyP5IEh/8MpnBfAQGZkIANiATm8H8wwq6yEdpLkyBI0GAIIDZDGL4ohSjMIUwmgFMYxATJg5IBTuJgf8KUoziFPMEZiGQMIQh/Ol3lzRnrTq4yY00QBWuHMYmwoCFK1jUolwoQynoKcpl6OAlGKCFK4WhCTBU9KJX4IIZTsHRZyxDFzEQgEwPoAAGMOCNR8CeQsX1R1RypAAQFSUzMqEFlBrVomE4xSiXUYOWOECkoiTGGU561IuOwRejRAYzJWmBEzBtp8oSIyA/4odR+uILVa0qFjLR0mNsYCUDeMQoTcGFtB41C55oaS6OlyxcIQUBGGioT8AEFoewkUYjqcEoT1FUu1a1DC1dxS5DkoZRjiILjq0qW0W5CFthIA2MyMUojaEKN3TAJw5IwyO+KcpjMOIHgqUJDOoA1VH/5oIPNbgjauxYEgLUNhhbyGxa0dBSH2gEBpMdiANAGUrGCreqnRjlPS1Fg1WAM5S6WENyXcICfV73GYw4LU4a4AbWYnMZfNim8V53Eh+IshlheK5aRyFKWmy3IWyghQ6S2wahekG+R8UCVkOpCkttgBXfHeUxeGATDEAiwaNkBBBfogZlQFiUdfDKYWPbEQSHEhRUBfBFvcAMUU7XIggApX7vOADRhjITIRbxFcTQ0lkmig3YVIZ5XfkIDp+kBstIpjKOEeRgHmMEM3GAh41s4WTaggPEu+9GNNDkZvxXxkYNhSj/oBEch3LFBmGBKIsRXCyjVKmhbEOi/gDMV8jB/wYh+ICcXSCFRjS5vmNViZdHqQs94EAEcv4ACZoACF0A86Mw0QBzW5sIJ7Qg0CK4AR1kAUxk1IB+KnFvc2OM5TE448tSXkiKRwnmgfQ3lKHgtIzNIMoCH4rNo3TECwJNa0jb4c7PyMWET7LnLzeh1sB2gqFH2VSXYOCazziGHAAN7EDbwLpLvfSuRcIHUW7CzEbVQolDOW2I9PrL+xWIXENpBmyj1AscNUaoO9TrY/y62cB2QSxGyQqXwMCVeYA3sEMACFe+lSUFcHEoI0ECfdf6DbhGho1V8uBQksHcKAXGlutA8Ypb/OIYvzisgbni2oIB4hbFwrafkecccYDPLv8w+L4bMco5sKQBd16GE1QO7DjwuSUbfwYgaF5rGyC73hop+UGWLAaQWxTNF056MmlR5GfU1ejCEKV65VTbY6Sc57WOxCinnhEkNyTnM8c6reXQco143SEjGGUixE5rG+DauBnBgCqKzRCiG/0KSFe63pP5dJBHPZRcv5JiRYkDttNaBMN+Rmc3wgdWsGAhGBjlzg0faJaL0scMafzjG7JkWoCA8nJ+w2h9KpE72GLuDGn4Mx5udInv/fXLSMWiPw5ykYtS6CBaciNAH2gnjBL3EHFAKB2fkDuIUhfMBn0L7pyGjAiflJtPyMlFaQPey/kVo8yBRiBgi+6zQgekN37/KK8Ncm2LMg0+SL/618/+9rN/DsGMPZLH/YxygxzdoVS3nCIvyqtbv7ZqwBHVNnzRRxCsJQfWJ2d6IEq2oBEDCH3FJ0qRkIAfgAOjBAkbUQfd530+gEo8IEqnoGoiNgYcZV8aUQeuJH+mJkqiIIIAdgatpiea9gyvQIEfQHahlAoc8XyiRHwDMX0ulXy85wKjhHkLwYMEeBC2IEphl4CJ9wyk9xW0sIEcyCEZUGVXZm5aFkp+oBEPcE0qSBBiFkrMUGbYhgVIxwZ6snF0YINE+Eod8YA9uHmVFUo1aIOJR3cXIYdJiCKjJIS812+iVAMZoAEbcIgcwAEd0AEe4AEj/zACLAADkiiJhVSJOaADOgAJVLiBrJAGAbJkIGZuJGZiJxhKYVgQLSZKmuCCwkVjorRwcLJkhWeD1zQHbHCLuJiLuriLvNgHyeR4biBKk0eBlvcMkMCLyJiMt+iLweSDQEgLNvgBotdam1iN1niN2Nh9tJAGhqED71V0ZoYFpFBf65YQX3iKB7FnzJCFMiZgooSBN7EDrTCP9FiP9niP+JiP+jiPo+R/CVgLrxeQwISANiiIAql0yOAKriCB0WiB1JiNEBmRm8gKGUAetQUMfQdgWIAGo4RoGOEGkHB2CbFcINhYIoYFnjBKIkkT8riPLvmSMDlKj2aDlHaQBxkH0f+4gDapd6w1gTbokKF0DBI5lNlIC27AGTNwZ6eQkcKFBZDValEIERzwEDP4DKNgks+1VqPEZXtSW9WHhzupd3fWhjYYCGF5YawAA2lnh9HYBApmC7QQl7QwC6xQl3WpCniZCpCwl4/wCIzwl4sgCH/wB6twjXMASHL4C1/AiheFBZrQVrCIEoywWF3AmBalBZ9gW8AHIqrXhNYXAqOkjKKJjMwITGm5Z4oQjdgXSowwmq7JBqXpSmkpEPz3DMYQjXQgXRvBCtVYB3w1EATgXWRIVC6IBUk1SsogAy3RADUZSlKFlQE2Br+gYOK1J/AXSsNofUCZC3FomvfkjdhlgyD/cGdbhRF8SEonBgBN54+8p3WiBAEaUQObeAeBlyBBFVWcAAZagAX8iQVZkFEbhZza5xIPUFuhJAyb8AX72Z9awAVnkHfJVoB6cm/5V5ai1IW8JJsnhgCj9JXW55aiFHQaehCqZwcUKAJNpwsbUZjd1wf1yTk5F1XvRAqmEAwtJUr2FBMNoHqjxE+lQAoAFUxPligDwFpSkIAkcGfpuYc9uKQAMG+htHsJuJqK54BNmhAzqAufZ325KUp3EJ/d9weR2RA+sGgQ9gjwKRMDwAbI9l3L8AfddiUPqAtxxntmmX872IcHUZUeSnkgGkpOKhHP54MJgQBjaX3LN0pjShGq//AH/zYRDjAHZipkw1RMfdCmwaQMj1CdlFKbzxAIvMcEo9R8jEeoCXFNtQCIWNcCi0YLDmiqCoGCptinbOeeofQIGoEBU4kRCKADn4QMTadjseAGu5oTDuADrASsoqRjrMAGi5ooshpKZMl2bseAHVGeC5EDoxQJWyp2ItCcz4CtFiGuonZNusCePGeQgJcTgwQDhsQBcVoTA9BIj4RIykIASyhKeMB2OIBrnJoSPPoKqqpvLWCgXLkSg4ddtGpwIKAIrqSGYJUjVzhKr4Cu+6aT5+cSCPCEutADPOcEP/cS0epSdNCt+mYD4PoMuBqxVeIBTRdKirCwctYCdDCpLv8HUpP6Ck1gsoEWAlKQsrRghCERo7qwbPCGA8UIlSxrJRyAqbrQCHYQB3BAB4GQsqFEqjABAQb6SpGgB3LwBnIACK+Aa8MntCIxsqIUC4AgB3AgB3rgCJPKmlG5tJ/hADwKYcawki9BADEKYV9KEzWwYxCGtXQreAJ3XcrgBuVoEiOwteC0CsVKEwhwnuC0CGlauHICA4zwsrKZBh+EEzCwCOCkDH7wrzbRAGyQr8lkDHXwojpSARfAAAKQAAvAABRgASaAAikQBC1EtwPQAT4wB3zQB3WQBjBgtjAxAmkwB4IACX/gBmlgujvhADrABnzwl33ABj7gup7RQPKSRpj/G750QQFFAEVVJL7oOxZlJC9BkL7uGxX600XI8r70WxRTA0UHVL/6CxQT80z7+789gTJw1BcAXMA28TMFUgU5VCDwY8AODBP3qxdJYAXJECneklAPnMElMSAkwj+9IEV60b4aPMIoQUP/sgQEswwYpDQBQMIuLBI7QiKEsAvJUAlPcAu7sMB7IcIv3MMcEcF6AQWcUjBUACuEQCI75MNKfBEcvBdQwDFLYAW9UAm3QAjFAirecUtLvMUUkTykMQVCYwkPdEFUDMJyxMVoDBGL4x1RYGGGcASDkAwzs8KkUU5pfMcKIQAqUCBJQAVUsDvJUAVPsARTAMKWhMeIjBDe/+sdl8A3bwMLypAMWHw9iVzJBUG+JDIFyWAFkyDG5WMFBTIEDWzJlby+e7EEqLwLypA1BEQidkzKiBy/3nEIvZAMgxDFgwALlYBQsFzJQJwWfjMIqlwFg9AL7VIgvdvLiNy/3rEHngILuNALOqwXRTDKypzGAkwaVWAJEvRAVIAJsOA7pGFA14zHCOwdT9ALvLAMhpDOvVAsBaICGFzOL/zL7gILxXIIypA2hDDNR5DM9MzFTZwyhyDHknwERwPC3xLQacwAB0Uaj2IFNoRDSiDOBvJVDL3EmbI/gHMEmvzGBQIECZDRaYwqJPIuhFLIBfJFJI3Go7ElliDNBaLFLVaNxiG0JUpAxxdd03g8AQ8tRK/M02hswpU0z0Ltwy8tLzp11OacR1tCBNHE1L5MSXshBKsj1YjMAOXrHRqE1aRM1HoB0F5tyWUkymN9zRFgAhdw1TkTEAAh+QQADwAAACz0AEoBswF6AIcgUIAjV4glWosoVoQrWIUuWognXpAoX5AxXYkpYpQrZ5gtapw1YIs6ZI49Z5A/aJEubqAvcKIwcqQzdqk0eaw2frE4frJDapJIb5ZKcJdNcphRdZpUeZxZe55Edq1HeK5Iea5Le7BbfaBQf7I3gbQ4gbU6hbk8ib0+jcE/kcVegKJUgbNZhbVeibdigqNoiKdqiahjjLpoj7xtk71wjqx0ka55kal3k7Bzl792mrl6lbF+mLNAjsNAkcVClcpEmc5NkcFGndJIntRHoNVIodZKpNpPqNxRptpTqdxbrN1zl8B1mcB6nMNgrt5jsN5os99+oMRstOBxtuF0uOF6u+LZKS/ZLDLaMDbaNDrbOT/bPEHcQEbcRErdSk/eTVLeUFXfVlvfWl7fXGDgV1zgXGDgYGXhY2jiaW7jbXLjcXbjdXnkeX3kfYGDnLWGnriHoLmKorqQprySqL6Do8eHpciIp8iMqcqVqsCSrcyarsKWsc6dsMSbtM+XstCcttGBvuOgs8aktcimuMmsvMyjutOovtawv86FwOSLw+WTxuaVyOaayuady+irwNeswdixwM+0w9Gzxdq3yNy5xtS9ydW9zN6jzuir0umz1eq32Oy72ezlgITlhInmiY7nj5Pnk5bnlZnolZnomp3pnaHpoqbqpajqqq3rrrHrsbTturztvsDAy9fCzdjF0NvJ0tzO2N/R0dHb29vE0eHD3e3L1uHO2OTI3u7T2uLU3ejY3uXH4O7L4e7R5O/a4Obc4+nU5fDY5/Db6PDuw8Xvxsjvyszvz9HwyszwztDw1NXw19jx29zh5url6ezo6+7j7PLr7vDt8PLy4+Pz5+jz7Oz09PQAAAAAAAAAAAAAAAAAAAAAAAAAAAAAAAAAAAAAAAAAAAAAAAAAAAAAAAAAAAAAAAAAAAAAAAAAAAAAAAAAAAAAAAAAAAAAAAAAAAAAAAAAAAAAAAAAAAAAAAAAAAAAAAAAAAAAAAAAAAAAAAAAAAAAAAAAAAAAAAAAAAAAAAAAAAAI/wABCBxIsKDBgwgTKlzIsKHDhxAjSpxIsaLFixgzatzIsaNAAiA9ihxJsqTJkyhTqlzJ0mDIiARaypxJs6bNmzhxDogpkWfOn0CDCh1KVOVOkAMEHk06EKRPp0yfNgWwUynSolizat3KtaKAhUcJJEW6M2rMl05jVv1oNmTZow3Typ1Lt67du3jz6t3Lt6/fv4ADCx5MuLDhuiYToPhx4mvCtQCe+rQ6lTLbj5ItLzzMubPnz6BDix5NenDJBUGKqD6hcG1Yp1ZhfxwIWexlzGm76t7Nu/dNCkRUC6/wWGrB2pWpPo3KNHJz39CjS59uUYAJ4diLSEBYm6db75kxR/+27bwpeOro06ufnqBHduxBEhyEPP5lffuyoZInj3vy+v8ABgjUAj+8l50Pjgmo4IIMNijQBKkZmB0KATho4YUY8iZACRJKWEKGIIYoIk4G8NBhhxOMqOKKLIqkQIEnShjEAi3WaOONDUkQYXZIHGIJFSf+cACORKo3wGtFSsShhJb8sgs0f5yIQpJU7vaaXM9VmZAAKHSYRDB/YDLLIkmcKJ+WaAJ1pV1pKpSADxImgYkUwQRzyRTORGFmm3zepFeWfQKgo4RUzPJLEoxAowkvsyDR4YeBRjoTXpIOVIGERxSRCDWaFIEEIppYUqaBRFBQ6akt1QVomwKc0OEliyD/gYkzU8RYxIyo5poSm5K+KaGjizxzSBK2/NLEiT2cqeuyIq0JlaQQ7JhdFLM4IaszUjiByagGNsbstx1RGilwPGLyhxRPBNOoE84c2mGp4Mar0VxjXdWndRJqAk0wTVDhjCaX8IKIETJuJ+/BFc1lnn9ottfhLNC4i0idh3Tog7IIZ+zQmgTJ1iaBEj4RxRSHODNnEih36K3GLDNEb0H2pTmBEBIuEowzlhRR8jOLvGtBy0ArpLBB9FW5YYdROPMHxIgUMcUfjhoYhMFBV03b0KcKYCLSmFiiiSa0nuiDAlaXfZ/HlYIsXNRFUKEJJlE0EQwimGSip4QoJGg20C+j/zqocNQ64XQwlgSzixO7ONPoo3tXzXGuS2J3yS/WWjKLIrswkkgSU3CbnRApNs431pVyaSAiz+xySSLQ7BLF20HSKHrLfZ/qq4FPOEPNsIn/EowUHfYw5OwaP45qAtJm14QlvPDSRBKIKPJEhyboTby8dC17aYxRBKMJ26Saen3GtedKga1F/BHM3VLLPv7BBcgF7gLoF+H5gRi//63xzJ5fv4TV0x/2sCSv6/wvO/ASYLxIBy73HFA4U1MguPgHLgHA6IEXk+C3sscSAjRgAzDQQRt04IILIKArHuRACNtQAxGYsCDIe2ARVqZBXZUPJRdwAyuYQY0e+pAatxiEC/9OWJQMxKEVzfhhD6Fxi0CooAACod8BiUCcGuqKgifBgCCSqMQuAlEHRATKBh7xDC920RUwIIAEDhhBK+aKg7uCAw/NaMZWcOAnCLgDF+nYRUoA4X8/IFuVCBBG6CDghdEZQAMawLCE3NAkDZhEF6NRDFSMQhSkUIUypqHEZugAJxdoxSSJcYpLlkIYm1QiIo4ghCAEp0N5K9IF2gCJXvxwGayQwx230oA2TGKPPWQGJHZQSKy4IA+36GIvAJFG7jDwJA9whRKJwYYuWKEK2MQmFshAimgoEQ420UAyfTgNYaiBC9fMZhW0YAZTeLOHzvBFDhJATwUsAAISgJNqIIX/oxeIko/U8MUbGpkTFawCoD2ExC6HwgA5ANOM0ADEBWD2TJMw4J89TIYasKDOjmKTC6TgpA93QJMLjLOHxzhDOj2aTS+gQqTUeAYMDLIhFFDNRhqQJkJ9yIwbCOUClNjpDyHBAKG4oYxC7WEewJOWVZlkED9MBRdYylIrpOGd1GhGB2RCgKD60BRaoKpHrbAJafhwGRloExzo+IyH/nASxawJDKBhxmcwg65eZIYIftIAneYVqV7MhQbil5uW0OCHqOCoWFlaBqzWIq4nccMPR3GFxbI0DWbtISUIeiOoKlEWdogBCDxAWhZAIRKA7eEtGoCTtSrRF36YQQhI64ER/yyBEL7oYg1wkoFlKJEZjWDCCmgbAhngoRZdbIYLCssSBJxUGFmwLFXRANM2aAQGrGWIA3zbw8RKl6WbgOlMq+RZH0qiBbRNL3H1kNpeFLUmrvXhLZag3voyIbc/HG9J5xhMO8y2vrSNAUaXuFzOmkQHPozGF75b1VH4sBeQlYgOcgGH7CZEDj5UxlQZ3FEroMKHrjDwiuJLDWbQF8D1ZQEtfuiKmrhAiX1AcX1BQAglaoAmBbClDysxAhmrdw6pbcZEZ+LXUKyUw9nUgjJ8SIOMFCCZvagwQgigY2ps4shIroIXsLpQHG3gh75ggY9nHIkf3mEmDAAsNJgw5vrWAf/MNCkvNQjRZvXGgL/UaLFGHACRDHBxGhvOsjpB4cNHaATBPYyyhQeiArwqI6yCVqcpfJiHJJ2UGWKus3or8cMha2SvDZEzmzWdXjuY+dMQEcEPG0Hq9MYgtZ/MyAVc0eSG1MCHqcCyoMEgUgg7+aTUUDRB4ksKXWf5DCAWcYhg8MMZtDq9IcAvNQy9EUC4QgULucAP6fxs2pbZhxGOiLWx3RC/3uID3SbtHG7pVIkEohm32O1C9uDDTkS6o1dYcg89fRFE/1DYAICED9Nwb3Vu4Z3MCPeI/BqJdNOWCT9c9EUa0MNrJ4TePfTFf9O9AsBaFyMUzzO5E/JlH8bA4aT/lcUPa42RCzCjGfDWQbsF3sMzFFydwvAhJQbB8577/OdA/7kkvajoky745lWwgr6pwecbaduHmUb5Sd3AEUCAeOQE2aMdUE5aP/gwFxqxesWxXhCMU6MSXPfADH5IiWrDHOa32EEjWeHDMCAdmx9Oqt7p6Au8UmMLd68CMXx44xv5WxZp94Cpe7gKjoT86gQpOTWgsXGHs+CHCn/I48d+kFz4cNRclzY12h0RB7z87c3oRRv8Q/cekiHwed+77OkY6JsPvodp7awP8ZD4y/fwGR0RO4vJ3QYfIj7x0tbvRYQP+YEg4IeVd3iNmZwBDWzg+hzgQAdEIAIVqMAF4HcB/wzGDwMa0KAGNbiBDnTgCtS/3RdwgKJAaE4NNAT+9rOffTMeUeUx3F3pPiRxLOJXzpZ4/HUHcJCACriADNiADhgIZnRtGNZD3JZ230YNlOCAGriBCQiBXmRxACB5t5B4HrBuPtRW7peCKriCLNgM8HdCd+BDn3B3WIBVOkB+OJiDOriDMAAHfudD+3dH5cUGd8cFIrUMmScTNgALTNiETviEUBiFUjiFTPhDUcd1uJB/WthFW5d407eFe9cMsRALO0aCa+dD0NCCariGKdgLGcBsPSQMilVwZSBSt6BsDpEHnfQIC1V8PXQKxoZkauBDrEB6M7GEVJiIiriIPzRcif+HXGAIhnVAgl4XibK3R2iXeGe4RGzYiS3IDHnAWi7XQ9NwdAVXCj4UCBoxij0UhAXBAUgVDbUnaFaQCj4UB0RyUieHfJYoe4DFe4lXCL2YVK7gAqrWQ8eXdkvwQ3a1DM7oC73QC7lwC9RIjbTgCtjYCqywjaxACZQwCZMACbeggswACIvmVdRgCoH4XV2AVS6gEXqYVXyIECf1CesoXWQAU7l3I+gIeigHAj/EgQKpgR54Ri4QX45AgiqXUAPZkHBQkEpUjALxdNSwDCSIBz/0jhoxjqjHDIHAbwIBh9QwDWVwj2LlYckmay83jwnhh9SgYPeGBTnXQ5NgiCESgxT/qIkPFnwGKRC3lnGJ9wGAtVUZwXwVp5ED4XdX6HCc5kMPoBE14H6DAJK0gVHIMIvfZQWc8EPyhhFwYAhdhhDO5UPEAGlIZgWi8EOghiMv1kMWmXbC2EOC4HgRiZQA8Hwmp4w/pBGbl2d2ORDoqAdpFwJ+5wsbwZHNMAgYsBAisEfGgJWLZQVrAFOUYJMOQZUJMVe4ZpZZ2Qk/NJdFMgB7BAVcNwKA9ZfLB2KoCQAr1kMNx3ULOW1hp5oJ4W++gG4oh5E+tAcaQQMwBwmFxxBx8EPIIAYmqU2eAFO+gJkoAZHC8AXHuU4OJl8CaCPC5wuj5XBxWZF0KXK1+UO7mG7L/+hDqykRIQeCCYEAv4hyHfdD+3gRrwAJGwARBCBn0xAK6CRWV1AGMxlM5YkSCICOL9kJWrCOWHAGxgBm80klFEkNheBwSvBDHxd26JkQ/IUL0adpK8BdQEShZJcQ8Th54flsTUmTqxiWDlEAhqBE0UAKZcAFWHAFVoAFWuAFbKAKMFViyicTDCCg1KAMokAGWxCjM1qjnDAMr7WWVBKi1ACMrfZqX9cRRMkQh7VjuElqIQCJPTSlF8GlDIEA/BVm3faF++YneZBaPRQNxqAKqSAMyJCjqqWkNIEAg/CDabqmbbp0LBacg+R5PsQHrTYDqYWiKiGgspChMrYCwDYINP8hkgE1omP2AY7wTT/xAsCGUIlZnTRRA34qVM2QB0loIxiQWrKwlAAGApXoQxMqEwgger6AA3XGBHimZzTBpNCAB1cqYzGgpSYKFAjQBrdgp10kTHKaEw0AB51KR8swCAvaJx1gp44AqbS1AnjAoT10ZjZxAdZKDbKwBLlKWyAABbwKRKH6VK/lXyg2AxdIiJbZEgXgAta2DM3wDNBgV71ACW3wnkOBADAwCLcgr/Rqr5CgA8yZJhuAZxkXCXpQB3SAB4Uwrj20qjXxAJcaU5XgB3YwB3ZACLKApnlWrifBpD5EC4RgB3RgB34gCduaUO1aEw2gAdvHAYikGw6wATH/ewHylysN4KM7tQzFWhP1OXu8CRQw4FY7JbFuRCUwUGUA9QxygIctIQIVS0et0Ky+apQA9QhPmbR84gKQIKwg1gY5SxQu8Ah89AyCQKhAwQDIykfLkAcFOyIBEAEUsAACIAAJsAASQAEWYAIokAIm4EYDwAE6cAeAEAh50AZDtBsi0AZ3YAg7JwdtoLZF0QA1AAeAAAmQEAhwQLBJcjsxUkVcO7o3Ei31kz+km7oi4j/o8wPWo7qwayH48j+BG7u2ayGgWz/uc7u8GyCo8UBB8Lq9O7zTMQGvdEBTQrzKOx0BYEDvEQX3kx2hs7zUqyEpICFTEAyM8C6oW73eWxRq//MeUwANzhC9wuEDFfK96lsUEjAEBoIE8HsJ0FArMiK863u/NRE52UEFv+AMl9AEuwAMx2Igrou/BmwTpmMgcpMIl+AMVOAEwLC9BvIzB1zBLZEAF6Qay4My2RswiDALKAM+wkECFlzCKvE32JE73uMENzMFzGO+bWTCMkwS2/Me7EIN2/sHzkC+QPIegTTDQOwRrSIhURAFijArVMDB5ssD9hvETiwRuSs5/wK/s/AMeeIhT5zFF/G7uBMMVLAIl/AESbAIFfMeRDC9WpzGEMG6PIIESfAL+/ILuiDCwvEDu6vGeKwQQ3w6N4MISUAFf/A1EtIDBpDHhqwQBqBPz//rDIiwC89ABf6iCeZbu4dcyQXBxQZCBbaQCLOwC8EgOOFjyaI8EBNAxJeACEggN1RwCbtAv9mBK6Nsyc0bJ74DDYyQBMBgOOabQbFcyQJwve9xBImgCbuABIoADYcQBX7cLU3cy0/8Iu+LOs5wxZcQDOZbBKLrzHkcQwaCCdDgx7ywC0mABMDzHkEQAdpcya5CKM9wCUWQNDljILyczoasyAbCOk0DvQYSS/R8yM4rIQ0Myu/BT/1syAaQPDziyvBxUwVtyAvgvgf0ww0tymxsK0w80bH8zydC0Bgtyw70Lmjc0aJsQR1ixyKtzZiMHcJz0um8RtlBySytzZEzBOINE9P0DAEmUALdKykBAQAh+QQADwAAACz0AEoBswF6AIcgUIAiV4glWoooVoQrWYYuW4gnXpAyXYkpYpMrZpgtapw1YIs6Y449ZpA/aJEubqAwbqAxcqQydqk1eq02frE4frNCapJIb5ZJcJZNcphRdZpVeZxZe55Edq1HeK5Iea5Le7BbfqBQf7I4gbQ6hbk8ib0+jcE/kMRegKFUgbNZhbVeibdigqNohqZoiKdriqljjLpoj7xtk71xjqx0ka55kal3k7Bzl796lbF+mLNAj8RAkMVClclEmc5Lk8NFndJHoNVIoNZKpNpQp9tSqNxarN1zl8B1mcB6nMNgrt5qrtdksd5qs99+oMRns+BstOBxtuB0uOF6u+LZKS/ZKzHaMDbaNDrbOD7bPELcQEbdRUrdSU7eTFLeUFbfVFrgVlvgWl/gW2HgYWbhZGniaW3ibHLjcXbkc3jkeX3kfoKCnLWGnriIn7iHoLmKorqQpr2SqL6Do8eHpciIp8iMqcqCut6VqsCSrcyZrsKWsc6dsMSbtM+XstCcttGBvuOgs8aktsimuMmru8yjutOovtawv86EwOOLw+SRxuWVyOabyuaYyeivwM6rwNeswdixwM+0wtGzxdq3yNy5xtO9ydW9zN6gzeejzuim0Oiq0emz1eq22Ou72uzlgYXlhYnmio7mjZLmkJPokZXolJjomZzpnKDpo6XqpqjqqKvrrrDssrTstbjturzAy9fCzdjF0dvK093R0dHb29vE0eHE3e3M1uHO2OTJ3+3T2+PU3ejY3uTM4u7O4/DR4+/a4Obd4+nU5fDZ5/Dc6fDuw8Xux8jvyszwz9Dw0tTx29vy3+Dh5erl6ezp6+7i7PLr7vDt8PLy4uPz5+jz6+v07/D09PQAAAAAAAAAAAAAAAAAAAAAAAAAAAAAAAAAAAAAAAAAAAAAAAAAAAAAAAAAAAAAAAAAAAAAAAAAAAAAAAAAAAAAAAAAAAAAAAAAAAAAAAAAAAAAAAAAAAAAAAAAAAAAAAAAAAAAAAAAAAAAAAAAAAAAAAAAAAAAAAAAAAAAAAAAAAAI/wABCBxIsKDBgwgTKlzIsKHDhxAjSpxIsaLFixgzatzIsaPHjyBDihxJsqTJkyhTqlzJsqXLlzBjypxJs6bNmzhz6tzJs6fPn0CDCh1KtKjRo0iTKl3KtKnTp1CjSgWKIIKBqVizat1qkIIQIT8UcB1LtqxRASW+fu1x1azbt3BnIuChVu0OAXHz6t0r8sGPunVJ8B1MuHDECYATTzDMuDFjtIkTBxHruLJlt3MjR/6B4LLnz1MV/NUcmQde0KhTH5UQhDTpEqpjy+4pgIRmIkVcC1k8u7fvmAZ2aH5CC1im3JqDQPjNvPlJBT1u78p0ydkh1z9OO9/OXaOE0YmXLP9ppmjXIk5JXHfuzr59xBG3/Qh7AuzZoUPNkEfuod29//8ECWACaZg4w4kQUgjTTDOJkNZDAgBGCGACdEX2RBFQNEMLEUIkIcUSpJnQloQkdhcBeIANQQstRRziTIO6CVbijNt5FRkRTwgRRTOZEHFJMyBqBoQENBb5G2SAPcGhH81IIcQhzyRCRBQOUmbklaplBhgRwGhyHCfzZbiLfontsB6WaH7ml2acUDNmEbs0IwwnZAJGQn9p5tkYYqRxAkwzVC5BXZ1qBcGbnogahmRiSVySCRNF0BJMJk6S9sNyiWY6mJaJwUmLMGMusQswlZZ2pqaowiUaaQlCscszmhD/IetreKZq61isRTbEEkks4QctiGTijB+kBUHBrciSVVtdQ0TBIRGaKJjIeJmQyuFmESSrrVbBAYYIkEIgsosUwHCyxCXAXKcZD6du665T0CVWrRRRZMILLZdcooluJtT67r9InRhZFM88o4gfz9AiRTCKuDYCwBAvBZ9mOz6DCBGKKBirZj8QGfHHRkXgGo6ZNClEEelp1oOVILcc1MQjf5qyZieM6PLNPomsW4fHkTZCADgHnfPOuhkq9NE8wUx0Yisj7XROAy5dZrtPVx1TdFIH5q/VMx6wAAMLEDDUAF4zcIDYBgmA4tJGc20kAy3gQUktuPiCCyyQqKEB2jo1//DCH5TYoovdrgiiRgZ8I9Ba1j88wBgBByB1gAWRGzUAAwzw/ZMGf/xCzeegh04NLDkwgBMHgigjuujOuEJD5DpLze5gFqgBiS+hK+MKHBv4xIAakzAj+jKQ5FA5TyzggcvqvvzxguY3WQCI8KtXTw0uNED/EgaFPGN99bC8oPTOJWxtlguvfA/6L21oPxMKragPOiS947QAHNSr/8wfFuDUgi7VkwY0kAENaVSvEA2QCQ1UtzpoDLCAq3uGEth2rL1kABbyG54NbGIBSmRQdJBYgE3W4IwPhg4P7nNJDvJHjWkcgxRk8IIWtLAFMKBBFdAQXS0y8JIBwMF7oJNGMf9EMYYuzJALYegEK3IIukzUwQcmOAEPptgDFP0gW3txw/ecwULRTeJ4MHkBEFfnjGWMcXghmAkDMGi9ZZTQerrAwEzUcMZhlMEKU8ijHvWohVAkI3S46F9L7BA6abBiDHjcox6pwIVSMPFzrzBdgEbQGh5AaC+CWN0s6ACDD3TgkypoQiTeCDpcSPIlWhTdL/ogAxB8sgMiOMIgPCc6GsQEAwwE3TIagYQUvBIEMbiDLVbHDBbE5AWklMYnEqnIZnKBFaF7hQhXkoPQQSMNVWhmM6nwBWKEDhIFMAgCFGC+smQydJJYwSvX+cs8kJIavphmS1JZyiOw855IoCXoXvD/EgssI3TLoIMr7/lKGKQvdM9AQT9x9zlokIEK2oyoFUwROj2sRAP//BwywgDRiDYTC6oInRsqQ09qLMOeBL2nCmoROli4hAWi40NK7/mBQYiOhywpAEM/VwkRzJSdcXgnMwTJknNSQxpj6KhHm1kFVIDOGWnMiDwZ4sGGekGpS92jFaD5uWXIkTEaCN0vVPBTmkYidHZgyQJI+QwklPWecxBrS4xKjUG8lZ0wyOjnXKoRojpEA/nzBFazuscrFAN0kxhARt4AB78ihAVjNMNgCZtHLSADdIBozPK6Sta7srMSoXPsRaLKELq61bPrpANaNULahoQgdI1A7Tph8E4c//QVew8BBOiGwUzKKlIMBvycBjKCgWX8orEKqSo1VJFN3zbzDNP43FAN84LQyUC26wSBPh/BkT/AQqEKsUDo7IrdV54VdGCsiHfByxA2Xs8D5f1kHHKn2IxkUhe2XcgB9EkG52qTClylBh40EojPHVe0APDn56TxBf8y9bCfU4Nh3BuJ+L4SCaE7JUYYsFf2GkQP6xtofFNASglvuMMLCSvoYGDhT84idDPoKxB9kYP6HgSynzvGFRzczDKADhYpjEhx14dcgtBgt73l8RQ6gdjCiBd0nW3xZqmxhu7+2MMDyR8dWvzJPoBOFxr5w5UTAmKecrkDMggdJTZSYNApQ/8N7qOnKSbrYCww0RkatkibiUxUMX8OFEpWJBeC64v05gUHoJvFmTug2s+1giMcbqmHVUyNZ4jYwioInaEnEukxGwSAnzstl/VJDRtfxAHvpIYy3AA9o6Ih0IqEMDVegIFa2/rWuM41rmmQamocGACuAJ0YYK3HKlz2cwkcjFHvsOhMf84ZHfGzpAWihkQvugP65GdGpO1pgRwgdJe2sE1BN4MMZEADG0g3B0IQAhSw4N0seIG8XzCDGdDg3jjAQQ5yMGWAuuF4kwDdGIitx1WY8ODyO64+uUDwPMoap3xx73UXrVc7uOHiGM+4xjfOcd2CDwVwAB15z3xealCC4yj/T/nFPb667wqE0ri49nwRTvM2viFywf5cGBo+hVTU/Off0wLPvSlcm9QgFkhPutKXzvSmO/3pSA9dlLmcC6BbfXVbXvS4r05zZshCFqCrxLXTzHWgLyMDAf/cwBse4LKbkBmkZHjDjwE6BL/k6FDPu973HjpfLnqYbrf6HK7t5cAjPH9iXzTZDf/B/ZlO2p5oOBXo/rm7weLymM+85jef+X6HjhmC0IByy9BwK9w5z3mZMosXTWrGy4+UzF40IVyfQViw4LWfU/SijyC6Z3CRGcsIvjJ+4Yvi6wIXyMeFLTD/ile4whWUoMROEQqIZAOgmp9LBZ39uwUmLmOqFqmu/+hAP1wAEPJzpNi+c8EQXFyEczDKFXWLPyBSldu/49azPT0dce0Xfw4S9xeAbsByomN7AvFkqnZtdxA6xqQR01dpguBYG/BGyYAFBJcGoOMKplYRA3BQ0hV6BOECoGMMScZjowA6glAY51dXigc6vhBtLdeAR2Zgi+YBpMQBYRaDBTFGU2dhoAU6DqARiBY6EXgQBDBlaaB+hFUFssYGGiF+1EB+BsEAudRfsIYFxzZrhQFTn6MMsgc6gQBpBdiA3hY6q9divAc6GtFpe0WGBKFceXBmIDBGv7AROwUJX4UQbwA6yJAFsIYGoDNdGNGBUQiCCLFnxbBjgRYKLgh+ev8xAPnTBFwmAqTkhhghbQZoECz1ORXGZf5HDdy1bT9miQQxhL4GXy22gKBjURkxg5MAcQnhALl0Cs3lYFyQhZmVES+gDIaYEIAFOqKghB4VBo80UoYhbb/gSRY2e10ohqODZaVohmjIgBkRaS6nEAcAey1GYqGThxeBC5RQfg1RUp8gjM2UBUSnanYnETkgjgshbdKABuYoaJR3Pai3FwhIDYRgYUYQOiYWZteoEHqVC+HmWSmQS7gAkNCIEHgAOs9whtj1g58zCRpxATgIEQfggdIACiXoUVwwDP64EgwwZdKQhM71BfX4DNrGGA0JOrEnW7T1ZR1xkQwxA6FTCaj/iFogAHifQ5MX4ZMMcQB6NVbltXWfs44lgQHTpwpcIIxWYAZZSA2CsIEnEQJ6RQ2noAVOmQaPRA1wUBkEAGqfsweyJQPvVD8roVzUMAsFOVMp0G8pyBJQ6GsQWVYe4AiiY4wuEQK5RA3QQApdUIJUgAVk0HbUAAmbdhIvcJXIIApcUIuLhAVmAJKhAwhBxhcX8E6z0IME9QGFBzr/uBL7JVY3cFdIcJV81RIt+TnPcAc5OVMwwJMTKRMc4HnSMAylgAZjMAZl4AmpUI8omJgo8QKtFw3DQAq6yZufoApRWWko5BkccEbU4Ah1+UopcAd9SQ1p1U/ZOQtH8Jqv9AFN/yCb1yOcJ0FXviZQKSUDJZeBVNkSFgAJNbcMavCeK5EBOYdwv2BLoIFRq/MLkZAHcyAHd0AI5BlhMuEAnkcNzlAJfUAHcUAHgzALvQYL5okSqxk6tTAIdCAHdNAHkpCd/2efLUEANLCg1sMMjwCLMVEAaoCi1bMMgICUjcEAamlCytBaMEEA6GlCrDgTL9BFJhSaNXEANEAJIvpsuPAHaGkTDIADrpCkUYgLdsCiqfECD7hFcHCZLRECMFo9r+COM3EA3JZBjxCEPGEBLDCAkDAJj6AHOLABFzoTFvACbiAIbcoIeIADGvB+v8ECkCCdLaUGfooTLPAI6uMMgdCkN/+xAG4gltWjDHhAo3uBABMQAQIgAAiQAA8QARMwAiVgAqahJwOwAThgB38ACHigBiwwpzURAmpgB4VACYIAB2rAqDzBADTgBn8ACZAACG6AA5TKF+PDMW5zrDUhACewNA+DrM76EgiANUTDMs9arScRAYtDNEFgrdx6EsWqG7DRreIKEgKSNV+BReOarhoRreb6FeWkrvDaEA8ABDcCBa7BA/GarxPBJ+FRLUNAGoeirwKrEIuSGMBADeqiGdQ6sAw7EJyyJUMgBc+QCa6Brg17savSKZzQDLuwBIpADcSiGY5zsRfLr4mhCZxgCBNLBJsADNcCGD1AshdrG4ChCJD/IgTCkAm9oAibYAi4URrvKrPcKgAVAhi0sCBLoAnUoAhQ4AylAhjhKrT6mgBroxZt4rJF0AsFQ7GREbBSC68SoBlF8ASHgAjPcAlFgCFBAhhh8bX6+q0IgrTh8gzNcAnrQjVu260CIByagS9+oAmG8CRoGxn9krfwigBVKwSzkgkFcwvUsLaJUQGGC6/YGhmiAitT4gf4QShCEAQWO7ndCrdCsAua8LGYUATAEAxPqxY9gLeg66zlShrCYAi9oLQJmxg6ELSvWzXsmhgYg7bQoglRIAyWoBnNurvcuiaRUTLPsAvQ4gwmIxmfi7zOarJ1AQUl8wRO0Aya0CJUkhg/p3BJ1PusAZAWkZEEC0INDSKxgRsZdzG+1sq3iSEFGjIEjEslUvCygQG/1qoApEEEvSAMuSEp+lsXHsO/zxq2pDEeG4Ihm7GwCOw2/usaEnu7dcEDNhPBzho1rFLAXxG1GlytRNuuXhvCz4q4UtO2JiyuE7wzs7PC42q9hKu7MMw15mu8NRyvRVsXnpvD8ao2MOu6PsytCkCvX5G7Q6yvCDACJDC9nhEQACH5BAAPAAAALPQASgGzAXoAhyBQgCNXiCVaiyhWhCxZhi5biCdekDJdiSdgkClikytmmC1qnDVgizpkjj5nkD9okC5uoDFypDN1qDR5rDZ9sTh+skJqkklvlkpwlk5zmVF2m1V5nFl7nkR2rUd4rkh5rkt7sFt9oFB/sjeAszmCtTuFuTyJvT6NwT+QxF6AolSBs1mFtV6Jt2KCo2iIp2yLqWOMumiPvG2TvXCOrHSRrnmRqXeTsHOXv3qWsX6Ys0CRxUKVykOYzUmZzEWc0kie1Eeg1kig1kqk2k+o3FCn3FOp3Fus3XOXwHWZwHqcw2er1GCv3mSx3mqz3n6gxGWx4Gu04HG24HS44Xy84tkpL9krMdozOds4Pts8QdxARtxDSd1ITd5NU95QVd9VWd9aX+BXXOBdYeBhZeFlauJpbuJtcuNyduN1eeR5feV9gYKbtYaeuIeguYqiupGmvZKovoOjx4elyIinyIypypWqwJKtzJquwpaxzp2wxJu0z5ey0Jy20YG+46CzxqO1yKe5yqy8zKO606i+1rC/zoTA44zD5ZPG5ZbI5pvK5p3M6KvA16zB2LHAz7TC0bPF2rfI3LnG1L3K1b3M3qPO6KvS6bPW67fY7LvZ7OWBheaFieaKjeaMkOiMkOeSleiSleiXmuianemhpOqmqOqsruytsOyytey2ue27ve6/wcDL1sPO2cXQ28nT3NHR0dvb28TR4cLc7MvW4c7Y5Mjf7tPb49Td6Njf5cfg7cvh7tLk79rg5tzj6dTl8Njn8Nzp8O7DxO/Gye7LzO/P0PDMzfDP0fDS0/HW2PHc3PLf4eDl6eXp7ens7uPs8uvu8O3w8vPj5PPn6PPq6/T09AAAAAAAAAAAAAAAAAAAAAAAAAAAAAAAAAAAAAAAAAAAAAAAAAAAAAAAAAAAAAAAAAAAAAAAAAAAAAAAAAAAAAAAAAAAAAAAAAAAAAAAAAAAAAAAAAAAAAAAAAAAAAAAAAAAAAAAAAAAAAAAAAAAAAAAAAAAAAAAAAAAAAAAAAAAAAAAAAAAAAj/AAEIHEiwoMGDCBMqXMiwocOHECNKnEixosWLGDNq3Mixo8ePIEOKHEmypMmTKFOqXMmypcuXMGPKnEmzps2bOHPq3Mmzp8+fQIMKHUq0qNGjSJMqXcq0qdOnUKNKnUq1qtWrSgUkwMq1q1elEYII4YHgq9mzaG+SEMJWyA4BaePKnUtSgI62bU3Q3cu378QEPPDineC3sOHDAMIKFgwBsePHZyksXuxjK+TLmKMKODF5Mg+4mUOLNgq4c+cTo1Or7gnBh2nTI1bLni1zwuvbEWjr3m0ygInORirhQlTEdBAFvJMr35hgh2lclyhJK/SaR4Dl2LNDXOB6chEmzAjl/5pEychry9rTqydou3MUX++dEZrCbIlpH6DX689ewvQkZrAUUYgzvjgziXEL7KegcnYBV8QUzlzCFhSFSGEaD+gtqKFs3HVGBC6WFIGIfLcJcUJ+G6Y4mgSmmceHM4gIUQkzTLxGgoo4jraWYMUJQQgzTQgxIh8CDtFZELnlqCRkDQpmBC+IGGIELrwYAQUzvZjXWWVLdolYaZNdIk2VTPjiCy+w1NiZDih66SZdEQDxHDO+1AgFLJeoOVkJb/a5146LCWjIEk/ickiQxkng56JpbdZZEbcUeEkRVzpD3ZYJMqqpV2BONoUvTeAizYFFaDnZW5umilVrHgoBhSGXIP9CiTNTvKaXqrhS1V5b9rH1ny9TgGdILoX0OBlhuSb7lG+CFUKjEIXkMkUvuBhxCYz3Zarstkoh4JxgwkHBRCWwwFJJIpTctkOG3LZLVIeLvegMJYVIc8kT49naprv8/rTrYlI4Iw2RlTjjzC2mLkZBvwwHFcFrD14CpBBPQGFcYw1n3FN/tz1ZZXXsaiyyTSyWeKeei5048so4PVzibTeyLHNNFbxsXJIz5xwTZzZThpzOQL8UWM94sRm0igMQoHRRSS99kADdES0En30RcABSB1hwtVEDNNAAAUQRoMEagKgSCy2sRIIHDRYMwNMBHLRRtixoN2LHCw0QlIBYUiv/OpcFajSiizSES5OMKm9s4FMDakCyTOGEK9NIDlvz1IIdtEBOuC59vAA2Tw+4kbnmkDsTiec4WWDH4KQX3kwjLYANgdQ+aJuWC6u0rvkubHx+Uwqp6K55I4rjxMAbjwtPuDN9WJATA24oo7zmrLRQUwN4NDM95KpwUHPPqMaVASvbQ66MDTZZEEn5kDfCgE1raM8+4Xb4PtMGo2sezf7R6N5H5S9pAev0x7/WOUMJPaNaXNogvGYkr3WQAOBLXiCw1jVDGRUknTJCMJMGkE93ypBf62yBAZq8QHqQQ8Yo0BAGLnDBC2PgxC/6B7lVPAAmahAh4Y4hijO08IVk8EQw/2hIOEM0oQc78AEQ+LYYZMUFEKR7xRxg8IEOWHEFTnCEDqVBi7zBhIG724MMQGDFDogACYHYBeloEBMMJENzylBEElRQRhDEoA6yIN0yUiCTGeiwGGm4AhUGSchBVoELoSCiNFjhRZaoQXPDMIMVClnIKnhhFIqMBAAFYIDfCKF2c4Ei5B7BgjKaso530KEu3ucSMBaOFkg4pSyToEbIveAlFkBh5OZARlmWEQa5Kx0HXxKCB0YDFIKkpDKp4IVgQE6TLHmBCKOxiUkus5JiKAbkAGE/gUBAAvsyiyuloYxY+lKWK4gF5FjhkhZoTg/nlOUHAqG5DLSkAAOUhiREEP/PU8JBh8u4YUsakL9onKEK11zmFUoBOTqsxAJvJNwzxoDQhFISC6iAXA4OowHI7WIF/ZSnIxrKEgaI0BlJCKks5eDRloiScIFQ6SlhoMtFbsR5EcFD4aJhhopalJJWYCjhmlE8jHRTIY0o3DPE4NOfEhILvyhcMnDql/wpA6QyPaUkIEfVjAyTIS+VRkqzaso5kNSrEAkB5BRBVlPCQIc40IgFbMFGh2BAl51oqlOfqk3CNUIjb1CDBA8SAhGmQa97pcIWjlE4PBTmBZCTQVtNCYJaSoMRHOkDK/ioEAtALqaTLeNICzfYiWiWswz5IBc9EForwgFyyXBbRqC4i7j/MsQOhRtGMhNLyTHQ0Bn2xIgGlmELwSK1cKewJm8LmYbCKaORe1GtI1pbxiRADroXaQDhNpsQnRJuF71srQpEqIaMaHeRqEVIRwsHA+pa8RWQm4FcpaoG2R4En4Uzw3KVWYVTFM6hsyVccUv7AF2GYb9AJUbhbLsXzxYOq+7N3xoyWzjuGuSBc3CvFfdQOFtopA8VTm9BvKtPDXdABs/cSFiVsYajAqCwO8QCgilphgq7WCLD7bBxCQJZwgFDuTOmQiYK91e+4KBwrzBxB8xKuFRw5LwhJsh6peGM8FJ3BZArrUSgvF0RC8QWhRurhi0rDftexMHma0M3H0m4USB2/79ZeAbhloHdioRVGgMeCIk9EeRCdoGGttDyWV5aByVjeagdATH1OMtmaSRZyZa9ZUYUvc70HgByVqYuPQtHgwxoQAMb2AAHQhCCFLTg1C14gapVPQMauBoHOMhBDtSQP8gtow2V80Ph0tDnQgqjcC1ggLCHTexiG7vYLdgino27PsKNodeDtAJjCVfntKhWskrWJR3awO1ue/vb4A63rlu32TcUDrQmHq00IhHudrub2+MmnYWnTAsld+C188u38pbxhqtBonDPhjYVhKrvgusYzITjgsCp4EzClbAmNWiFxCdO8Ypb/OIYz7jEIQdhDdfC4CDXXYaVvOmQF3wZrv9wReEkYW8Umzzky8hAs6VxYIGP4uUv18LCo0o4Ddgk4hoPutCHDjk6KjmPODe5HOzN4aTr+4EsV7LLnT6/PuQtqc5euCmozj4dKlzgDZfGw+mSv/ZCmuvzE2GhlSwItG+vemol3KNNjAQDOnAZylBGMpKxi13owha0CDwtZMGKwrNiFapQRSrIvE2BAoDSmBB4FfpquL1b/vKYz7zmddeMSACvcGQQuLSXV220zFzM7v0A5N7N+nbHm3otcOUi7A1fv7b+9m14/TqtBwA0J8PedYAc7zEygIhus6sAaLSboa0FOUuDzhppQQaH6nmB4JZwn3jzcr1AQ1oI2ix0OLf/1Auni0TLm/c0KNwulOwBEXLgw+cvSAY7Tt2tFs7xFzly+5AvkA3I7xgy1mtnUDircGMSETyuU30D0WPSEAxANmObUDiYxRfuRDi/Z2JtRzh/8GSwRxCXxl50BzkawWWLNHwEMXN3YGIgkEG7sBGW1QhjZxAEkD9ooH17VQU8Jw1uEH0V1Hle1gDGF3BBZgWUhz58MQAP5AQaJgIiZIIYQWnVcxDqRDjTpWG1d1nwt11OSBD6Jw27wFruFXyNpRE2QDiREFwKEX6EUwwBOGNlQEPNcAEaETw+mBAv9QsPuFxDZoGllxaUtgtVRF0ZaDgciF4J0YXSYHatVXfAZl5d/7YQB6B27jVekBODFqELquBzDQFRhQMKNmhRWmAMhQMI0acMCpgQG/BAmfCJCdUFzicNdlAYaCYNgkBdRwA55bURp8UQulQLmZZVKmB8tPBhFnZbheMMijhZ9kc4kKARF/B+EKGGhHNY+3UF/jVnaHgRbeBlCPFS0VAGrKhMWhB2u+AAhnF9hLN2bfVWHdYR0MgQMwA5kgCGZAUCSEc473gR+cgQB6BLHxVaJUc4/HcSB6Ba0YAJ4UhIWXCNhNMGK/EAAwQNPcVbWwAMkFNXhUEACEc4edBWMqBDRaUSM+dovxhPKlBrpBhNHpWMIeUBi6A5DukSGmB80iAKWcCKVf+QTe1jgCPRAsYECliAk2UwbYTTB45xATr0CvTnSx/QdIWTiyxxAGS2CzcgU0lQU+zkEuhIZXVAj/EEA/fIjDHRAjV1DJqgBW9mBWBACpqjCqzEEjjwQNIASEHJX1YgBlvXPgXwGBwwfdKwCCxZRipQBzQpDQDmEpwIOa+ABF5ZRh/gBGHJRd9nEne2C7x0TjKgboWjCmbWToUZDaagCWTgBV3wBWcACsNAOpHQhydBAzUlDc9QCpkwBqQZBmgQCpQ3insJGRrwml7oCHcgB3FQB4IQmYQDlS/xALU2VJKwB3MAB3MQCK+gbKwwmSexlYUTC4EwB3EwB3vwCIXpV53/+RIYEEz5tgx0wJMowQHLWT7LwAah0QAjyT7J8FUxQQB3xj6OZUJyOT/IORMEoAaMJzzO0D01cQBvEJ6cBwnZmBkvkE/K0wxvoJ4sEQLtKTyroIkHSmnlwwj4ZxMMoAas0J/mAzs54QBtQAvKJlWAsI+j0QKN4JfrpAa7mRMtwAgR+gcheRMM0AYb2TrJYAcDiRMYQAN4AAmFpwqA4AYtwJodsQATkCBaoQDfRAEkYAIncALXcRAagAN9EAlJCght0ALWmRkDsAE4QAd94Ad2oAZkGhQhoAZ0MAiRAAiBtaM80QA00AZ90AiN4AdtgANDahiOUiKocTSIChPNYTN+/5OojqoSrPIyQRAyj1qpIfEvJbIDlrqpIiEAntQzC8OposoRiyo1PzOqqGoR8EI0PpCqrkoRmNoWRoAyi6FAr3qrCxEAHLMYTYAnr4ExuBqsT3MXk7EEzOAMUWAaP2AAwtqsBLGqPEIEh2ApxnGqzhqsisGruMAMl7AEM2IxkzGp1yqsgMIjuEAJhuAMUgIdpzGuuCoAKMAjk2AE9MoMk8ALsAIF9DoZKuOurtopstoLZzIlzsAHP0KrbREb/uqqceIdvGAvQhAfznAIk/EDOLOwo/o9i2ElhjAJllIqUtArgoEhGIuqhboYzvIxsxIeaxJOJeuopRoovFAIhUAJUv9QBIdAHJMRMy/LqZHKI0VQBLDgDMywrcYiGEjSs6Iaq2whBbnQDMQxBXxwr0fbFqCktJbqqcDRC5NQCdNxJbgAroJhNFhbqTG7sb4gHrDQDBbSGbZatokKrbI6CcRhBLBgCIXQC5eCtE4Et4nKtEIgtMdaCUUwC3QitnhxtX6LqLraGVNQCb5gBBCCCExgCIjbFjvArIuLqE0CMM1wrLViCM1wuXmxuYkqAEOzGOlKCUJbJ0JQK5MRqqZ7NIArBGUSIE8CC1sCrLMbNLvqKc1wIEyAsG5Bqb07MyVjGunatinjsscrMwHwLaYBu4uhsM+bqAkQNTZjsddbqQtANCQ6272VWrtj67ziCzS/2xk8e76VGr2Jwr6iCjWTobjwu6kLwERsQbb1K6ouwxZvu7+cqgAlUAK8+xgBAQAh+QQAJAEAACwOAlIBmQByAIcgUIAjVoglWosoVoQrWYYuW4gmXpAoXpAxXYknYJApYpMrZpgtapw1YIs6ZI49ZpA/aJEubaAwbaAwcaQydqk0eq02frFDa5NIbpVKcZdMcphSdptVeZ1ZfJ9bfaA4gbQ6hbg8ib0+jcE/kMNegKJjg6Npiadsiqlxjqx2ka55lbB9mLNAjsNAkcZClMlEmM1Im89GnNJIn9VHoNVIodZKpNpQp9tTqdxbrN1kp9Ngr95ksN5pst5ns+BstOBxtuB1uOF7u+LZKS/ZKzHaMTfaNDrbOT7bPEHcQEbcRErdSE7dTFLeUVbfVFnfWV7fXGHgVVvgXWLhYWbhZWrhaW3ibHHicXXjdXnken7kfYGCnLWLo7qQp72SqL6VqsCZrcKdsMSDvuOgs8aktsiluMmsvMywv86FwOSKwuSSxuWWyOabyuady+iwwM+0wtG5xtO8ydWjzuim0Omr0umz1eq22Ou72ezlgYXmhormio3mjJDnkpbolpromp7poKPqpanqqq3rrrHss7bstbjtu73uvsDAzNfCzdnG0NvK1N3P2N/D3e3J3+7T2+LY3uTL4e7R5O/a4Obc4ujV5fDZ5/Dc6fDuw8Tux8nvzM3v0NHwy83w0tPw19jx29zi5url6Ozq7O7j7PLs7vDt8PPy4+Pz6+z07/D09PQAAAAAAAAAAAAAAAAAAAAAAAAAAAAAAAAAAAAAAAAAAAAAAAAAAAAAAAAAAAAAAAAAAAAAAAAAAAAAAAAAAAAAAAAAAAAAAAAAAAAAAAAAAAAAAAAAAAAAAAAAAAAAAAAAAAAAAAAAAAAAAAAAAAAAAAAAAAAAAAAAAAAAAAAAAAAAAAAAAAAAAAAAAAAAAAAAAAAAAAAAAAAAAAAAAAAAAAAAAAAAAAAAAAAAAAAAAAAAAAAAAAAAAAAAAAAAAAAAAAAAAAAAAAAAAAAAAAAAAAAAAAAAAAAAAAAAAAAAAAAAAAAAAAAAAAAAAAAAAAAAAAAAAAAAAAAAAAAAAAAAAAAAAAAAAAAI/wABCBxIsKDBgwgTKlzIsKHDhxALHohIsaLFixgzKpwQo4YLARpDihxJMqKFGihrtCjJsqXLjAJEpEwJ4qXNmzgLKnAxc2aFnECDjozQsWdKGgyEKl0KsQINoz1jKGBKtWrBEFChfrTKVakBnlmhhuhKFieDomGh/izLtiSFp2nDRmhLVyOIrDjiLEKTVmrdvxEFtAi7aBGdU2fSugDMmOECtD1t7AgV5NEcOTjSTm3MueAEuEZ9QPoRKhQaIKF0hJ0BsrPrD2HXVFp0I82oSaLmhKUxwXXnmFlv2Dgzig5KIGuChI2xwDdnBS+y2rBcI84o5XFbtHYOmGPwGmhGpf+5YSfUjrQ1uTM+GRllmErn5VzHMT4sBfWAgfe8ASkNGhyQQILDDqJUkllWMSSFX107ZWXHKZPg4EMokDDyiA9huTDRgnSdFRYkoxhYAxCPXBjWWBzS5VRWYZyxAw+zoXFeWmulyBZWUN2wSCXF3YDaKHwhqKCNZH0VVhCV8PDIKWvUgINqWb2wGZFdeRiWD2vYEQcd16UlwnZUWvXWTAfWwEYokwAxGRqPqHFDWBaESdZdM4VhHniUnEHJIzgsMopuWfEmJ1eCGVXHIzvgQIcdjK4RRw1vRjnloEw9BhVxocyRxil26PCIHGmxACalSn2WFRCjnBIEeaeMImBYH5D/WpUEad1wxo7n+QBEpEYJKitVdKaFw568QsXcr1VVEBdKPyAalnbIVjXBssumFy1V7FGbVY3XMiWTtkYl2K1V0YE7kwsJjFuVAJCBG0IAS12QAhhvIJLIIWZwUQICvmWgghhwJHJvGVt4QABBCsxgLkrc5oSAFo2cIvHEFIviBgmMObBFxBR3DEoZGwgUwcIyzBXUAFp80vHKFCPCAV0IcAEKyzTDkYGy4EopFAaJ0OyzxF8cTBYHHP+8sig5gPulUCWoTHEphORBBRRMRHFFH5usDEcDXaUgSselCHLHFFA0YbUfnXSMBg8wxAAaVHEyPfPEpORxhBB45433EE0E/2IKxYlwXZUKqU7cSRZF6K33EFEQ0rEbBQwkwAEKfOtrUBs4LTEgdyvuuRBRZD3xG0IvVcLXE/eR+OeLV5H2xGMcNEEFkzpcdCl3DMH650c4PvEWTD0gycSlWKH77oonoQnFKZTlBcVZHI+84kX4fgooGixVBvFUSD993kcsL7EnD3R1geZ9eP993khwMrEZInWBwgAMcYD6KXiov74QS5Ay8RddeZ7ENmGE/X2uCn9rFQZCwgFQNGJ+CtmexCyxOgPq7Q4T+4QDrEIAR0wMCxb03BAsMTEuiMQNEnsg/QziAE9MTAohpJ7oTqECq9hPYp3oXAzzdoWJIaJ0GGngxP9UWJATTAwTFdyhEPIwMTdYRQsTA4T+QpgE/11vgyFBIcWIKJAvTIwPStRbE0ohMUfwiypimNgdwqi3TEzsZSHxwP2GCEE4TIwKbMRbEV43CiwyRYunmEIe8TYIoxnykFtEQdGWMEghYGJiGaiKHSUWhUYCApGYzOQpktBIEkoMjkx5w8QEOUhBaPKURmPkIB8psUhSZQxqbCQrUYnKRJjgEKMc5B4nVj6qQHFzU7QgEqwoCj9mpANzlJgtBQKGie1hkGOUWCTOyBQ54lCHSrTCxBIBRIyIEnAmIIgRJXaJJO4QD020SgEiMTErsHEIhZiYF0SCzG2GsyAQ0NwT2Fj/hBmugCtelBgmCqjEKZBRYtkLyTcTcYKEAJIQ5rQgFjJoTKZgQHN7COb0jjBDJ4akA6Bg6EKsKbHo7TAJrzuFGMjSTIkVT6OsK4IpJSaKkIWkCw1tCCBLAcMQHsGTp/jEBcjSgNtdAabUm6nE5hkvF0qMFFNAqt5+SjEtsAWkFFPd94bAhFme4hDdDMoJ7leKPERUhKGjWBlWWBYUzA2HWCjCFIegBD8cVGKKqKhStFC4AVqBCHNlQiA6ZghqsuUEb30qILDghCQgYQlT0ANQt9nLJyaTFH+4QhMcuwQq7MGrEnuDYduygaJlkgyRI0sJhqfJUXiBrX8pQBcSa7RG/5SALg0QQzJ/lghQcsYBXWCtzw5xAti25QJgcCrNRPGG2+JnA1ooQyIcIYlGwEEMKNDrSxRQgQkIYHILYMDsPhACEbjAAAcZQAe20IbpRsK6XziB4NTVEtgsKwb0LYsARqAta+W3KtAB15D+yxRTaYsGBK5KtrQlggQvRT/muo+Dg9KghdVgVBN+iZX2g6EMZTgnODPKDuYwiWL1JG4fdokAcASVSZwiSFkZcIpJcgCwGOVNQfhTWiQ8Y5JsmEzlQdQaRhGGsPSmxyMJsVHosAjizOEGdCgxVF4ALySHJFgpWQMPMjOJOUCCDXQ4ww3KdK50WRkmNp7JIkqzg8Osgf802DFKCDB85ogooF0peVCJcfCIUegYbnXOiIF7IiE0qGEUcrjBDX4wo56ULNAYsa9RgFCJUGDINqF41JRrB+mHQNgoi4hDEOaQGDTEgcwpWVqnKRLgHNVAPqNYUqONEqtVU2QCMoDKDvxEBx+FAQ2hQDVKLmfrhyy4J4uwwxpOMQcAVSLOM/FLsT39raxUgk11ePGz6DxthFR4P47CwQ3mQAdKa9oo/u32Qn48EzmEItbjFgVloEIDHqt7IUqeiQ/mEIof9CAUdcDBaYwl43sfJAAsJnRpTqGGGuQYxj3ZisEXUu2eBCEUtJGPclYllokzhAFh4Y+IdmTilDTM4wdhoUBaJkMbHPyA4Cj/eFxynIasuIDTMT9IwqHCcTlzO+cFCUCatYVioDPkzuB6tNEfAnJq6WzpTVmWqKBOkZ33pNZUp8jQh33krFOEXVHBudcdsgCFoQRaY7+IAshrb3UHBAA7;" vertex="1" parent="1">
          <mxGeometry x="482" y="43.670000000000016" width="528.09" height="287.67" as="geometry" />
        </mxCell>
        <mxCell id="TDGRRJtZO2QNYIBtxTvZ-12" value="&lt;font style=&quot;font-size: 15px;&quot;&gt;&lt;b&gt;Head is the star symbol that appear whein you run git branch command and it should always point to the latest commit id&lt;/b&gt;&lt;/font&gt;" style="text;html=1;align=center;verticalAlign=middle;resizable=0;points=[];autosize=1;strokeColor=none;fillColor=none;" vertex="1" parent="1">
          <mxGeometry x="128" y="464" width="865" height="30" as="geometry" />
        </mxCell>
        <mxCell id="TDGRRJtZO2QNYIBtxTvZ-13" value="" style="endArrow=none;html=1;rounded=0;strokeWidth=3;" edge="1" parent="1">
          <mxGeometry width="50" height="50" relative="1" as="geometry">
            <mxPoint x="296.5" y="265" as="sourcePoint" />
            <mxPoint x="296.5" y="89" as="targetPoint" />
          </mxGeometry>
        </mxCell>
        <mxCell id="TDGRRJtZO2QNYIBtxTvZ-14" value="" style="shape=ellipse;fillColor=#0065FF;strokeColor=none;html=1;sketch=0;" vertex="1" parent="1">
          <mxGeometry x="292" y="188" width="10" height="10" as="geometry" />
        </mxCell>
        <mxCell id="TDGRRJtZO2QNYIBtxTvZ-15" value="" style="shape=ellipse;fillColor=#0065FF;strokeColor=none;html=1;sketch=0;" vertex="1" parent="1">
          <mxGeometry x="292" y="129" width="10" height="10" as="geometry" />
        </mxCell>
        <mxCell id="TDGRRJtZO2QNYIBtxTvZ-16" value="" style="endArrow=classic;html=1;rounded=0;strokeWidth=3;" edge="1" parent="1">
          <mxGeometry width="50" height="50" relative="1" as="geometry">
            <mxPoint x="361" y="119.67000000000002" as="sourcePoint" />
            <mxPoint x="302" y="77" as="targetPoint" />
          </mxGeometry>
        </mxCell>
        <mxCell id="TDGRRJtZO2QNYIBtxTvZ-17" value="" style="shape=ellipse;fillColor=#0065FF;strokeColor=none;html=1;sketch=0;" vertex="1" parent="1">
          <mxGeometry x="292" y="69" width="10" height="10" as="geometry" />
        </mxCell>
        <mxCell id="TDGRRJtZO2QNYIBtxTvZ-20" value="" style="shape=ellipse;fillColor=#0065FF;strokeColor=none;html=1;sketch=0;" vertex="1" parent="1">
          <mxGeometry x="312" y="879" width="10" height="10" as="geometry" />
        </mxCell>
        <mxCell id="TDGRRJtZO2QNYIBtxTvZ-21" value="" style="shape=ellipse;fillColor=#0065FF;strokeColor=none;html=1;sketch=0;" vertex="1" parent="1">
          <mxGeometry x="312" y="799" width="10" height="10" as="geometry" />
        </mxCell>
        <mxCell id="TDGRRJtZO2QNYIBtxTvZ-22" value="" style="shape=ellipse;fillColor=#0065FF;strokeColor=none;html=1;sketch=0;" vertex="1" parent="1">
          <mxGeometry x="312" y="709" width="10" height="10" as="geometry" />
        </mxCell>
        <mxCell id="TDGRRJtZO2QNYIBtxTvZ-23" value="" style="endArrow=none;html=1;rounded=0;strokeWidth=3;" edge="1" parent="1">
          <mxGeometry width="50" height="50" relative="1" as="geometry">
            <mxPoint x="317" y="889" as="sourcePoint" />
            <mxPoint x="317" y="713" as="targetPoint" />
          </mxGeometry>
        </mxCell>
        <mxCell id="TDGRRJtZO2QNYIBtxTvZ-24" value="" style="image;html=1;image=img/lib/clip_art/general/Full_Folder_128x128.png" vertex="1" parent="1">
          <mxGeometry x="326" y="847" width="54" height="42" as="geometry" />
        </mxCell>
        <mxCell id="TDGRRJtZO2QNYIBtxTvZ-25" value="" style="endArrow=none;html=1;rounded=0;strokeWidth=3;" edge="1" parent="1">
          <mxGeometry width="50" height="50" relative="1" as="geometry">
            <mxPoint x="321" y="715" as="sourcePoint" />
            <mxPoint x="381" y="567" as="targetPoint" />
            <Array as="points">
              <mxPoint x="370" y="676" />
            </Array>
          </mxGeometry>
        </mxCell>
        <mxCell id="TDGRRJtZO2QNYIBtxTvZ-26" value="" style="image;html=1;image=img/lib/clip_art/general/Full_Folder_128x128.png" vertex="1" parent="1">
          <mxGeometry x="393" y="582" width="54" height="42" as="geometry" />
        </mxCell>
        <mxCell id="TDGRRJtZO2QNYIBtxTvZ-27" value="&lt;font style=&quot;font-size: 20px;&quot;&gt;&lt;b&gt;Git pull = git fetch + git merge&lt;/b&gt;&lt;/font&gt;" style="text;html=1;align=center;verticalAlign=middle;resizable=0;points=[];autosize=1;strokeColor=none;fillColor=none;" vertex="1" parent="1">
          <mxGeometry x="255" y="1005" width="309" height="37" as="geometry" />
        </mxCell>
        <mxCell id="TDGRRJtZO2QNYIBtxTvZ-28" value="" style="shape=image;verticalLabelPosition=bottom;labelBackgroundColor=default;verticalAlign=top;aspect=fixed;imageAspect=0;image=https://res.cloudinary.com/practicaldev/image/fetch/s--38PuARw2--/c_limit%2Cf_auto%2Cfl_progressive%2Cq_66%2Cw_880/https://dev-to-uploads.s3.amazonaws.com/i/bulx1voegfji4vwgndh4.gif;" vertex="1" parent="1">
          <mxGeometry x="387" y="1042.5" width="479.12" height="269.5" as="geometry" />
        </mxCell>
        <mxCell id="TDGRRJtZO2QNYIBtxTvZ-30" value="" style="shape=image;verticalLabelPosition=bottom;labelBackgroundColor=default;verticalAlign=top;aspect=fixed;imageAspect=0;image=https://res.cloudinary.com/practicaldev/image/fetch/s---X5AXldj--/c_limit%2Cf_auto%2Cfl_progressive%2Cq_66%2Cw_880/https://dev-to-uploads.s3.amazonaws.com/i/zifpnl1h6a4tk4qdc9sy.gif;" vertex="1" parent="1">
          <mxGeometry x="-140" y="1042.5" width="483.55" height="272" as="geometry" />
        </mxCell>
      </root>
    </mxGraphModel>
  </diagram>
</mxfile>
